<mxfile host="65bd71144e">
    <diagram id="7gyk8PjDFRhSXgvl9cZU" name="Page-1">
        <mxGraphModel dx="1309" dy="514" grid="1" gridSize="10" guides="1" tooltips="1" connect="1" arrows="1" fold="1" page="1" pageScale="1" pageWidth="827" pageHeight="1169" math="0" shadow="0">
            <root>
                <mxCell id="0"/>
                <mxCell id="1" parent="0"/>
                <mxCell id="2" value="" style="shape=image;imageAspect=0;aspect=fixed;verticalLabelPosition=bottom;verticalAlign=top;image=data:image/jpeg,/9j/4AAQSkZJRgABAgEASABIAAD/4R7yRXhpZgAATU0AKgAAAAgABwESAAMAAAABAAEAAAEaAAUAAAABAAAAYgEbAAUAAAABAAAAagEoAAMAAAABAAIAAAExAAIAAAAbAAAAcgEyAAIAAAAUAAAAjYdpAAQAAAABAAAApAAAANAAAABIAAAAAQAAAEgAAAABQWRvYmUgUGhvdG9zaG9wIENTIFdpbmRvd3MAMjAyNTowNjoxMCAwOToxODozMgAAAAAAA6ABAAMAAAAB//8AAKACAAQAAAABAAACx6ADAAQAAAABAAABMwAAAAAAAAAGAQMAAwAAAAEABgAAARoABQAAAAEAAAEeARsABQAAAAEAAAEmASgAAwAAAAEAAgAAAgEABAAAAAEAAAEuAgIABAAAAAEAAB28AAAAAAAAAEgAAAABAAAASAAAAAH/2P/gABBKRklGAAECAQBIAEgAAP/tAAxBZG9iZV9DTQAC/+4ADkFkb2JlAGSAAAAAAf/bAIQADAgICAkIDAkJDBELCgsRFQ8MDA8VGBMTFRMTGBEMDAwMDAwRDAwMDAwMDAwMDAwMDAwMDAwMDAwMDAwMDAwMDAENCwsNDg0QDg4QFA4ODhQUDg4ODhQRDAwMDAwREQwMDAwMDBEMDAwMDAwMDAwMDAwMDAwMDAwMDAwMDAwMDAwM/8AAEQgARQCgAwEiAAIRAQMRAf/dAAQACv/EAT8AAAEFAQEBAQEBAAAAAAAAAAMAAQIEBQYHCAkKCwEAAQUBAQEBAQEAAAAAAAAAAQACAwQFBgcICQoLEAABBAEDAgQCBQcGCAUDDDMBAAIRAwQhEjEFQVFhEyJxgTIGFJGhsUIjJBVSwWIzNHKC0UMHJZJT8OHxY3M1FqKygyZEk1RkRcKjdDYX0lXiZfKzhMPTdePzRieUpIW0lcTU5PSltcXV5fVWZnaGlqa2xtbm9jdHV2d3h5ent8fX5/cRAAICAQIEBAMEBQYHBwYFNQEAAhEDITESBEFRYXEiEwUygZEUobFCI8FS0fAzJGLhcoKSQ1MVY3M08SUGFqKygwcmNcLSRJNUoxdkRVU2dGXi8rOEw9N14/NGlKSFtJXE1OT0pbXF1eX1VmZ2hpamtsbW5vYnN0dXZ3eHl6e3x//aAAwDAQACEQMRAD8A7jpvS8a/Fuvf69loyctrQMi5sivIvqqb7bg1vsrY1VOidPZb9W2ZdlF4y2stLaBdkMDnNdZ6bW1+vvb6kIYOa/Eqbdj4r2/bc91TLLC8OuB6g6ut1dtVNWz1vz/V/l/o02Djv/YV7rsDCb1JpcMWt1VLC5vthzqmnY1+827Pob0JTkZmiQI8Uavh34UTnM5CYyMRHigASY/NwnZPZiCvExLzj5Ln2WRkVh+Zu9MO2vvZWy+x9H6P9YZTd+ls/o/88lk4T22ZjcbGyLW1Npdju9XKBLrHbbmbbcmhmQ6mv9N7LaWf4G2xBZRZ/wA332OwcP8Aa0+xhrpDizcP0hq/m/W9H3+n/wCqk+RjXN+r9NrMDDHVHEC1oqpLgyXfpGVH9H6zq/Tc+v8ArocWT9//AJy3iy/5w/43hwqvovrso24WQ6uzHZbcRdmOLbHbvUq9lrvobWt9PZ6n6RIUXHPdT9jyPs4s2eqbc0afaPs+8O9T3fqx9b/Rf4X1fRS6hRa3o2M/EwcL9pOLftTGV0vLdDu2Vu9n85sa/wB79n/gqXV6bW4eGem4GE7KcActja6XBrtrf0Y3uH6B1m9r7NyF5P3z/jI4s3+cP+MhYzM3N34GRs2Bz3CzNEGfe0M9Wx/6L+Y+j+sf0v8AR46Ln4+TRmZFNGFkWUVx6Vvq5bpOxr9v6O/3+ta77NvZ/RP6RfvrU+tUOrsxP2Vg4VjSf1mGUuAPthjy/Zsp2+p+lb/6sfqdGzqmIzp+FhPwSR9of6dJGrv0vqPPuq2U++rZ9Oz/ALbSvLX84f8AGVeaq90/4y+Tg5X292LjYloqLminIsyMlzC1oY7JdbsvZ6H87+r/AM56r6bP+tMce0Z32d3T8oUPvDK8huTkvHpbjU99jRc3a9zmeoz3en9ms9X6dddOU2Xj7euY7MbBwndLIb61np0kfneqXv8Apsez2ek38/8A89tZWyvr0HCwh0YNAdb6dUat+lv/AJz7R9p20sp2fQ/7cS4sn757/N/Yniy7+4e/zdP8VdmJku6g2mzCurxTa5os+0Zb3Orl1dVkttbTT/Nevd69n8zZV6Pq3fTWJj5NhacjpuRUyLS8jLyCRDGZGMxrfVG5z22ehb/3ZqUMNnq9dvrvwMOrprBA3V0+2QDS71GF3qPt9/8AI/zETp1Ad1fLZnYOEzp43fZ3+nSBo4ej6bxLrPUq99276Fn+jSEsn+cP+N/6CgSy7+6f8b/0FjRjZRLxdgXiyvHte6puRlQbq3N9CuvKNvpWMy2v/Mb+h9JSxsS57cn1cO/1aKZFQvy2B14L2+lVfZaasiqzZ6nq1/zDLP8AD/mN0agvyssdUwcKugH9XOykCZPtrc3d6lXp7P0j/wD1XHo9Nj8fMPU8DBZc3XEa6uloLodur9hduoa/09lqXFk/fP8AjJ4s3+cP+N/6Cybi5BxLHfYbzmMtbX6P2nKazaGNffYLX2bbG723MpdVv/wCEKsg1vsOJkMIrfYysuziXPDPU+yk13O2Pod7PtGz0s7/ALSKXTKLXdKynZuDhDPbu+yMfXSwuO32h7GHZt9b2M9/v/8ABUsWmw9BusuwcP8AagJFDHV0tc5vth76gdnq/wA5sZ/xaV5P84f8ZHFm/wA4f8ZVmNkMuyGHFu21Ou9F7bM57XhgP2ekuZb7LLP5yy/07Mb/ALT1epf/ADJrMJ/2rYMa+vGPpmu83Zlhfva5z631VWtsxHep7PUu9lP+F/nq2IPo2f8AN/1PsWH+1p+h6dO7Zv8A5z0v5v1vR9/pf+qUsqmwdBpspwcP9qOIGQxtdLnNb7peysnZ6v8AN72f8YlxZP3/APnJ4sv+cO/7zXz6Mj0WbMO9zXjEf7rcpm259lBGM/7Rb797/b6jG/qn+E/Sq5RS8YmFmW1XYuSc2pha+28gsLtutGTa/wCk12z3oHVsa84GEcLCxPtbmzm1110PDXhrXD+c/du/ccrFTQ3FraGtYR1HE3sYGhoea8V1wDav0bf0xfu2fnp2Mz4wTMkS9NWnEcnuAymZCXpq77yf/9Dqcvr2N0roZyH4zc3d1DKYaXnZtLsjMtD3b67Pd7P3Fc6H1TpPVenjMtw6cUue5grIa/6Me7d6bPFGxul4HVOmOx8+r1qmZuXY1pLm+4ZOUwO/RuZ+a9ys11dK6Bhiumt1OO55hlbLbjvcN30axfb+Z/UUchP3DImPBW39b+X9Ztk8tk5YQjilLnZZL9wAygcX7kYcfzf9TT1YvTLWCyqil7DMODGxodru37y5zptnRmdVznCqu2z9K91TG1uJ/TMoqYxgrqdus21e2/8Ao77f566vK9Wra6d1XCteMZht9Wx9jm7qL2NgufdrZdTXW32fylyHQwxv1h6q6+k21WV2NaB7fUPq01NZW8ua1rm2uZ+k3fo7P9GmZJC4VRs/sak+XlEE5IHHKEPciJRjD9OGL5ckoT4fXL+bjldbL6vi0Oa99ePRVbdZUxhxBY5gpc2i9+Q9mVU39HeXN/Qs/wCL9T6aNn5NfT82jCvdiG3I2wW4RLWhzvSrdaftg+nZ+4q1vU+j4ddP2vB9YOzMg1Bwa51RqeynJfue53q2Oyf0n0v0386/9ItLrPU+lY3WMGjLxPXyXFpqv2tJr3v9Kst3e9/6X9z6H01JGIIBPVjjCJiCeviWpkZ1WP1RvSn10OyHuY0WNw2+nNn0JnNFn9b2LT6T9jz8YWPxKWPaKw8hjdpL6acourHuc1n6xs96q5+d0an6xY+LdhCzMt9MjK2tlriXNo+l+kd9D6bf5tWOhX4zenB/ptqdUyiu2wAbrXfZ8d9bjs9737bmU1sd+kSIAkPG91GMRIdjd23bMPp1bC9+PUGj/g2/cPaubu61iftGr7NhVX0B2wMaxpe8uG39Wj/Dbfz/AOaez/ut6meofWDq9+TccNjHBoeavRA973fRdS1vu/e/SO+hsf8A4TEtpq68XoHQftA+1ZMOqeILhqLGnmik+79S/wBPf9PqX7/2H350cpGUuGA26ujDl8ODF73MxE55AfY5fYn/AFmT93/1H/t/5ts/q+KzKpFWHjmtjdxtrDbBY1x2udjWbWstoa72Wt/wl/6P9Xt+x/b97Cb0rNpbdTRSQROjGnnv9H6P+v8AOLP610ijOrsvwyLHtdNtdRaXB4Gz1qPzG5Xp/o7KrP0WZT+r3/4K6rn+n9RyemZMkiNXOA+i9v0X31er6e3+b/WKbvT9P0/1r0fs/wBp6SjIxmeIAxKMXL4eZwgYYiHM4h6sf6PMQ/zkOL9L/ofzWT0e1leq6tVTi4rHY2Nji626mlrrKg5rfVsZS57mM9Nz9rX/AOkYqefj9SwMK7Me3p1raG7zWMV7S4Dlu/7S/Z/mKz1TJbkYeKdprs+14bnVuBa4B11ex217WP2v/ls/4Oz07mWVrJzMPrmPjdZf1DJ9XGtpsNLC/dPullldRH6BlVbvTexqdIA8RHSNhzZges7cMdP0dfU9FdR0unaLKKgXztArDiY1PtY1yyc4W/aXWdPqxXY7axNVtZb7v0m97n+g/wBP0/0L/wDhP0lf6P8An1W+tHQes9S6tTZgZoxmGgsDC+xvuaS55/RNc33NsrR/rJ0fqnUMXGrwc4Y9mGx32n9I9pdLW7Z9Kd382/8AnEJGR4qgfTtX6Te+54J+1fNY4e5fueiX9G4Y8X6z9/jcTrFnX8Wyiuv0w5tYsyhR6LWua71rGCk2sp33vrxcr+ar/m6q/wCc/nrt6zqnR2C/FZTVZn4+O673VAVue2v1nM3tb9LXc9c91HofWqsfptf2kkvqbTbaLQ31XPflWU0Y3r+92S3GyLa2b/31r5GX0Y5GfjMxizqjcOxlmQQNrnMqb6tTfc73tZt/Sen79n84m4x89iW36X7GHNDHCEIQljye2M0fcxxMcs6yy9ufMcXzcUP5j/Ut52X03Cvvo6nVjj0Qx4tqoIGx4d/ON/T7ffVZ+emys3AyasavBEV15tBBawsY4er6bn0uhrbG+qxzNzE2XldOx+t3DLxzfdGOcchrD73+q3HqabHM97rKbXM3foav9LWq9+R0VtuFj9OqFVuTfjXlrGBrfSba5msexu21rv0TPz37/wDS2KXEamBcdyP6zDhlWQC41ZH9fwf/0fReif0Oz/w3mf8At1kKl9cMY5PTamCl+RF7XbK2lxHstG6G4uf4/wCh/wCuLOz/AKw5HRuhfa8Sttjn9Ryq/wBK120tffmW7mbXV/6NaP1b+sGR1XpYzMmmLHWPZFDXFsNiJ3Of7tVFKcZE4rqVW3MGLLhxw5+gcUcnB83DLjcH6uYPo9dxnHEupc0WO3PYWgA12M3GemYXjs/pDF0mJ17pfVcy7pQrc97Gv9ZlrWlm1pbXtd7n/wA5vVzCx6h+supDchxtaLHNAs9N1r7Ws3fT2fn+muX+rFGRX9ac9z62taWv9wADx7q27bfzm7/p+76aZEHHwxGonLXRZzXNDmpHJkrGY4xHHDjv3Je7H0/rPVP9Xly+jH/tHS6jh52LkNZ0zAsyMcn1h6duNWyq0+yKK8mqyxn0PU9n76Ni4ufl0U5NpLLQCQ19lb3Vu+g9rbfsnl/g1p5Gfg4rmsysmqhzxLW2PawkDu3eWqHSnsswK31uD2OLy1zSHNIL3atc36SkERxVxH+7+6wTiOCAGIYxr+tj7t5P8ecsP/heNxMmzqjMyxrMTKyX48NZk1Pxz9NjbHNY++hlrPpbVZqyMTC6lRhV4z9wqYXn2EtitzPXdtd6t91VNLcfIfss9NlmN6X9I/TW29R6di5mYzJyqaH72u22WNYY9Kv3bXuHgqjhSPrHW4jG3WWbmP3TkOnHc3azafZUxtNjvSd+is3+t/OptUdJX6q1/RW5hUMVYhjPFXufrP1vj+slKH/hbldazsKzrDrDW11Ya2p99khpALXfZ7djdzen3+p7snY+79Y/Set0zKxsfP6nGyqszHLqRtIlj6naOY6J9OzYXfmua7dX+jsq2XUPspsrsWZ13oTcln2jHAbawHTsR7va7+R77P8Atyz/AEuTTk4XSuoXdOu9N7vSFY2NNhO1rRuf9mySN7vsf85ZjZH6SzA/S31etg/tDHpXEYTPF+l1DelhhzGEZMF+9hiIZcJPHKUI/p4v+9/7v+c2qOm9QxehZWFkZjcMtpDK82s/QDWBr7fo0+lW3b+/6rP9Oue9VuJk0DIe7OsxiHXXWgssBaPbkObY51TM3Y2t1dN/+Bx6Lur/AKb/AJO1OudYvfZ6W00PrILaSWuNThtcLb/T9eqzL99f2Wlnr1YnqUZNn2jPv6dhp/q/0B1jm5WS0sY0yxh+lundvdq79Pv92/e/0n/4S7J/WKmnWQjD9HqVnKctjwQHNZ+IRowwYrMMmbiHzf1Y+r+X+Uu9R9F2LgDGa70aMrEaLLTYXwba2+j+nPrve3/tR9o/wn/dn+Yr9XwsyrH6tlWsobXbRY0vqLt7gHbsVtlb9zWvqqNvq2Mf+l9b+b/RrT621rMXFa0BrW5mIABoABdUsbM+r1nTcTrOa7INzcmmyGQQTud6u+524+pZX9BidOPzX0jf/Sc3JEHj8I2P+c9HcD9vxj2Dbf8A0WgswnYzM2w2ep9o3PDQxrI0d9L0/wCdt2/o/Vd/g66lhfW36v8AU+o9QpysXKdRUKfSLWCx3uDnvktxw7+ca/b/AGEDrGHn9UxMTEputxH4LHMNh3k37Q2h72sodZY1zbavczI/7kU/4X1KkpTIMvQdPl1+Z0I8typ9ri5uMTl4uP0T/o3o/T/f4noLOo4eJXh1ZGwuLWOcXOrb6Tdj/wBZsFz2ObX+jdXvYsrO6t0+3P6phV4gZljFta7MAbvcG1iza7T1PR2OZsfu9/8A22ub6v0847MGjJ6lW23CoD2Wy14c4vz792622vc3H+zU43t9X33Ldu62+zIzOl/ZqmBuLbX64J9Qiun1Gtd7f3kozMhIEVQ/YwZscIR9GX3RL3RYhLHGsU5YoSjOf877sP1vp/mv5tudR6lRhdVzW249N847HE2vDTtLby6uHV2foP1b9O/8z1af0SfJyaL3tZXj11GjqVIL2QZd6j63GyGM9PI9jnvr9/6C+l/qfplYv6pV0/q9rb9rarzWH2OdBYBXY/1dkfzPs2WWb/Z6lSHn9Q+1XjG2AfZM/Gb6jHb2u3P+j9Fmy5m39LV+Yn4v5z5v0jpX7WHCf1o9X6R9Nf3v0n//0u3q+y/s0V5WI3Na/PzdtdgYWtLb8231XfaIrbtrY9Gw8/HqxDZgYVbMJm5zn0WY4qEfzji6uz0/b+esZ2N0qjFbNdTLXZPUQ8ONjJoD8zFta22mrJ2uayyvY3Z/xakGYXT8PJ6Hc1kXTZcbLrhYdGtFrHM6c2rb+ib6Wxvp2WM2fpEycgJyMiIkGtPV+PCtyZ5XOEshjES+QHih/wBH5ncHWScb7WKAcWJ+0etT6cA7Z9X1dv0lQxsnIxnHqF1VP2H9O6q9tlLQBkWsu2mz1fR2+z32sd+sXWfzX6L1rqdjMPGwH9AtDGhx9UuN1vqElzbG3tcOn+i5vqbGM2M9L/Bfzia9uB+z6uhPdSBS5ljCzJe61rrC62t9kYDq2Ou9X6Flf+F/4pNModZnT+X7rGZQvWZ0/l+66eff0+6tmX1Lp1D6iAK8jIfjObDvc3Zba8/TUXPxMGlm7Gfh0OMVD7Y2quXS/ZSxuSyv+xWs3L/Z2Rg4/SrX00V4hrFT/tL2umyvfX77sD0n+rTZvs/0e/8AwaXUf2d1DDwqLjTVVTW/7MGZFgsdWzbjW1+nbgPe73M2/Q9f9H+i/wAIlxY7vi/Af96ulmEoiMssjGO0TrGP+Dwt/Ip6VVaHZ3S6jdkOhj8uyiyx7gGsDGWZVtlj/wAz2K7Z1T0LKaLcQVWu0x6nW0NcSBs/QsNv8rb7FidRPT+qvpNxoBw2fRqybNa3M+2bbpwXu9P0Mffvbsf+Z/OJ8yzB6p1CrMf6JyMSA6ll9oP6P1MtteRScA3Vvq9G7cz9HZv/AENnvSEoDaW/h/6Co5wRGJyyMY6Rido/3fS7j+rvZezGfjbciwTXQ66kPcNfcyv1dzvoqhe7FPVKrH4Qdl1gv+zetT6kaPbc2j1N1ja3s9TZ/wBfr/T01KrYMXO6sOpsbVdk4urqqL7bGk0bfc5lWA+xz6vtVfsqd+k/63ah/aenWdTd15r6H2VAueGZFjqgWtrxvU9mA5+/Zk017N//AJ7tSMoHeX4f+gqGYRNxyyiaIsaaH5v0W2X4ObnVsow2uuxWy5ld1O7b+Z+jbZ7tnrP/AE3+B9d9dX9IuWjT1Zz7HY1GNvtp0spZdSXM/r1tt9ixsb7I3rDup0trdk2v9PYbrfTbZb+i3f0D2+s6t7P0lnpep6nppumWYVPUbuo4hpfflV23Gt+RYA2vcy7JsrrOAy3a57q3/pP+tJCUbvj1Ph/6Co5hKuLLKVDhjfSPaPpdW7Lr6oyzFOIb/Re02tpyKw+uxjt9e59F7LabG2V/vKmyjAza3troyMupp22tHUX2sBGvp2s+2uZ/Yeq/Q24ePl5T+ntqtttrNljLL7QK6txc5jJwGfnv/wALvuUekswcLFyWYoqupyaHWXizIs3Nor31GWMwGWVMbvs9P1P01v8AL2JEwOplf0H/AHqwnGdTK/8ABH/eu3T1l19Lr6McXUMnfay6lzBA3O3PFu32rLpxcAVHMxaXjHlllt7b8d9bjTYMmt77rXWbPRe3Z+jfX+j/AOtenWwxgYfTcrCY1tmPlM3X2Ptu3bHEYTdpr6cxnts/R7dvqb/5xPS3Bq6LlYI9KzEdZF9xvsNnqOLdjm+n0/Z7fSZt2V+j+j/4xImB3l/L/FUZY5bzuvD/ANBQ53Q8LMqrz3BzcaousbkOsodWXPsdY+x9jb6qvS9R2z0di3beoV/s2MnHnBsrFZvffS1jmOGz+dbcP5z+QsgtwR0N2ATV9kZeGuuF9hs9Zz/VY4AYGx29/wDwXoImRiUO6JXhPbW3ExXMey1mRY63c8F7H7PsD/Uda25zv5pAe2Lo776f+grvciYxh7kjDGCIROsYRmeOfCOH08UnQZn4vTWeq+k0tyocLcjKrd6kD27LcjIs3Naz91LNzW5lGM4MNZrz8dhBLXAya7mPrfU57HMfXcxUs/pX2mrp/S7WNpFTS3E9O9/vAZ7muus6fZVv9Kv1NqmAGUtpJHqVdSxWOYC4loY2ihm51tONv9RtPq72Vel/o1JjI4ogHrtVL8RAnEAnfauH+t+6/wD/0+msFQr/AFl2M79L1D0i9t4fHrXfbw37M530X7/Qd/Ov/wAH6dylkeh9qt+0nG+0b3+pvGXO/wBKr1Nmu3f9n+y7PS/4D0v0nprwJJKe5/mdx8/z/wCH/XVk+aX8x8w/nPn/AOqf6x99v+z/AG1v2g4n2za3ZvGVv27Welsk/Q/m9v8A3b/7tol3pepiescH1tlX2aRkept/7Tb9fU+l9D1/8L/wq+fkkNNf5jfx/FGmv+5t/wCt/wA7+s+//oNg9Q4Wz7MNv2gZMfZ9tO70/tJ/0f2X7T6f6X+Z+0pN+z/ZmbThen/g9oyPUndk/wA3tP2jfv8Atn0PevAEktP9Rt4q0/8AKfb+s/QH6vFO09P27LNmwXbdnpP9X1vTOz0/s/qfz/8A58TU+j+h9E4nqTfs2jJ9XdFn2z7Tr6/q/wA9v+1/pPW/4deAJJaf6j8f6qtP/Kfcfvf1X3wfZfsv6M4nofZHb/TGV/Rv0fqev6R37/5v1PW/Wf8AwRGb9L9Ecb1PRdPpDK37dzd+/wBE+p9q9bbs3/rvq/za+fUkhX+o/FQr/wAp9h+8++Yv2Pez7KcD+fZt2DI2er7vs86+lt9T1PQ3fovtO/0/1hFwfQ+ys+yHp/obbdki6du1n2n+dPqfzPpf9a9NfPySQrT+Y+lqjWn+5vpxP0F0/bLPsRw/5l+yRkbdm79Y/nTs9bds9f8A7U7PS9T9F6aBi/YNjvs5wNv2ez1NMj+Zj9P6m8/znp/vfrPof8CvBEktNP5j8f8Amo0qP+5v+d/zX38fZ/2ZdtOD9i3V+vAv3bpb6O+D9o3b/wD0Z/wqZ/2X7FkycD7L6rftGwXx6k/o9npnd6f/ABP6H+d/4VeApJaf6jbx/rf81Wn/AJTfL/W/rf8AMfoQ7vs2XtOL6XqfrWwZO/dtbx6Z9b0PR/0X6v8AZ/8AgPUUXen+zL4OB9h9T9L6Yv8Ap+36HpH1PobNnpfo/s/0P0C+fUkdP9Tse/8ALhXaf+U+x/e/lwv0Nn+p6mN9qOJu2j7JsGRtjTb6P2c7N+3+36Hq/wCA9ZQIebxudQ3/AChScr022m03SPTb+sub+i+htf8AzPo/zC+fEk6Pz/5P/B/nPlXx+f8AyP8Agfzvy/8ASf/Z/+0jklBob3Rvc2hvcCAzLjAAOEJJTQQlAAAAAAAQAAAAAAAAAAAAAAAAAAAAADhCSU0D7QAAAAAAEABIAAAAAQACAEgAAAABAAI4QklNBCYAAAAAAA4AAAAAAAAAAAAAP4AAADhCSU0EDQAAAAAABAAAAHg4QklNBBkAAAAAAAQAAAAeOEJJTQPzAAAAAAAJAAAAAAAAAAABADhCSU0ECgAAAAAAAQAAOEJJTScQAAAAAAAKAAEAAAAAAAAAAjhCSU0D9QAAAAAASAAvZmYAAQBsZmYABgAAAAAAAQAvZmYAAQChmZoABgAAAAAAAQAyAAAAAQBaAAAABgAAAAAAAQA1AAAAAQAtAAAABgAAAAAAAThCSU0D+AAAAAAAcAAA/////////////////////////////wPoAAAAAP////////////////////////////8D6AAAAAD/////////////////////////////A+gAAAAA/////////////////////////////wPoAAA4QklNBAgAAAAAABAAAAABAAACQAAAAkAAAAAAOEJJTQQeAAAAAAAEAAAAADhCSU0EGgAAAAADPwAAAAYAAAAAAAAAAAAAATMAAALHAAAABWcqaAeYmAAtADEAAAABAAAAAAAAAAAAAAAAAAAAAAAAAAEAAAAAAAAAAAAAAscAAAEzAAAAAAAAAAAAAAAAAAAAAAEAAAAAAAAAAAAAAAAAAAAAAAAAEAAAAAEAAAAAAABudWxsAAAAAgAAAAZib3VuZHNPYmpjAAAAAQAAAAAAAFJjdDEAAAAEAAAAAFRvcCBsb25nAAAAAAAAAABMZWZ0bG9uZwAAAAAAAAAAQnRvbWxvbmcAAAEzAAAAAFJnaHRsb25nAAACxwAAAAZzbGljZXNWbExzAAAAAU9iamMAAAABAAAAAAAFc2xpY2UAAAASAAAAB3NsaWNlSURsb25nAAAAAAAAAAdncm91cElEbG9uZwAAAAAAAAAGb3JpZ2luZW51bQAAAAxFU2xpY2VPcmlnaW4AAAANYXV0b0dlbmVyYXRlZAAAAABUeXBlZW51bQAAAApFU2xpY2VUeXBlAAAAAEltZyAAAAAGYm91bmRzT2JqYwAAAAEAAAAAAABSY3QxAAAABAAAAABUb3AgbG9uZwAAAAAAAAAATGVmdGxvbmcAAAAAAAAAAEJ0b21sb25nAAABMwAAAABSZ2h0bG9uZwAAAscAAAADdXJsVEVYVAAAAAEAAAAAAABudWxsVEVYVAAAAAEAAAAAAABNc2dlVEVYVAAAAAEAAAAAAAZhbHRUYWdURVhUAAAAAQAAAAAADmNlbGxUZXh0SXNIVE1MYm9vbAEAAAAIY2VsbFRleHRURVhUAAAAAQAAAAAACWhvcnpBbGlnbmVudW0AAAAPRVNsaWNlSG9yekFsaWduAAAAB2RlZmF1bHQAAAAJdmVydEFsaWduZW51bQAAAA9FU2xpY2VWZXJ0QWxpZ24AAAAHZGVmYXVsdAAAAAtiZ0NvbG9yVHlwZWVudW0AAAARRVNsaWNlQkdDb2xvclR5cGUAAAAATm9uZQAAAAl0b3BPdXRzZXRsb25nAAAAAAAAAApsZWZ0T3V0c2V0bG9uZwAAAAAAAAAMYm90dG9tT3V0c2V0bG9uZwAAAAAAAAALcmlnaHRPdXRzZXRsb25nAAAAAAA4QklNBCgAAAAAAAwAAAABP/AAAAAAAAA4QklNBBEAAAAAAAEBADhCSU0EFAAAAAAABAAAAAI4QklNBAwAAAAAHdgAAAABAAAAoAAAAEUAAAHgAACBYAAAHbwAGAAB/9j/4AAQSkZJRgABAgEASABIAAD/7QAMQWRvYmVfQ00AAv/uAA5BZG9iZQBkgAAAAAH/2wCEAAwICAgJCAwJCQwRCwoLERUPDAwPFRgTExUTExgRDAwMDAwMEQwMDAwMDAwMDAwMDAwMDAwMDAwMDAwMDAwMDAwBDQsLDQ4NEA4OEBQODg4UFA4ODg4UEQwMDAwMEREMDAwMDAwRDAwMDAwMDAwMDAwMDAwMDAwMDAwMDAwMDAwMDP/AABEIAEUAoAMBIgACEQEDEQH/3QAEAAr/xAE/AAABBQEBAQEBAQAAAAAAAAADAAECBAUGBwgJCgsBAAEFAQEBAQEBAAAAAAAAAAEAAgMEBQYHCAkKCxAAAQQBAwIEAgUHBggFAwwzAQACEQMEIRIxBUFRYRMicYEyBhSRobFCIyQVUsFiMzRygtFDByWSU/Dh8WNzNRaisoMmRJNUZEXCo3Q2F9JV4mXys4TD03Xj80YnlKSFtJXE1OT0pbXF1eX1VmZ2hpamtsbW5vY3R1dnd4eXp7fH1+f3EQACAgECBAQDBAUGBwcGBTUBAAIRAyExEgRBUWFxIhMFMoGRFKGxQiPBUtHwMyRi4XKCkkNTFWNzNPElBhaisoMHJjXC0kSTVKMXZEVVNnRl4vKzhMPTdePzRpSkhbSVxNTk9KW1xdXl9VZmdoaWprbG1ub2JzdHV2d3h5ent8f/2gAMAwEAAhEDEQA/AO46b0vGvxbr3+vZaMnLa0DIubIryL6qm+24Nb7K2NVTonT2W/VtmXZReMtrLS2gXZDA5zXWem1tfr72+pCGDmvxKm3Y+K9v23PdUyywvDrgeoOrrdXbVTVs9b8/1f5f6NNg47/2Fe67Awm9SaXDFrdVSwub7Yc6pp2NfvNuz6G9CU5GZokCPFGr4d+FE5zOQmMjER4oAEmPzcJ2T2YgrxMS84+S59lkZFYfmbvTDtr72VsvsfR+j/WGU3fpbP6P/PJZOE9tmY3Gxsi1tTaXY7vVygS6x225m23JoZkOpr/Tey2ln+BtsQWUWf8AN99jsHD/AGtPsYa6Q4s3D9Iav5v1vR9/p/8AqpPkY1zfq/TazAwx1RxAtaKqS4Ml36RlR/R+s6v03Pr/AK6HFk/f/wCct4sv+cP+N4cKr6L67KNuFkOrsx2W3EXZji2x271KvZa76G1rfT2ep+kSFFxz3U/Y8j7OLNnqm3NGn2j7PvDvU936sfW/0X+F9X0UuoUWt6NjPxMHC/aTi37UxldLy3Q7tlbvZ/ObGv8Ae/Z/4Kl1em1uHhnpuBhOynAHLY2ulwa7a39GN7h+gdZva+zcheT98/4yOLN/nD/jIWMzNzd+BkbNgc9wszRBn3tDPVsf+i/mPo/rH9L/AEeOi5+Pk0ZmRTRhZFlFcelb6uW6Tsa/b+jv9/rWu+zb2f0T+kX761PrVDq7MT9lYOFY0n9ZhlLgD7YY8v2bKdvqfpW/+rH6nRs6piM6fhYT8EkfaH+nSRq79L6jz7qtlPvq2fTs/wC20ry1/OH/ABlXmqvdP+Mvk4OV9vdi42JaKi5opyLMjJcwtaGOyXW7L2eh/O/q/wDOeq+mz/rTHHtGd9nd0/KFD7wyvIbk5Lx6W41PfY0XN2vc5nqM93p/ZrPV+nXXTlNl4+3rmOzGwcJ3SyG+tZ6dJH53ql7/AKbHs9npN/P/APPbWVsr69BwsIdGDQHW+nVGrfpb/wCc+0fadtLKdn0P+3EuLJ++e/zf2J4su/uHv83T/FXZiZLuoNpswrq8U2uaLPtGW9zq5dXVZLbW00/zXr3evZ/M2Vej6t301iY+TYWnI6bkVMi0vIy8gkQxmRjMa31Ruc9tnoW/92alDDZ6vXb678DDq6awQN1dPtkA0u9Rhd6j7ff/ACP8xE6dQHdXy2Z2DhM6eN32d/p0gaOHo+m8S6z1Kvfdu+hZ/o0hLJ/nD/jf+goEsu/un/G/9BY0Y2US8XYF4srx7XuqbkZUG6tzfQrryjb6VjMtr/zG/ofSUsbEue3J9XDv9WimRUL8tgdeC9vpVX2WmrIqs2ep6tf8wyz/AA/5jdGoL8rLHVMHCroB/VzspAmT7a3N3epV6ez9I/8A9Vx6PTY/HzD1PAwWXN1xGurpaC6Hbq/YXbqGv9PZalxZP3z/AIyeLN/nD/jf+gsm4uQcSx32G85jLW1+j9pyms2hjX32C19m2xu9tzKXVb/8AhCrINb7DiZDCK32MrLs4lzwz1PspNdztj6Hez7Rs9LO/wC0il0yi13Ssp2bg4Qz27vsjH10sLjt9oexh2bfW9jPf7//AAVLFpsPQbrLsHD/AGoCRQx1dLXOb7Ye+oHZ6v8AObGf8WleT/OH/GRxZv8AOH/GVZjZDLshhxbttTrvRe2zOe14YD9npLmW+yyz+csv9OzG/wC09XqX/wAyazCf9q2DGvrxj6ZrvN2ZYX72uc+t9VVrbMR3qez1LvZT/hf56tiD6Nn/ADf9T7Fh/tafoenTu2b/AOc9L+b9b0ff6X/qlLKpsHQabKcHD/ajiBkMbXS5zW+6XsrJ2er/ADe9n/GJcWT9/wD5yeLL/nDv+818+jI9FmzDvc14xH+63KZtufZQRjP+0W+/e/2+oxv6p/hP0quUUvGJhZltV2LknNqYWvtvILC7brRk2v8ApNds96B1bGvOBhHCwsT7W5s5tdddDw14a1w/nP3bv3HKxU0Nxa2hrWEdRxN7GBoaHmvFdcA2r9G39MX7tn56djM+MEzJEvTVpxHJ7gMpmQl6au+8n//Q6nL69jdK6Gch+M3N3dQymGl52bS7IzLQ92+uz3ez9xXOh9U6T1Xp4zLcOnFLnuYKyGv+jHu3emzxRsbpeB1TpjsfPq9apmbl2NaS5vuGTlMDv0bmfmvcrNdXSugYYrprdTjueYZWy2473Dd9GsX2/mf1FHIT9wyJjwVt/W/l/WbZPLZOWEI4pS52WS/cAMoHF+5GHH83/U09WL0y1gsqopewzDgxsaHa7t+8uc6bZ0ZnVc5wqrts/SvdUxtbif0zKKmMYK6nbrNtXtv/AKO+3+euryvVq2undVwrXjGYbfVsfY5u6i9jYLn3a2XU11t9n8pch0MMb9YequvpNtVldjWge31D6tNTWVvLmta5trmfpN36Oz/RpmSQuFUbP7GpPl5RBOSBxyhD3IiUYw/Thi+XJKE+H1y/m45XWy+r4tDmvfXj0VW3WVMYcQWOYKXNovfkPZlVN/R3lzf0LP8Ai/U+mjZ+TX0/Nowr3YhtyNsFuES1oc70q3Wn7YPp2fuKtb1Po+HXT9rwfWDszINQcGudUanspyX7nud6tjsn9J9L9N/Ov/SLS6z1PpWN1jBoy8T18lxaar9rSa97/SrLd3vf+l/c+h9NSRiCAT1Y4wiYgnr4lqZGdVj9Ub0p9dDsh7mNFjcNvpzZ9CZzRZ/W9i0+k/Y8/GFj8Slj2isPIY3aS+mnKLqx7nNZ+sbPequfndGp+sWPi3YQszLfTIytrZa4lzaPpfpHfQ+m3+bVjoV+M3pwf6banVMortsAG6132fHfW47Pe9+25lNbHfpEiAJDxvdRjESHY3dt2zD6dWwvfj1Bo/4Nv3D2rm7utYn7Rq+zYVV9AdsDGsaXvLht/Vo/w238/wDmns/7repnqH1g6vfk3HDYxwaHmr0QPe930XUtb7v3v0jvobH/AOExLaauvF6B0H7QPtWTDqniC4aixp5opPu/Uv8AT3/T6l+/9h9+dHKRlLhgNurow5fDgxe9zMROeQH2OX2J/wBZk/d/9R/7f+bbP6visyqRVh45rY3cbaw2wWNcdrnY1m1rLaGu9lrf8Jf+j/V7fsf2/ewm9KzaW3U0UkEToxp57/R+j/r/ADiz+tdIozq7L8Mix7XTbXUWlweBs9aj8xuV6f6Oyqz9FmU/q9/+Cuq5/p/UcnpmTJIjVzgPovb9F99Xq+nt/m/1im70/T9P9a9H7P8AaekoyMZniAMSjFy+HmcIGGIhzOIerH+jzEP85Di/S/6H81k9HtZXqurVU4uKx2NjY4utuppa6yoOa31bGUue5jPTc/a1/wDpGKnn4/UsDCuzHt6da2hu81jFe0uA5bv+0v2f5is9UyW5GHinaa7PteG51bgWuAddXsdte1j9r/5bP+Ds9O5llayczD65j43WX9QyfVxrabDSwv3T7pZZXUR+gZVW703sanSAPER0jYc2YHrO3DHT9HX1PRXUdLp2iyioF87QKw4mNT7WNcsnOFv2l1nT6sV2O2sTVbWW+79Jve5/oP8AT9P9C/8A4T9JX+j/AJ9VvrR0HrPUurU2YGaMZhoLAwvsb7mkuef0TXN9zbK0f6ydH6p1DFxq8HOGPZhsd9p/SPaXS1u2fSnd/Nv/AJxCRkeKoH07V+k3vueCftXzWOHuX7nol/RuGPF+s/f43E6xZ1/Fsorr9MObWLMoUei1rmu9axgpNrKd9768XK/mq/5uqv8AnP567es6p0dgvxWU1WZ+Pjuu91QFbntr9ZzN7W/S13PXPdR6H1qrH6bX9pJL6m022i0N9Vz35VlNGN6/vdktxsi2tm/99a+Rl9GORn4zMYs6o3DsZZkEDa5zKm+rU33O97Wbf0np+/Z/OJuMfPYlt+l+xhzQxwhCEJY8ntjNH3McTHLOssvbnzHF83FD+Y/1Ledl9Nwr76Op1Y49EMeLaqCBseHfzjf0+331WfnpsrNwMmrGrwRFdebQQWsLGOHq+m59Loa2xvqsczcxNl5XTsfrdwy8c33RjnHIaw+9/qtx6mmxzPe6ym1zN36Gr/S1qvfkdFbbhY/TqhVbk3415axga30m2uZrHsbtta79Ez89+/8A0tilxGpgXHcj+sw4ZVkAuNWR/X8H/9H0Xon9Ds/8N5n/ALdZCpfXDGOT02pgpfkRe12ytpcR7LRuhuLn+P8Aof8Arizs/wCsOR0boX2vErbY5/Ucqv8AStdtLX35lu5m11f+jWj9W/rBkdV6WMzJpix1j2RQ1xbDYidzn+7VRSnGROK6lVtzBiy4ccOfoHFHJwfNwy43B+rmD6PXcZxxLqXNFjtz2FoANdjNxnpmF47P6QxdJide6X1XMu6UK3Pexr/WZa1pZtaW17Xe5/8AOb1cwseofrLqQ3IcbWixzQLPTda+1rN309n5/prl/qxRkV/WnPc+trWlr/cAA8e6tu2385u/6fu+mmRBx8MRqJy10Wc1zQ5qRyZKxmOMRxw479yXux9P6z1T/V5cvox/7R0uo4edi5DWdMwLMjHJ9YenbjVsqtPsiivJqssZ9D1PZ++jYuLn5dFOTaSy0AkNfZW91bvoPa237J5f4NaeRn4OK5rMrJqoc8S1tj2sJA7t3lqh0p7LMCt9bg9ji8tc0hzSC92rXN+kpBEcVcR/u/usE4jggBiGMa/rY+7eT/HnLD/4XjcTJs6ozMsazEysl+PDWZNT8c/TY2xzWPvoZaz6W1WasjEwupUYVeM/cKmF59hLYrcz13bXerfdVTS3HyH7LPTZZjel/SP01tvUenYuZmMycqmh+9rttljWGPSr9217h4Ko4Uj6x1uIxt1lm5j905Dpx3N2s2n2VMbTY70nforN/rfzqbVHSV+qtf0VuYVDFWIYzxV7n6z9b4/rJSh/4W5XWs7Cs6w6w1tdWGtqffZIaQC132e3Y3c3p9/qe7J2Pu/WP0nrdMysbHz+pxsqrMxy6kbSJY+p2jmOifTs2F35rmu3V/o7Ktl1D7KbK7Fmdd6E3JZ9oxwG2sB07Ee72u/ke+z/ALcs/wBLk05OF0rqF3TrvTe70hWNjTYTta0bn/Zskje77H/OWY2R+kswP0t9XrYP7Qx6VxGEzxfpdQ3pYYcxhGTBfvYYiGXCTxylCP6eL/vf+7/nNqjpvUMXoWVhZGY3DLaQyvNrP0A1ga+36NPpVt2/v+qz/TrnvVbiZNAyHuzrMYh111oLLAWj25Dm2OdUzN2NrdXTf/gcei7q/wCm/wCTtTrnWL32eltND6yC2klrjU4bXC2/0/Xqsy/fX9lpZ69WJ6lGTZ9oz7+nYaf6v9AdY5uVktLGNMsYfpbp3b3au/T7/dv3v9J/+Euyf1ipp1kIw/R6lZynLY8EBzWfiEaMMGKzDJm4h839WPq/l/lLvUfRdi4Axmu9GjKxGiy02F8G2tvo/pz673t/7UfaP8J/3Z/mK/V8LMqx+rZVrKG120WNL6i7e4B27FbZW/c1r6qjb6tjH/pfW/m/0a0+ttazFxWtAa1uZiAAaAAXVLGzPq9Z03E6zmuyDc3JpshkEE7nervuduPqWV/QYnTj819I3/0nNyRB4/CNj/nPR3A/b8Y9g23/ANFoLMJ2MzNsNnqfaNzw0MayNHfS9P8Anbdv6P1Xf4OupYX1t+r/AFPqPUKcrFynUVCn0i1gsd7g575LccO/nGv2/wBhA6xh5/VMTExKbrcR+CxzDYd5N+0Noe9rKHWWNc22r3MyP+5FP+F9SpKUyDL0HT5dfmdCPLcqfa4ubjE5eLj9E/6N6P0/3+J6CzqOHiV4dWRsLi1jnFzq2+k3Y/8AWbBc9jm1/o3V72LKzurdPtz+qYVeIGZYxbWuzAG73BtYs2u09T0djmbH7vf/ANtrm+r9POOzBoyepVttwqA9lsteHOL8+/duttr3Nx/s1ON7fV99y3butvsyMzpf2apgbi21+uCfUIrp9RrXe395KMzISBFUP2MGbHCEfRl90S90WISxxrFOWKEozn/O+7D9b6f5r+bbnUepUYXVc1tuPTfOOxxNrw07S28urh1dn6D9W/Tv/M9Wn9Enycmi97WV49dRo6lSC9kGXeo+txshjPTyPY576/f+gvpf6n6ZWL+qVdP6va2/a2q81h9jnQWAV2P9XZH8z7Nllm/2epUh5/UPtV4xtgH2TPxm+ox29rtz/o/RZsuZt/S1fmJ+L+c+b9I6V+1hwn9aPV+kfTX979J//9Lt6vsv7NFeViNzWvz83bXYGFrS2/Nt9V32iK27a2PRsPPx6sQ2YGFWzCZuc59FmOKhH844urs9P2/nrGdjdKoxWzXUy12T1EPDjYyaA/MxbWttpqydrmssr2N2f8WpBmF0/Dyeh3NZF02XGy64WHRrRaxzOnNq2/om+lsb6dljNn6RMnICcjIiJBrT1fjwrcmeVzhLIYxEvkB4of8AR+Z3B1knG+1igHFiftHrU+nAO2fV9Xb9JUMbJyMZx6hdVT9h/TuqvbZS0AZFrLtps9X0dvs99rHfrF1n81+i9a6nYzDxsB/QLQxocfVLjdb6hJc2xt7XDp/oub6mxjNjPS/wX84mvbgfs+roT3UgUuZYwsyXuta6wutrfZGA6tjrvV+hZX/hf+KTTKHWZ0/l+6xmUL1mdP5fuunn39PurZl9S6dQ+ogCvIyH4zmw73N2W2vP01Fz8TBpZuxn4dDjFQ+2Nqrl0v2Usbksr/sVrNy/2dkYOP0q19NFeIaxU/7S9rpsr31++7A9J/q02b7P9Hv/AMGl1H9ndQw8Ki401VU1v+zBmRYLHVs241tfp24D3u9zNv0PX/R/ov8ACJcWO74vwH/erpZhKIjLLIxjtE6xj/g8LfyKelVWh2d0uo3ZDoY/Lsosse4BrAxlmVbZY/8AM9iu2dU9Cymi3EFVrtMep1tDXEgbP0LDb/K2+xYnUT0/qr6TcaAcNn0asmzWtzPtm26cF7vT9DH3727H/mfzifMsweqdQqzH+icjEgOpZfaD+j9TLbXkUnAN1b6vRu3M/R2b/wBDZ70hKA2lv4f+gqOcERicsjGOkYnaP930u4/q72Xsxn423IsE10OupD3DX3Mr9Xc76KoXuxT1Sqx+EHZdYL/s3rU+pGj23No9TdY2t7PU2f8AX6/09NSq2DFzurDqbG1XZOLq6qi+2xpNG33OZVgPsc+r7VX7KnfpP+t2of2np1nU3dea+h9lQLnhmRY6oFra8b1PZgOfv2ZNNezf/wCe7UjKB3l+H/oKhmETccsomiLGmh+b9Ftl+Dm51bKMNrrsVsuZXdTu2/mfo22e7Z6z/wBN/gfXfXV/SLlo09Wc+x2NRjb7adLKWXUlzP69bbfYsbG+yN6w7qdLa3ZNr/T2G63022W/ot39A9vrOrez9JZ6Xqep6abplmFT1G7qOIaX35VdtxrfkWANr3MuybK6zgMt2ue6t/6T/rSQlG749T4f+gqOYSriyylQ4Y30j2j6XVuy6+qMsxTiG/0XtNracisPrsY7fXufRey2mxtlf7ypsowM2t7a6MjLqadtrR1F9rARr6drPtrmf2Hqv0NuHj5eU/p7arbbazZYyy+0CurcXOYycBn57/8AC77lHpLMHCxclmKKrqcmh1l4syLNzaK99RljMBllTG77PT9T9Nb/AC9iRMDqZX9B/wB6sJxnUyv/AAR/3rt09ZdfS6+jHF1DJ32supcwQNztzxbt9qy6cXAFRzMWl4x5ZZbe2/HfW402DJre+611mz0Xt2fo31/o/wDrXp1sMYGH03KwmNbZj5TN19j7bt2xxGE3aa+nMZ7bP0e3b6m/+cT0twaui5WCPSsxHWRfcb7DZ6ji3Y5vp9P2e30mbdlfo/o/+MSJgd5fy/xVGWOW87rw/wDQUOd0PCzKq89wc3GqLrG5DrKHVlz7HWPsfY2+qr0vUds9HYt23qFf7NjJx5wbKxWb330tY5jhs/nW3D+c/kLILcEdDdgE1fZGXhrrhfYbPWc/1WOAGBsdvf8A8F6CJkYlDuiV4T21txMVzHstZkWOt3PBex+z7A/1HWtuc7+aQHti6O++n/oK73ImMYe5IwxgiETrGEZnjnwjh9PFJ0GZ+L01nqvpNLcqHC3Iyq3epA9uy3IyLNzWs/dSzc1uZRjODDWa8/HYQS1wMmu5j631OexzH13MVLP6V9pq6f0u1jaRU0txPTvf7wGe5rrrOn2Vb/Sr9TapgBlLaSR6lXUsVjmAuJaGNooZudbTjb/UbT6u9lXpf6NSYyOKIB67VS/EQJxAJ32rh/rfuv8A/9PprBUK/wBZdjO/S9Q9IvbeHx61328N+zOd9F+/0Hfzr/8AB+ncpZHofarftJxvtG9/qbxlzv8ASq9TZrt3/Z/suz0v+A9L9J6a8CSSnuf5ncfP8/8Ah/11ZPml/MfMP5z5/wDqn+sffb/s/wBtb9oOJ9s2t2bxlb9u1npbJP0P5vb/AN2/+7aJd6XqYnrHB9bZV9mkZHqbf+02/X1PpfQ9f/C/8Kvn5JDTX+Y38fxRpr/ubf8Arf8AO/rPv/6DYPUOFs+zDb9oGTH2fbTu9P7Sf9H9l+0+n+l/mftKTfs/2Zm04Xp/4PaMj1J3ZP8AN7T9o37/ALZ9D3rwBJLT/UbeKtP/ACn2/rP0B+rxTtPT9uyzZsF23Z6T/V9b0zs9P7P6n8//AOfE1Po/ofROJ6k37NoyfV3RZ9s+06+v6v8APb/tf6T1v+HXgCSWn+o/H+qrT/yn3H739V98H2X7L+jOJ6H2R2/0xlf0b9H6nr+kd+/+b9T1v1n/AMERm/S/RHG9T0XT6Qyt+3c3fv8ARPqfavW27N/676v82vn1JIV/qPxUK/8AKfYfvPvmL9j3s+ynA/n2bdgyNnq+77POvpbfU9T0N36L7Tv9P9YRcH0PsrPsh6f6G23ZIunbtZ9p/nT6n8z6X/WvTXz8kkK0/mPpao1p/ub6cT9BdP2yz7EcP+ZfskZG3Zu/WP507PW3bPX/AO1Oz0vU/RemgYv2DY77OcDb9ns9TTI/mY/T+pvP856f736z6H/ArwRJLTT+Y/H/AJqNKj/ub/nf819/H2f9mXbTg/Yt1frwL926W+jvg/aN2/8A9Gf8Kmf9l+xZMnA+y+q37RsF8epP6PZ6Z3en/wAT+h/nf+FXgKSWn+o28f63/NVp/wCU3y/1v63/ADH6EO77Nl7Ti+l6n61sGTv3bW8emfW9D0f9F+r/AGf/AID1FF3p/sy+DgfYfU/S+mL/AKft+h6R9T6GzZ6X6P7P9D9Avn1JHT/U7Hv/AC4V2n/lPsf3v5cL9DZ/qepjfajibto+ybBkbY02+j9nOzft/t+h6v8AgPWUCHm8bnUN/wAoUnK9NtptN0j02/rLm/ovobX/AMz6P8wvnxJOj8/+T/wf5z5V8fn/AMj/AIH878v/AEn/2ThCSU0EIQAAAAAAUwAAAAEBAAAADwBBAGQAbwBiAGUAIABQAGgAbwB0AG8AcwBoAG8AcAAAABIAQQBkAG8AYgBlACAAUABoAG8AdABvAHMAaABvAHAAIABDAFMAAAABADhCSU0EBgAAAAAABwABAQEAAQEA/+EYA2h0dHA6Ly9ucy5hZG9iZS5jb20veGFwLzEuMC8APD94cGFja2V0IGJlZ2luPSfvu78nIGlkPSdXNU0wTXBDZWhpSHpyZVN6TlRjemtjOWQnPz4KPHg6eG1wbWV0YSB4bWxuczp4PSdhZG9iZTpuczptZXRhLycgeDp4bXB0az0nWE1QIHRvb2xraXQgMy4wLTI4LCBmcmFtZXdvcmsgMS42Jz4KPHJkZjpSREYgeG1sbnM6cmRmPSdodHRwOi8vd3d3LnczLm9yZy8xOTk5LzAyLzIyLXJkZi1zeW50YXgtbnMjJyB4bWxuczppWD0naHR0cDovL25zLmFkb2JlLmNvbS9pWC8xLjAvJz4KCiA8cmRmOkRlc2NyaXB0aW9uIHJkZjphYm91dD0ndXVpZDo5M2JlNDA3NC00NTk4LTExZjAtYjQ3YS1lYjdiMmRlYmY0NjQnCiAgeG1sbnM6ZXhpZj0naHR0cDovL25zLmFkb2JlLmNvbS9leGlmLzEuMC8nPgogIDxleGlmOkNvbG9yU3BhY2U+NDI5NDk2NzI5NTwvZXhpZjpDb2xvclNwYWNlPgogIDxleGlmOlBpeGVsWERpbWVuc2lvbj43MTE8L2V4aWY6UGl4ZWxYRGltZW5zaW9uPgogIDxleGlmOlBpeGVsWURpbWVuc2lvbj4zMDc8L2V4aWY6UGl4ZWxZRGltZW5zaW9uPgogPC9yZGY6RGVzY3JpcHRpb24+CgogPHJkZjpEZXNjcmlwdGlvbiByZGY6YWJvdXQ9J3V1aWQ6OTNiZTQwNzQtNDU5OC0xMWYwLWI0N2EtZWI3YjJkZWJmNDY0JwogIHhtbG5zOnBkZj0naHR0cDovL25zLmFkb2JlLmNvbS9wZGYvMS4zLyc+CiA8L3JkZjpEZXNjcmlwdGlvbj4KCiA8cmRmOkRlc2NyaXB0aW9uIHJkZjphYm91dD0ndXVpZDo5M2JlNDA3NC00NTk4LTExZjAtYjQ3YS1lYjdiMmRlYmY0NjQnCiAgeG1sbnM6cGhvdG9zaG9wPSdodHRwOi8vbnMuYWRvYmUuY29tL3Bob3Rvc2hvcC8xLjAvJz4KICA8cGhvdG9zaG9wOkhpc3Rvcnk+PC9waG90b3Nob3A6SGlzdG9yeT4KIDwvcmRmOkRlc2NyaXB0aW9uPgoKIDxyZGY6RGVzY3JpcHRpb24gcmRmOmFib3V0PSd1dWlkOjkzYmU0MDc0LTQ1OTgtMTFmMC1iNDdhLWViN2IyZGViZjQ2NCcKICB4bWxuczp0aWZmPSdodHRwOi8vbnMuYWRvYmUuY29tL3RpZmYvMS4wLyc+CiAgPHRpZmY6T3JpZW50YXRpb24+MTwvdGlmZjpPcmllbnRhdGlvbj4KICA8dGlmZjpYUmVzb2x1dGlvbj43Mi8xPC90aWZmOlhSZXNvbHV0aW9uPgogIDx0aWZmOllSZXNvbHV0aW9uPjcyLzE8L3RpZmY6WVJlc29sdXRpb24+CiAgPHRpZmY6UmVzb2x1dGlvblVuaXQ+MjwvdGlmZjpSZXNvbHV0aW9uVW5pdD4KIDwvcmRmOkRlc2NyaXB0aW9uPgoKIDxyZGY6RGVzY3JpcHRpb24gcmRmOmFib3V0PSd1dWlkOjkzYmU0MDc0LTQ1OTgtMTFmMC1iNDdhLWViN2IyZGViZjQ2NCcKICB4bWxuczp4YXA9J2h0dHA6Ly9ucy5hZG9iZS5jb20veGFwLzEuMC8nPgogIDx4YXA6Q3JlYXRlRGF0ZT4yMDI1LTA2LTEwVDA5OjE4OjMyKzA4OjAwPC94YXA6Q3JlYXRlRGF0ZT4KICA8eGFwOk1vZGlmeURhdGU+MjAyNS0wNi0xMFQwOToxODozMiswODowMDwveGFwOk1vZGlmeURhdGU+CiAgPHhhcDpNZXRhZGF0YURhdGU+MjAyNS0wNi0xMFQwOToxODozMiswODowMDwveGFwOk1ldGFkYXRhRGF0ZT4KICA8eGFwOkNyZWF0b3JUb29sPkFkb2JlIFBob3Rvc2hvcCBDUyBXaW5kb3dzPC94YXA6Q3JlYXRvclRvb2w+CiA8L3JkZjpEZXNjcmlwdGlvbj4KCiA8cmRmOkRlc2NyaXB0aW9uIHJkZjphYm91dD0ndXVpZDo5M2JlNDA3NC00NTk4LTExZjAtYjQ3YS1lYjdiMmRlYmY0NjQnCiAgeG1sbnM6eGFwTU09J2h0dHA6Ly9ucy5hZG9iZS5jb20veGFwLzEuMC9tbS8nPgogIDx4YXBNTTpEb2N1bWVudElEPmFkb2JlOmRvY2lkOnBob3Rvc2hvcDo5M2JlNDA3My00NTk4LTExZjAtYjQ3YS1lYjdiMmRlYmY0NjQ8L3hhcE1NOkRvY3VtZW50SUQ+CiA8L3JkZjpEZXNjcmlwdGlvbj4KCiA8cmRmOkRlc2NyaXB0aW9uIHJkZjphYm91dD0ndXVpZDo5M2JlNDA3NC00NTk4LTExZjAtYjQ3YS1lYjdiMmRlYmY0NjQnCiAgeG1sbnM6ZGM9J2h0dHA6Ly9wdXJsLm9yZy9kYy9lbGVtZW50cy8xLjEvJz4KICA8ZGM6Zm9ybWF0PmltYWdlL2pwZWc8L2RjOmZvcm1hdD4KIDwvcmRmOkRlc2NyaXB0aW9uPgoKPC9yZGY6UkRGPgo8L3g6eG1wbWV0YT4KICAgICAgICAgICAgICAgICAgICAgICAgICAgICAgICAgICAgICAgICAgICAgICAgICAgICAgICAgICAgICAgICAgICAgICAgICAgICAgICAgICAgICAgICAgICAgICAgICAgIAogICAgICAgICAgICAgICAgICAgICAgICAgICAgICAgICAgICAgICAgICAgICAgICAgICAgICAgICAgICAgICAgICAgICAgICAgICAgICAgICAgICAgICAgICAgICAgICAgICAgCiAgICAgICAgICAgICAgICAgICAgICAgICAgICAgICAgICAgICAgICAgICAgICAgICAgICAgICAgICAgICAgICAgICAgICAgICAgICAgICAgICAgICAgICAgICAgICAgICAgICAKICAgICAgICAgICAgICAgICAgICAgICAgICAgICAgICAgICAgICAgICAgICAgICAgICAgICAgICAgICAgICAgICAgICAgICAgICAgICAgICAgICAgICAgICAgICAgICAgICAgIAogICAgICAgICAgICAgICAgICAgICAgICAgICAgICAgICAgICAgICAgICAgICAgICAgICAgICAgICAgICAgICAgICAgICAgICAgICAgICAgICAgICAgICAgICAgICAgICAgICAgCiAgICAgICAgICAgICAgICAgICAgICAgICAgICAgICAgICAgICAgICAgICAgICAgICAgICAgICAgICAgICAgICAgICAgICAgICAgICAgICAgICAgICAgICAgICAgICAgICAgICAKICAgICAgICAgICAgICAgICAgICAgICAgICAgICAgICAgICAgICAgICAgICAgICAgICAgICAgICAgICAgICAgICAgICAgICAgICAgICAgICAgICAgICAgICAgICAgICAgICAgIAogICAgICAgICAgICAgICAgICAgICAgICAgICAgICAgICAgICAgICAgICAgICAgICAgICAgICAgICAgICAgICAgICAgICAgICAgICAgICAgICAgICAgICAgICAgICAgICAgICAgCiAgICAgICAgICAgICAgICAgICAgICAgICAgICAgICAgICAgICAgICAgICAgICAgICAgICAgICAgICAgICAgICAgICAgICAgICAgICAgICAgICAgICAgICAgICAgICAgICAgICAKICAgICAgICAgICAgICAgICAgICAgICAgICAgICAgICAgICAgICAgICAgICAgICAgICAgICAgICAgICAgICAgICAgICAgICAgICAgICAgICAgICAgICAgICAgICAgICAgICAgIAogICAgICAgICAgICAgICAgICAgICAgICAgICAgICAgICAgICAgICAgICAgICAgICAgICAgICAgICAgICAgICAgICAgICAgICAgICAgICAgICAgICAgICAgICAgICAgICAgICAgCiAgICAgICAgICAgICAgICAgICAgICAgICAgICAgICAgICAgICAgICAgICAgICAgICAgICAgICAgICAgICAgICAgICAgICAgICAgICAgICAgICAgICAgICAgICAgICAgICAgICAKICAgICAgICAgICAgICAgICAgICAgICAgICAgICAgICAgICAgICAgICAgICAgICAgICAgICAgICAgICAgICAgICAgICAgICAgICAgICAgICAgICAgICAgICAgICAgICAgICAgIAogICAgICAgICAgICAgICAgICAgICAgICAgICAgICAgICAgICAgICAgICAgICAgICAgICAgICAgICAgICAgICAgICAgICAgICAgICAgICAgICAgICAgICAgICAgICAgICAgICAgCiAgICAgICAgICAgICAgICAgICAgICAgICAgICAgICAgICAgICAgICAgICAgICAgICAgICAgICAgICAgICAgICAgICAgICAgICAgICAgICAgICAgICAgICAgICAgICAgICAgICAKICAgICAgICAgICAgICAgICAgICAgICAgICAgICAgICAgICAgICAgICAgICAgICAgICAgICAgICAgICAgICAgICAgICAgICAgICAgICAgICAgICAgICAgICAgICAgICAgICAgIAogICAgICAgICAgICAgICAgICAgICAgICAgICAgICAgICAgICAgICAgICAgICAgICAgICAgICAgICAgICAgICAgICAgICAgICAgICAgICAgICAgICAgICAgICAgICAgICAgICAgCiAgICAgICAgICAgICAgICAgICAgICAgICAgICAgICAgICAgICAgICAgICAgICAgICAgICAgICAgICAgICAgICAgICAgICAgICAgICAgICAgICAgICAgICAgICAgICAgICAgICAKICAgICAgICAgICAgICAgICAgICAgICAgICAgICAgICAgICAgICAgICAgICAgICAgICAgICAgICAgICAgICAgICAgICAgICAgICAgICAgICAgICAgICAgICAgICAgICAgICAgIAogICAgICAgICAgICAgICAgICAgICAgICAgICAgICAgICAgICAgICAgICAgICAgICAgICAgICAgICAgICAgICAgICAgICAgICAgICAgICAgICAgICAgICAgICAgICAgICAgICAgCiAgICAgICAgICAgICAgICAgICAgICAgICAgICAgICAgICAgICAgICAgICAgICAgICAgICAgICAgICAgICAgICAgICAgICAgICAgICAgICAgICAgICAgICAgICAgICAgICAgICAKICAgICAgICAgICAgICAgICAgICAgICAgICAgICAgICAgICAgICAgICAgICAgICAgICAgICAgICAgICAgICAgICAgICAgICAgICAgICAgICAgICAgICAgICAgICAgICAgICAgIAogICAgICAgICAgICAgICAgICAgICAgICAgICAgICAgICAgICAgICAgICAgICAgICAgICAgICAgICAgICAgICAgICAgICAgICAgICAgICAgICAgICAgICAgICAgICAgICAgICAgCiAgICAgICAgICAgICAgICAgICAgICAgICAgICAgICAgICAgICAgICAgICAgICAgICAgICAgICAgICAgICAgICAgICAgICAgICAgICAgICAgICAgICAgICAgICAgICAgICAgICAKICAgICAgICAgICAgICAgICAgICAgICAgICAgICAgICAgICAgICAgICAgICAgICAgICAgICAgICAgICAgICAgICAgICAgICAgICAgICAgICAgICAgICAgICAgICAgICAgICAgIAogICAgICAgICAgICAgICAgICAgICAgICAgICAgICAgICAgICAgICAgICAgICAgICAgICAgICAgICAgICAgICAgICAgICAgICAgICAgICAgICAgICAgICAgICAgICAgICAgICAgCiAgICAgICAgICAgICAgICAgICAgICAgICAgICAgICAgICAgICAgICAgICAgICAgICAgICAgICAgICAgICAgICAgICAgICAgICAgICAgICAgICAgICAgICAgICAgICAgICAgICAKICAgICAgICAgICAgICAgICAgICAgICAgICAgICAgICAgICAgICAgICAgICAgICAgICAgICAgICAgICAgICAgICAgICAgICAgICAgICAgICAgICAgICAgICAgICAgICAgICAgIAogICAgICAgICAgICAgICAgICAgICAgICAgICAgICAgICAgICAgICAgICAgICAgICAgICAgICAgICAgICAgICAgICAgICAgICAgICAgICAgICAgICAgICAgICAgICAgICAgICAgCiAgICAgICAgICAgICAgICAgICAgICAgICAgICAgICAgICAgICAgICAgICAgICAgICAgICAgICAgICAgICAgICAgICAgICAgICAgICAgICAgICAgICAgICAgICAgICAgICAgICAKICAgICAgICAgICAgICAgICAgICAgICAgICAgICAgICAgICAgICAgICAgICAgICAgICAgICAgICAgICAgICAgICAgICAgICAgICAgICAgICAgICAgICAgICAgICAgICAgICAgIAogICAgICAgICAgICAgICAgICAgICAgICAgICAgICAgICAgICAgICAgICAgICAgICAgICAgICAgICAgICAgICAgICAgICAgICAgICAgICAgICAgICAgICAgICAgICAgICAgICAgCiAgICAgICAgICAgICAgICAgICAgICAgICAgICAgICAgICAgICAgICAgICAgICAgICAgICAgICAgICAgICAgICAgICAgICAgICAgICAgICAgICAgICAgICAgICAgICAgICAgICAKICAgICAgICAgICAgICAgICAgICAgICAgICAgICAgICAgICAgICAgICAgICAgICAgICAgICAgICAgICAgICAgICAgICAgICAgICAgICAgICAgICAgICAgICAgICAgICAgICAgIAogICAgICAgICAgICAgICAgICAgICAgICAgICAgICAgICAgICAgICAgICAgICAgICAgICAgICAgICAgICAgICAgICAgICAgICAgICAgICAgICAgICAgICAgICAgICAgICAgICAgCiAgICAgICAgICAgICAgICAgICAgICAgICAgICAgICAgICAgICAgICAgICAgICAgICAgICAgICAgICAgICAgICAgICAgICAgICAgICAgICAgICAgICAgICAgICAgICAgICAgICAKICAgICAgICAgICAgICAgICAgICAgICAgICAgICAgICAgICAgICAgICAgICAgICAgICAgICAgICAgICAgICAgICAgICAgICAgICAgICAgICAgICAgICAgICAgICAgICAgICAgIAogICAgICAgICAgICAgICAgICAgICAgICAgICAgICAgICAgICAgICAgICAgICAgICAgICAgICAgICAgICAgICAgICAgICAgICAgICAgICAgICAgICAgICAgICAgICAgICAgICAgCiAgICAgICAgICAgICAgICAgICAgICAgICAgICAgICAgICAgICAgICAgICAgICAgICAgICAgICAgICAgICAgICAgICAgICAgICAgICAgICAgICAgICAgICAgICAgICAgICAgICAKICAgICAgICAgICAgICAgICAgICAgICAgICAgICAgICAgICAgICAgICAgICAgICAgICAgICAgICAgICAgICAgICAgICAgICAgICAgICAgICAgICAgICAgICAgICAgICAgICAgIAogICAgICAgICAgICAgICAgICAgICAgICAgICAgICAgICAgICAgICAgICAgICAgICAgICAgICAgCjw/eHBhY2tldCBlbmQ9J3cnPz7/7gAhQWRvYmUAZIAAAAABAwAQAwIDBgAAAAAAAAAAAAAAAP/bAIQADAgICAkIDAkJDBELCgsRFQ8MDA8VGBMTFRMTGBEMDAwMDAwRDAwMDAwMDAwMDAwMDAwMDAwMDAwMDAwMDAwMDAENCwsNDg0QDg4QFA4ODhQUDg4ODhQRDAwMDAwREQwMDAwMDBEMDAwMDAwMDAwMDAwMDAwMDAwMDAwMDAwMDAwM/8IAEQgBMwLHAwEiAAIRAQMRAf/EAREAAAIDAQEBAQAAAAAAAAAAAAAGBAUHAwIBCAEBAAMBAQEBAAAAAAAAAAAAAAECAwQFBgcQAAAGAQAIBQQCAgIDAQEAAAACAwQFBgEREhMUNRYHFxAjMxU2IEM0NyEyQDEwIlBBJCVFEQACAQICAwYQCQkFBwMDBQEBAgMABBESIhMFITJCk9M0EDFBUmJykrLSIzOzFHQGNiBRgqJDc+M1RmFxsVNjg6O0FfCRwySFMIGhwvOUdeJE1EDRFsHh8lSEZBIAAgAEAQUOAgYHBAoCAwAAAQIAERIDITEiMkKSEEGRUmJygsLS4hMzQwRRcfBh0bIjFCCBsaJTYwVAocGj8nODk7PD0+M0NdTkRFRk/9oADAMBAQIRAxEAAAC/5TGXXZRHgTnXxr8481IPBt0o4580KA8cBOHHuI44gnDtBgrjvykmjZIEsd+AnjVKgljxBkqjf8gojp0mUcbvsQoDd2kljxySmDd4iqoPHKbJg8chMHjkJg5w4qsDt4myYPHMSx45iWO8NCoPHhKUO0RCoO/1KOOf1CWPHxKQOnBCkOsQVR0+pShnlRVOG7tMpY8c0pY39EJg6cxPpNLU8OfmNn3bdSh6ItX0nEIyxiMq0y30lAZYZ316fOLznwDt9FRhWsPl4nJeYV7bpo31LmZ4y16/roqwLbOmza9iXlZMqV3y7Y89+pNanfWBa+uueNzWWlNrvW+LXzlh0dEh36OtEiXMfHn+S49ha8lCePcvNJ0c5tEzTR4hUQ/EvLF3yzU13foU+9n85+ZvzjRaXfpqVtykZYXiFoa7t0U3mwj4890uNMLTWjn9qLPJn6za7foRrpgX+fmfUpsp+jpW50+Fhzw7fj4mfFxXXF7pNnI8ZZW9TNrb6MCNqC/a1fb1c9EGVAsIKki0X8efnLtuY8rTKten7H0AiMq0yzYoJthy8Sn5Zfla1o0F7q5eRisGgFcv4BXjP9FcY6ogjL7FcZqggDF2FcZ6kri+lCuNFWVZdzRXGivKct7EVxohlGWVsK40RxfLC3FgaOQuE63FoaPIsk+zF0aPgsFjNKEaAVy16lKNAK5c+CpGgFcvYhWjQCuMNaQBm9CuMlSQRk6CuM1QQBh7iuvPNLSnr5J5SZFthXuns+gTK5c8GLLFXu+c7HnQT3836dGlcO5mPKTHH23rLMzqvtaocmOhvhGo2FeGVwVGsU1ZtUi5fEh3F9KekUm6RneiFZnui52e9NzXSzjmumZqeNHzrRyVmWm5sRHxEfy1zzQ0EqHBPdBhSGNRrWsY1xotZtVWpaE+3qLseqG+phDlRZ5o1bZQDOffzqaT46eTMvnTwaJOiTDMo8yGPV3UW5n1Xc0w3M64xiWvMq0MLooN4rqTkmlroCG+CoqtSqDgnuGeTCvMK9v0/QJmIyrTLNq2OwxObjqi1CETQreNwEImhXxbr4iGKfbHBlg3ht0QiaEKDdhA9TQhQroK7pNCFFtwrO00IUe1CpkzQhcrIKeXNCF4sApTvOrSvLUmVW9k18R3Jpa9JMnhCJoU0ixCETQqOlmEImhV+bYIRNCt4XIQiaECHdhCJdLWk6D96REoml9IUG7CB6mhW8rcRUVrSViUvMq109f0CZiMq0yzaUVGecnXrRksunTp4HT4gAAAefUWIUZNTa8nC4BG7O7yvTLPLGgLwTRjYCmMEYqOjQSVyQJj2PenirQLzDfUAtYAAAKspcr+mLP/ALj7mklAdnjWy3R/OP2XW1T7vbw7UDWgAABFra71hzTzmTPT54XK00H1Cm79QBMgAsRfPvl4rGope9KXyrdqlfV+MKY0Ze/qAR/U+bkR+6rSlz95L9MnYDboAAWmVa01+gC+xwmTLFezLWsl8/7EnwJ/P7Opebk9b8zpvdtTRW5A01Ku0XaZ1VbURuD19cVrys6/DonNNdK0QD386ezR5PDuZlxkxx9t6yzMqAGr34954+WpFdax1A23AAq/lHlf7UHzm+m8wpDPNj1DL/MLU1jV6fTSbSpIhztU286fmrYDXMAFK+ob7Hnnnzjt0d09wT8sGObCk32+Ukf5nvLC+nKg+31KjlY19VXVpz17UmMT7EtsaXyS1qnbpe2FJd54tCu0K6YnqDA5uRjppEBFxOr7Dr7/AKBtvFZFtkzy8rzaU6VLszldQDXhKa5pqUuQL3F1iXc8kjj45ed7+nBc+j4CteQJ8R0PXzXaQAcePfkSgCISIx2XWhXzxaDj202AAqylyv8AKT595fpznwbbPMcb9vkz76N7JspmT8K0XZjT8frJl1S/Ky7WqhddXy9qBrRSvqG+x51WjmQ9uhzg+fWWDH59ebdWLAeR+lm8YPvHb8wYttOLTlAA4frNRzzQ0vs+Ig2FA5Y+jodEwHqfLxKJoV88WhXaFdLB67F9PMeUEeiZVrTX6BMxWRbZM8pQAABUW6Pn23XBZOf1W0Ug0Olnxt/nc7jNHLi91tX2Ss6vmF51Tm6IRTwdPXpciJKM3i9ORodlT3AgVNhXjvF6c88YLsnt8R9qyXbRbprGr5fqSHIZGnSEN+vyZ7DosEKmpRm8wp9rJs5iT8YXZjCsY/V97ilslWK1jwur5WnvqG+plzpmzlt0eFe8o8edjmwpuu0D59+VrYBxvp2Ke4ipQ31DWtsg6NHrZBlcn7GlUjsav16s/ahvs8WhXaFdMKRDqOfka7GHWa73Kn0j2uzAdPXFZFtjzylgAAGeaGj4eouk85PooBPB0t6yz9D5AAtgLbIVqmX06nzy6fPBa1sVISI30LYqQmV/QLVflzorF62lNNrKSGmhnr7Qx3ReUiyw4rX2HQABNtan7y8bRKor3o6UmMpx/P8ALdPNnTd3uepN1dxp98yDTlQHBZZsOYUGCfa3ihmQ61Y5sKbv0QPn35WthU2yqd2NQb4qUN9Qza+AvpDmBEcFpsJmsqmhXzxaFdoV03MrqX0jR7ERGX2la02+gTMVkW2TPKUAAAZ5oeeYetUAcX0oAaHYV8Tv+Ik/E2Nh0ah1prnq4RdYocdOYj4cv0Gd6JUOt/HoS+N/MoS+DJp0uz4/qaFvrrzbl5UdtSz81aMSfeXvLz6XEw+rlW63LnFstlybv85bAaa0EBuM8qO8C16+psq7PKLSyoGX03rQc/kxtoVYSer5dSaKG+yxgRGkvouwXBPpmxzYU3beB8+/K1sAL6AAUN9Q0zvuHWlm0VmRWjPETbZY26HHnQX+eLQrtCumtsI/rDn68e8eZsefHt09f0DXaKyLbJnlKAAAAArrGmrTvRN5EC6xLsQgxrw4PpnS5prn0PmwC9wAob6hvqZgF9AAob6hvqZgF9FemZLbDlqLWrvb6rVA91Wfoq0eQYfR9blan6ec02ynbbfO2wGuhVlPnn7p+ldh9D8kBn6Xu+72u/zpKDfhUr6hvssKmgjxtujQaPn0ywY5sKbpqk/M+PN+30tnw3aenyJ6wz4tbF8rEc5Pc2NCa0Lb5vtdJbTj6Ghqbwen8/SQmhXzxaFdoV02MmcWvA+WAcaBlWtdvoEzFZFayxw75g/Zlw/Xz5tHPw9jaSo8+p+b3NMQ60ZQNdhdYl3PJBjXcfz/AKp9uaa59H5cAvcAKG+ob6mYBfQAKG+ob6mYBfRUjX/Hn5YrLTXOuxGkl7r60+UPP3LnyRH5/opdysStfObvVca/NeKrlCy+l9+vnbL0hk43vR86Sg34ACZUr6hvseepoNENuiro3BPywY5sKbprixrdJxfQ5/rUBet5r1lFuzzlmhpZn63FQ0lL38Su9wL7HO1p5a/3Te2C6xZ4tCu0K6Z8yBUVo509xTX1lVMCfe/0DTWjdlplTV5LuFTw+zks/S+mPfdAeh8iAAAHj2CN5uvvLx3nTz66uwrLOHXVAL45PolbTFG0v5TIUJv5N8UII8uxm8f1NC3115ty8q1oNvATnHn0AC+hGkiFugeqvn7VWNMm4/QffTR87PEzyTZ1/H7Zfd7XbwCUG/CATIAKV9U0fNyaCIZe74nw6/PJ/mxZXT2AEyKrUgY4Xvxcdq5xeMOxm3PNHBew9GvsqBxx+gv6fQD1Pl0ewaF3PJiVyBTOxjtxe9FHZSbUHFlWtd/oFrRGVaZZtKINHz8jUK5ENArg0CuDQK4NArgvXHCr5ePSfaudXW0CuJaBXBoFcGgVwaBXBoFcGgVwaBXBoFcGgVwaBXBojUBESGBP8VOYrl5aKCs+0hnlK5Y0CuTLQK4NArg0CuDQK4NArg0CuDQK4NEWhIhggVxFZUqrIi0S2ArNDItitmgVzeWgVwaBXBoFcGgV+MQ3LTGudHX9AlEZc8tcsbywSb7HnkfEc36dVIEwrIad5NU+0l2V9UtwzUeiwzkSjqac02QmOZxX4q0aTMz/AEA8LwnGh2WZ6YfF+Ugj7cZXpx2pJ+bDvfZVopYVVnl43sWVvBewJ+cDDc5u2ItY1oiUpaNGZX9ru3HsozMi5zezNC8+l082Oe9jT/n2pIvdD+mqHDwV/JJDVStsSsgKPM1P1QX5AqKCvNQ6qjWRqGtozTJKO8HJe4qxo87O9EKqpFUauye4Z5MK8wr2/T9AmYjKtMs2rZcWq5OCk+MZa7F2WAo4bP8AC8nK4V9I1+CzuFcPCs2eCQxq4SEts8HNvVws0Jq8Fe9q4XmeM/ko9EWPox50xfBb0Zc9DRnt18FfQaX0NCTOBUea72NCt9BScOPsaKGKCmx9vY0VlUCra2foaIlECxIvfoz+VsF7myfBhkq4U9c0fC5sVcIa+2eCwu1cPqi2+Dozq4TEds8EdzVw8KrZ9QpOHinpm+LzEu9Xd9AmYjKtMk2prRNk8PmNcWsttNY8dVl487pNRHbbpo+lXUZYO/VTmWu3VVMujTcpPatHagnUN9Gj3n/atGmzR7SZv5eefYMTGi8Rv6Z9bIdaHlJvpPl5db0zcflJxvpfzM3sa0cK+FPtpM5577yx0LzQTNdfHarh55OFZUzrWaFuUqpf+KlRxXWFthQL6tlbQz88W/l4qtugZM775YNU5VvtNqmyUL/PItKH3MzJadLrRpsEtu13X7tIMsGRhzt+02qvNZ9rRl80/K92hcs12Df0pbnTVfuaThni1L7Av30t6Ph301+gX0iMqZY2v4l/DDm5xpoiN5lhwuK4m0P5NK1+xZJMsq0F7wZPUpnNp5ZNvEuOHCyiBNg/QhzvJEWNDNJmdSzAkcPgeI8sisuF6Jt5g2BFeE+OTaPbwAi+pBFSJLE2yzYEzNIRMsqhKAhzCtbmJBL3iSvpSnm8pS1oMnqVoyUccvpFk/SlPd8vF7wJvopnEblwtfty+ERHY6Qmb9UmBbTlstaPymmeVrR9ybToJSa73gEVh02PERsJjxrtsJjwbCY8GwmPBsJjwbCY8GwmPBsJjwbCY8GwmPBsJjwbCY8GwmPBsJjwbCY8GwmPBsJjwbCY8GwmPBsJjwbCY8GwmPBsJjwbCY8GwmPBsJjwbCY8GwmPBsJjwbCY8GwmPBsJjwbCY8GwmPBsJjwbCY8GwmPBsJjwbCY8GwmPBsJjwbCY8GwmPB+nj8wmHN//2gAIAQIAAQUAIUhEtoQbQm87Qg2yenKqeBhVPI2yenKyWBtU8DCyWRtUxhZLIysngbZLTtUxtktO2T07VMbZLTtUxtUxtUxlZLA2qY2qY2qYysngbVMZWTwNoQbVMbQg2yeMZWSwNqmMLJZG2TyNqmNsnp2qehyoTKG2S0kMmc2rjXN6IxjO8A2M66ujVRNqg+MZUVwbXPjO76P+q2jWyX/qpq5NkptZHRpMXO0TxjWWIYxik18rEMc2k+crEyc2rnQqUxhlNQySxTGxo0EMU2U/6lzjOETkyTC2kxMF1TlxjAxjGvgv8HynoWIfJyYLpJq7E2DFT1DYyj6n3TeibJ8qbNTX1VBqqDVUGqoNVQaqg1VBqqDVUGqoNVQaqg1VBqqDVUGqoNVQaqg1VBqqDVUGqoNVQaqg1VBqqDVUGqoNVQaqg1VBqqDVUGqoNVQaqg1VBqqBRNQxT7QpUfU+6Yq+yJg+1/xNfGn/AA1vSR9T7pvRMU+v5w84ecPOHnDbqjzh5w84ecPOHnDzh5w84ecPOHnDzh5phqq6PNKPOHnDzh5w84ecPOHnDzh5w84ecDGUKNoYecPOHnDzgYqpio+p903oquCJmw8Tznxz/GC6mpnOMA2T5PqKjUVGoqNVUaqgzlQpinKb6DqYwCrZLnRjVMvk2U1MZx4mOrlT/wCgHOuQuM6ceGcnybKpjZUNnURNnOQobJSnMqUvgj6n3f8AvqPNO0J/bQcGycuArnOCGVzr/wAGyho2v0qf2SzjW8FFNGDGznJC5yP+uqcucDBs4ympjOPAvrhx6Rf6mVLkxc5MDZyUYVxgx8FMdPGNmFvTX9PJv4MY2lpo233cf6MkQ+dgljwU/oFvTzo2pClMmXGMK/Sp/bT4HPjAMbSCk05KXaeBi7MGT0ZKbQCHx4F9cOPSz6YYh9/UK5zhNE2c5C3pr+nowM4xkI4xhT7uP9eCxjlLlVxkbZwD6co5Szr6uMhH+FfpU/sjowM5ybJ9bWIXOQQmDYBlCFzjOM4OTBcHLnAJra2M6oL64WNgyJf6/c0gpsGwb+6ieDBJMp/Bb01/T2hsFKfGDt1DZc/dx/rwclyYmxMNiYJ40EBiFMNmYptKw0rDSsNKw0rDVUMbJcYzjGMYOmQ5NGDG8NY2FCG1i5cK7TVKVTKBdlo/hP1zlIcyhtZuX+v3FM6MI5/g39xjGMeC3pr+nq4wNUoRxjafdx/rwdF0k2Y2YxnURy5NjJM6SqYNkm7uQijnBtkmNkmCJudVEi+DqHztEjm1VVMnzg+M4IfOMjKRcgpcFKfRk+VNBUlMkznOTZJjGFzJFzlUuCoF/r9zwN/cxsYwifOqFvTX9MmcAudJGec5z93H+vFTOcFynjJ1vTyTG2T/AKeGPU8Ev6DKZjmTxnKaiekfzjJM4zgh86Qc+dJ84xj+c5TT0DGMYwX1w49Iv9d6V0tlzqGcqmTxl0rnKxs5IkbJshb01/T1CjULoR/hT7uuXAdnzrlObW2hQc+MlC3pmJnaJ/08Mep4Jf0BkzZMljQTOMZwomMjB8ZxrKDJ8YwE0xjGMYBfXDj0i/1M1IUxMERB9RXGGyeTGTxpTKXUC3pr+ntD4UPk2MND5Ob7ucYwg4bnUOVmpjP0bPOoD6cl2boI7Uh9pgbTAKm60IkXwcyRc5TJqEGcYzhRMFKbW2KeyMU2DJpjGMYx4ZPqLbwUKrYMmX+oWNnGSHPnODmyRU5skRNnOQtjOU1VNYmUS5zssarcuCn+6b0TKFLnbEG2INsQbYg2xBpzgm2INsQbYg2xBtiDbEG2INsQbYg2xBtiDbEGVSZwVUhc7YgMqQ2cKkxjbEG2INsQbYg2xBtiDbEG2INqmMqJZzrI6D7MwwUg2xBtiDbEG2IMrkwEfU+6Z0jsiKFMr/h5xjONBhjGMY/wlvSR9T7pvRMcpVdumNumNumNumNumNumNumNumNumNumNumNumNumNumNumNumNumNumNumNumNumNumNumNumNumNumNumNumNumNumNumNumNumNumNumNumNumNumNumNumFVU8po+p903okWNk2DnMnlc+AU5s5MscpiKmyFF84OVc+cHOppw5/lNYxj4cZyYq+cDbn1TnPpI4ybO0Psyr5MbBzZT3k2BlQ+jKx8DanyQ6psYy4zgqymSjbKZwY+cJFcaAQ+ckTVMYbQ+E9ubQmfJiEXPnCSmTZ2imDlUzkKHNgxDaxSnPtFMmxhqbJs/dxjJ0MMzYzuZtTLM+RhqfGdyMNzODNzmG5m0ZaHzjdDYKVoYud1No3M2g7Q5wZocw3Q2ruZ9TdTaNzNq7ofV3U43Mw3M2jLQ+Rux9U7Y5huZtGW58l3MwK2PjGGZtBm5zF3MwK2OXGGZsAjY5Ruh9YrUxcnanNnCCmMbkYZanzhBA5D/dR/p/4v/wB//9oACAEDAAEFAEykTR2yY2qe97ZMbdHTlZLAwslkbdHTlwjgZWSwMLo5xldLAw4RzjK6OBvCOnbJDeEdO3R07ZIbwjp2yQ2yWBtkhlwjgbZIbZIbZIZXRwNskMro4G2SG2SG2SGV0cYyujgbZIYcIZGF0c42yQ26OnbpaHiqZm+8I6SGSOfVxtDfjjGM4dA+M7RbV1W59UKYxlVcptocud1zj/q40ZPkukiurkxiG1m+jWOXO1SLjWcJnOYie0MumZQ+lTOVyGObUzqrEOcGTVMiuUxsaNCZyHyl/QucZK3OnkmF9J08FyQ5cFKMYLlTBf4UyloXTPk6eCYyTU3c5TFS2Zi5Q9b7xvxzZUyrsVdpqLDUWGosNRYaiw1FhqLDUWGosNRYaiw1FhqLDUWGosNRYaiw1FhqLDUWGosNRYaiw1FhqLDUWGosNRYaiw1FhqLDUWGosNRYaiw1FhqLDUWCqKpyKbYhG/q/eMR1sU8KYX/xNfGn/Dcei39X7xvxzEU2mhcaFxoXGhceeN4WGhcaFxoXGhcaFxoXGhcaFxoXGhcaFxoXGhceeYaq2jzyjQuNC40LjQuNC40LjQuNC40LjQuNC40Lgx1CjCp8jQuNC40LjQuDkWOVv6v3jfjsYdw9SPW3hC+Oc6MF2epnOMA2VDKaiw1FhqLDUWGosM5VKchyn+hBBVyoeJRMhu6msnEpFRcN1GqnidRbKv8A9YUUckKXOnHgbKmT5WMbNfTItJ2lm1RYBU+SEOdYhfBD1vveZqVfTuLj0dCgNlQuAsbJUjVjO4Z0HM30bb6Vf7oGxk3g3bqOVG7dJuk5cJtiZl3W8tXKbki6CS6Thso1U8Cfkh16CeM5waPkMmVau0Qk2dK5xHyODYUWbO1pN67bhx6Tj0cn0YMc+ljo2/3sf6QfOm5cyr42Ar/QOPRy6sHtxCFMkUuCrfSr/fTjwQQUcnbNSIEcOiN011zvFNARWOzO2dEcpuGxF03DdRscE/JDr0GnqC1Cr+sGhSmstsSTJHhx6Tj0dGNOcYyG+MYV+9j/AF4RyLZZbMbDZHt0OHxClBrGzzGauDZb/wALfSr/AHb6uBnOTZYkbkbuXCbYjhwq+VBlUy5xnBsILqMlWrhJyR6RudDGclyT8n/QcGKZuT+v3c5xgFNg2Dep/wByKZcuHZQ49Jx6O1NgpVMFUaqmM7+9j/XhCLFSc+4oj3FEOzYM5B0ynxsjEPpXGlcaVxpXGlcaqpjZKUucYxjDBwsgo+WVXdeGubCyZtYhnS+1YqKIPJZRd0bR/CX5ChU1DKm1mpP6/dWzoKhn/qb1BjGMeDj0nHo4KXA1C6G+MbX72P8AXhBK7N1vo30SKmcLZhpLDUhtYjRRJNx7vCiWcxzs+wSGwSCbyvasi4ijt1VM7RA5tSPakbEkYsropD5xkGQLnJCYIVTVyeNjcNiv2pHJM5ybKeMYcGRKbK5MEbk/r93wN6hz4LhBTOqHHpOPRTzjQTOlNhnOTfex/rxUznBDI4yo49HMutmNS9PwL6vgj6YykY5ksZykwkDNjYyXJZSOK5JjJyHGTHOeLjiti5yXBZCQM4NjGMYJ+SHXoE/ry3H605GNmacGwQeKZrcfnLRmgaes0czbMQ49Jx6OEyYGoTVb40K/e1y4FZTSUZLoI4R2pAooXJQ49E05G+0Jen4F9XwR9MHROY6ONCecYziPkDNzEyJGLI6LrLYEdFFalNnIkJDK5sYxjAJ+SHXoE/qa2qlNKz+XicVNZZHxblDGM9WLIOJh8+bBx6Tj0dqfCqmTYKxUyc33slwVtDzDdk3VsjM6f0bI2zwG+Uyrb3ACWcxhsbUo2pQR3X9WRcRR25kSGykTUIM4xnDB+Zvk66SaXuJt6TXSUSkJAzjOMYxjwMfZuN7IF3GDpF/qFzmLlNRQ2cHPlOu52spbEkyR4cYzlJZXWTy3JnOxLqNSYIp943451iEzvCY3hMbwmN4TG8JjTnCe8JjeExvCY3hMbwmN4TG8JjeExvCY3hMbwmN4TGV0843v+N4TG9/xhdPGN4TG8JjeExvCY3hMbwmN4TG8Jjbp6cqI5NrN9BVtmos8XXLvCY3hMbwmN4TGXKeMN/W+8Z4hsU1SHX/w84xnGqcYxjGP8Jx6Lf1fvG/HMoUi+8IjeERvCI3hEbwiN4RG8IjeERvCI3hEbwiN4RG8IjeERvCI3hEbwiN4RG8IjeERvCI3hEbwiN4RG8IjeERvCI3hEbwiN4RG8IjeERvCI3hEbwiN4RG8IjeERvCI3lELrpGSb+r94346bg+TFOoZLLlTAIocxjuFCmTXOYKOclUK4UzhRRXGcO86UnBjHw6NkxXJsDDk+qooprJu8nNhU+yI5MY+FDmS3s+BlVTVyupgbZTKai5sYM6Ngi6uSDbrGwdTOESutAIpkyaS5zjaqYS3k+hJTJ0yOVM4QVyY21VwcipshZQxTENrEIofaq5PjDI+Tm+9guVG2GB8Z3A+plgpkYZHwb2843A4O0UMPbz6MsVM4wxNghWJymyyPkuGB9CjE58mYnNncj6u4H1NyPoywPqbifV3JQbgcbgfQZkfI3M+odoocbgfRlopkm4HBWahS4jzaDtVDl3A+gjRQpSx5sYIzUINyPrEZGIY7NQ+StlS49vNoyyUzhs2UIf7zf0//F/+/wD/2gAIAQEAAQUAmbGupXErracp8624c624TNqsryMhLTZGUVzrbhzrbhzrbhzrbhzrbhzrbhzrbhzrbhzrbhzrbhzrbhzrbhzrbhzrbhzrbhzrbhzrbhzrbhzrbhzrbhzrbhzrbhzrbhzrbhzrbhzrbhzrbhzrbhzrbhzrbhzrbhzrbhzrbhzrbhzrbhzrbhzrbhzrbhzrbhzrbhzrbhzrbhzrbhzrbhzrbhzrbhzrbhzrbhzrbhzrbhzrbhzrbhzrbhzrbhzrbhzrbhzrbhzrbhzrbhzrbhzrbhzrbhzrbhzrbhzrbhzrbhzrbhzrbhzrbhzrbhzrbhzrbhzrbhzrbhzrbhzrbhzrbhaJ+blG/OtuHOtuHOtuEtcptRhh61zVOqHxuL4Z4XJdBKu0lZJSteDhy3apNJKOe5Dp8yZEavWb0gdPWbNNo+ZPSnOQhMWGBznGcZw6etGSbeZiXSqrhuiYxilKZ+xI1RnIVdVdw3bkBJuGOs7kWDENJSMenM4blWDuUjWRmklHPcu5SMZHRXRcJAjluos7lYxkdvMxDpUZct8LhZ02b5Czluhlw5btUuYoAEOU5V3LduUKuG6OQsui3SKYpyqTcMksFFU0k01E1U15qIbrFNg2ARy3Oss4btygxilKiug4SdS0WzUSVSWT97htsu4QbpKKpJJcxQA35lurSUjXpzOG5VhvDfC7uSj2WWzpq7SRcILh3IMWWEX7Fdv1IUIpGKzESik1lYx6cdRfiZP151Q+NxfDPC1JleTdCNEleeFkRTkLWxc05SdE7CRZnVWWZurUJmAjnTytLsXdtsPAYaBrS9XoS661c6j5SxGSkjWXhLPHrp2C0MDv4VfJcdMZKUp60Xc4177Hd1lkK0+qkIjVZh43O2w8hXs25YHa9Qhc3EW3tTF1FPbNWIZhML1BLDOYt8wvEQuX0UwQWSgZGKrsQSSmpl8aPisPYtdqpelG9Zq/L8k/B5aJm3DiZdydSPjCCTI7dRm9loyYlqva8oMHlgUkpVo6ReNZ+ZZv7BUJI67qbj6lX2NNK7LXLXMIuLBVZZJKYe16rwcTSEJBCAt0uvEQuX0WxQuKaj+MF6l8lkISaYxs/UISPmGzdVeNiY+mQLqBusKsjW5/Gc05qmoaNkDR8ssenxab1Vgdp1EtFhJAsK5LpEtDGNZzNrZVdGOP09Q3ZCchYdJw1VbuM2X4blRmlEmeQj6WHUX4mT9edUPjcXwzwuUfJMndGjH7lz4WZnJt5UiUxYZsTLyyR0lGsZZ3M0x1Z3Bpp3Y46QhmEjIWWaRVcQ+Onu3gYA7g0Tembx1HyhZWxktp5XD+XfPcV9FCZdUx+tLS0fbGsmlCSLZ5Y6utJ2h3EzERIR2FWsnYZSceTBbULOi/RsSLOTnJ5tmdrL2qR0iRe7MHb+Ctkeq5raEDISDkhCJksLdZzCNIxXFTaQMylBuUpeyPxSotwxiY6Ln0F5CTs8zHx7XcmFTjHDTFei3ja02qLcO1RCxjlGwkipMt1cSlmUY1iKXiYVjGOS3CQYPMXfC086mYl85fM7sxdv4K1x6ritT6ctmvxrpZ4xdxrpW62eMdOJtgeeq6kfXJN5EN5q2No61lnM16OWkn1eVm7aZg4rktFsG8raZWQmnswna84KcqsY551XLMwFgiHtjXxTHEqhIyz6yRsnDwbmTk7QxmYttOQSsXhw2lLFIDqL8TJ+vOqHxuL4ZKSLeLYY6hRGcT91jX8PXbnHR0L3CiR3CiR3CiR3CiR3CiR3CiR3CiR3CiR3CiR3CiR3CiR3CiR3CiR3CiR3CiR3CiR3CiR3CiR3CiR3CiR3CiR3CiR3CiR3CiR3CiR3CiR3CiR3CiR3CiR3CiR3CiR3CiR3CiR3CiR3CiR3CiR3CiR3CiR3CiR3CiR3CiR3CiR3CiR3CiR3CiR3CiR3CiR3CiR3CiR3CiR3CiR3CiR3CiR3CiR3CiR3CiR3CiR3CiR3CiR3CiR3CiR3CiR3CiR3CiR3CiR3CiR3CiR3CiR3CiR3CiR3CiR3CiR3CiR3CiR3CiR3CiR3CiRcrMymGncKJBuokMTBTYMXqL8TJ+vOqHxuL4Zdvi8NweYlYVJKGlYRRLwfy8fHYZ2WIdqeD2QZsEkbXDKqYzg2A5ct2qRbbC5USVSWTCiiaRD22GKo1dtnaQznGMOLVDIKMZJk/T8HtkiWakfMx8j4v52NjzMLBFv1PB/LMI8rSzxDpTweP2jFJG1wyqhTFMUOHCDZLFuhcqIrJLpg5yJkUtsMRRo8avEvBzaYduoxk2UgTwe2OKZKR8zHSOfCQm42PMxsMW+U8H8oxjytbRDuVPB4+askkrZDKKEOU5Quui3S5uhdogui4SBzkIVW2QyajR61epCWm2sUH9irkiTnWKHUH42h6PUX4mT9eXW1RU3DsuoEAgysl1hZKEi5tupVDnOocpjENEOzPI1U+E03bpV24FXeqPIkTr1R5KClvVFmgtz1RaUFKeqYci6vVMKCqPVG8qLi9UbsBDvVGUiLG9UZxIbrqtl262F28k6y0YKKHUOUximhnZ3sYY2Cleu1XroVV6o7ihYXqjuVFLeqKtxcHqiskKW9UI8F1eqF8Ku9UbSwt71RvHCLeqMXwsL1RlE/7CC6rdZqtvDZ+5y1ZKqqKqYznGYN4d7FZzjGH7xV87FSeqOosWR6o7lhSnqh0xcnqij8U16om+F1eqEIK09UaywvXj1B+Noej1F+Jk/XnUlkzb16NjI00dcY9gjW2bFNxWXDdZssggq4VjWm5MDlwckiwXj3ZSmMavR6kfGCxxqrKSFRjVWjMXCNVSeimRqpTi5xqqpRUo1VeQFrjVXrAQMaq/kBOsDv4w5DkOxZLvnKKRUUXzbDtm5brNVkUVV1YtnuMfnGM4k45aOd4xnOa3HKR8YLLGqs5IU+NVatX79ws4sDV+2fCmRqu1FyjVVkhVI1VzIi0xyr6OELGqyD8TbEz+MOQ6Z2TNd65QRKgg7b4ctXTVdoukkospEMssI4S0ctHPcYznNZjlWEaLRGqtJIU6NVbtxco1UrkU2NVy4FxjVXCAq0aq6kRevHqD8bQ9HqL8TJ+vOqHxuL4Zds6KvGW6uIxrux0t4GlipTMc51gc51gObRT3ZGs7R2h+c6wOc6wFrZUl00ZmhoKc51gc51gHuFWOUsrQCqYuVYxjnOsDNzrGQeWoJ1E7fVUyc51gc51gOJqiOVELXUW6fOdYHOdYDqepDwzWzU5oTnOsDnOsB1Y6W8w0sNKZDnOsDnOsBzaKe6I2nKM0PznWBznWAtbamumjMUJFSSu0SbDCyVBg3f2SnyDaMl6kkpi5VfGOc6wOc6wFJagqKJ2+qJE5zrA5zrAcTVEcqN7VUWyfOdYHOdYDufpDwzWzU1mXnOsDnOsB1ZKY8w0sNJZ55zrA5zrAcWmoOk205RWqnOdYHOdYCtuqayaUvQklOc6wOc6wDXGrmL7rQNoW5VcuOc6wOc6wFZehKqJW6qIp851gOLTTnA99og99ogudkhJGDQ9DqL8TJ+vOqHxuL4Ysiiun7HCj2OFHscKPY4Uexwo9jhR7HCj2OFHscKPY4UHgofJH0dOtJV4wl4d17HCj2OFHscKPY4Uexwo9jhR7HCj2OFHscKPY4Uexwo9jhR7HCj2OFHscKPY4Uexwo9jhR7HCj2OFHscKPY4Uexwo9jhR7HCj2OFD9lGrOGtbg2rf2OFHscKHNcgnCDFjGtnHscKPY4Uexwo9jhR7HCj2OFHscKPY4Uexwo9jhR7HCj2OFHscKPY4Uexwo9jhR7HCj2OFHscKPY4Uexwo9jhR7HCj2OFCkPApJ4munuR7109DWRobtx7HCj2OFHscKPY4Uexwo9jhR7FCZHscKPY4Uexwvh1F+Jk/XnVD43F8M/41MnwTNXsKxvbrLNyXhKSSEWw7lQY7lQY7lQY7lQY7lQY7lQY7lQY7kwY7hQ47hQ47hQ47hQ4hLPHzav8AwyEguqvMy61VTjZJpJtPB+/aRzSGmlbVlg/Xbr/XIybGMb87Vcc7Vcc7Vcc7Vcc71cJqEVT+mwSM77/ifsEYtmZe8mpzNolZFjLyqmHLo8fWuYJENMlWU8Xj9ixJzLXwWxwJzfT1F+Jk/XnU/wCNRfDLW+dR8BzzaRzzaREXKyOZb65ThlZk5KAj7IdBvMBzJRzQ9tct3NUheDP52MjzsJ6Mfn8H8swj8NLLEO1PDnWKHOsUImbayogvmKVvQcWb6379ws4eS8LGuE1HVXc4y9qD33s86XEupAhRR9cn6y7ixrspWEdLsXzhq4+rqXwKIpdccxXIdXHIdXHIdXF4rcPExsLjGIb6bI2kXFzdVp22Y5eWjNYjmcy4ma6Q+l7IEcwYh5AizoKP2KR8ZwbF5STWX5UrgukHEMI/6eovxMn68vLWRj4WPtleSYWmYjZOreEBx1W119FXnCtjnCthG119dbxskknGQzCTkG0QxRNDOImSxJRdTg4+cZWRonCvUXRmdWOc6hymMQ0S7M8jVD4TTdulnjkVd6o8ifGiiC+YyCSad++p+/cLOFXTJ2zbO0J9Jq8yyyqu6g1IGvkra05AltJsOXMud28wphw6b1lBB20j45i+cNXH09S+BQHAvHqZwaG4OHThNq2JdIw5OcY4c4xw5wjdPOMdkc3xurEyrOWbyeMe3VKvRszDsYWjvpBeMQirxbJVZk2znOc1WWWbvbp+WOoPCv8A9exS6yljjIKv2VWQgE3UxJlWJNVqU6i/Eyfrzqd8di+GXn4t4QHHfGzel4374zbePQ35lSxprHT961Thro7buptq13ysroLN1kUVXCsa03JgYuDlkWC8e7xjJs12PUj4zxoogvmMw+my2lqqos2+iQkF1V5R24aQrluhZkC5bW9uR6vOFrsOtDxJSu7m7VRd0x3PxZ5mEO7Wrg1W1PbtWyMCjEPnL2Hj5BZBb6OpfAoDgWc4xgj1mocdTODQ3B3C6TZCVuVadRcRca01iueat4uLlW2y/PNWFetVfYIKvmshBUPDzNbgYWeQn5z9j3dqpnArzVRzL3T8sdQeFJGhm8ik3aYay8S4SgY542ZGnJdjOSnUX4mT9edTvjsXwyWjEJWP7aQQ7aQQZ9PYVm78bN6XjfvjNvZOCTEHGPVMU/41I1GBknNghY2IqULwZ3HMXoaRrFl4uWbV2RrERrQ/h7TFD2mKCDRq2EF8x+l+/cLOJaZ5XWcN3FbcPGZdV3gtmWhIeNJEFK7ujtFFJBJRNNVNZF3TXctExLiKaJ4ry7NnvISSdWl1ETRLI4YvnDZx49S+BQHArPMLunuM5xmpTCztPqZwaG4PP8C+mf474Vn4G1k3bOP9+nNMO8UeWRZFJdJWlxh1I6LZxqV0/LHUHhTqPYPMlaNCN8EJgisXGLJto6PZm6i/Eyfrzqd8di+GfXZvS8b98ZnW7SMk40jJ0an/ABoXX4xC8GdPmbTDV+zd48HDlu2I2k492bwVVSRIjLxa6ggvmOXjXDrxfv3Czh1KQjNdJRWBXId3UXbvXiHcRXoSNMUru6O0UUkEvBRNNVNZF3TXcnX4SaUa5VmnSijq2Ol1jy6jaThDKsnrhq48OpfAoDgUugdvKCkoHM+6mcGhuDz/AAL6Z/jvhWfgcv8AFhHej43T8sdQeFfT1F+Jk/XnU747F8M+l9a4CPdc81YOrbTneOeasOeasGL5rINb98ZtvHob8yo50VmFhjWxKbI5g8NHWGdacuVnSzdws2WjneHrExsELJyK8i7KYxDV6QPIRgskmq9kRUpNV4zgvmLWNzH9QPB+/cLOF1mruMbroWpsydkcJlduY89fgT1jBSu7o7RRSQS+hRNNVNZF3TXdghj2lss7cLneu041JVRvUWrVduxiGT1w0cDqXwKA4FMQLSVKnRz7RiwbMG/Uzg0NwcT3A6/wH6ah+LIJqKsG7OSzF+1YDZpLLyVkmTxjVV26WUrE+5M5un5Y6g8KY2C6ySCt2WWimc1ZG7ytSq0vDv58zKw2iyOpuHJ+vOp3x2L4Z9NkrMS+muTYIcmwQ5NghybBCtskGMLcmTp9X3DN07VzGuU0622cNK906OXNeviieZ1JqZ3VTFMQxSmMaIanZxihMKJumyrVwKszUaRInWajSUFLZqJNoL5i9kY8l9xnBsP37hdwwYN2De1VZwg4UI3trfeVLYWAiNxgyld3N2iikgl4SsuwiW3cOuCImmMy3CiaaqayLumu5uNI/gCrHqARSQq6FWrDl85esm75uyeuGjjqXwKA4EHLlBqhD2KMmjdTODQ3BxPcDr/AQq8aIGY2A0i/8Kh+KH67huzQmp7FrROodG8In2ggUVFZi6fljqDwqoz8RFxzHB2DFW1Rb1em2GFYwFrbFsFmlpRPFNJ+vOp3x2L4Z9Nrr2+T/KY5THKY5TFUabnAfQ8pTRV5M1plD1qHkY8sRIMq1IHj2NaYKe5xo9zjRIo16RDSJq7VT3ONHucaHxoGQTRhKqkoWRiyFryiatuXplZXVdOlMqMGDdg38LLDZUl4KGiCsCld3N2iikgl425w2bWfNuq+Fo+Rj5BEWa/KsnkHf1XThdy9qz+SSblJXYc3utznbGxm2Z3CjN6ybvm96WfIxEBwKYayjptYoayItoWWhpBDqZwaG4OJ7gdf4CJBhW3cjFNVomX8Kh+L4EimZJQPWTd83Vo6m0h4JrFFun5Y6g8KPAwah1WzdZBrHR7LGa7A5ySOj01OordDlon686nfHorGiL+myUeWlZrtpOjtpOjtpOjtpOitxi8VC/S9ZNX7XkWrDkWrDkWrDkWrDkWrDkWrDkWrDkWrDkWrDkWrDkWrDkWrCLr8REGUJk6cIbEafwdInXbRsoygWdhbHtMHWpplJsvov8zsDxMfGmjqjINXkeJtmuylmjVd4593aV9oZsaGgX8wwnGLJuds08OpT5uaPgOBW2wOoNvFyzOYYVR6mZx1M4NDcHE9wOv8BEsjMMZmMbzr6R8Kh+L9d0/LHUHhX09RfiZP151O+OxfDPptdUn5Cf5GtI5GtI5GtI5GtIqjF1HwD180YNucayOcayGrpu8b+F4lpCKieebSOebSJC0z0k15Fqo5Fqo5Fqo5Fqo5Fqoh7lJQzbuXOjuXOioTjucjZqyxsId7eKvItaxaUZQokJBpGtFjvrk9q9iknEnLRZXqlfsDaabeMrEunVmWiZuuvanDvI1mJSCipYrpOuU5szg0lcTb/wBik0sPqg5jJNnKMxISC5l73HoMK3AcCtMY9fnk4KRi5CsxcoR71M4NDcHE9wOv8B+mofih29aMkYW4NXTsTkuSKaK2GZUUrlkVeLXT8sdQeFQhbbNIREhOybKiLzL5si6s1ie1SVknB+ovxMn686nfHYvhn02uqT8hP8jWkcjWkcjWkcjWkVRi6j4C/fGZmbRjJBvOkkBT/jXhJxMfKocjVYcjVYWiqQDCJ+mCo8TIpdtIIdtIIQcG0g2lonPb29TsUVERFRjCSEOwfuEXEkxmbFMqqL2ZzJHbPTxk5mtmsFfc5c1+wNppt9U9PNYVrAwLpZ3Lz/vp48yMUuQ7mqu2TGWr8rISC5l4+PQj0OpfAoDgXj1M4NDcHE9wOv8AAfpqH4pzkIR3O1F8jDt6g0dIWKDcr3gp9uIMpzS90/LHUHhVIlIxnH1Z613/AKcrImgalJsI5aorEdzvUX4mT9edTvjsXwz65l8uyJY2z93C0GImo4gv3xm28ehvzKf8a+m68C+mofjeNikJUk/gtlkZmoSr6SZP2Dd+3ftlpRtL5WaqOnCNcQeM2NbYQclmsiUiFXha/YG002+ienmsK1iYdch5yULaSMmrGyNGjpKbRicuNvHNFIVvHx6EegOpfAoDgVisyrRZOxTKakDNElW/Uzg0NwcSfUKFdxsX1BhWcb3LggzcpvGgedQoVm77lwQgrxExqJZJvLV0zlrGVzmUgb4bLuZSMQk2qtOliqQNcJGGun5Y6g8KUqddVUWhYpaPjIOKicP4GHkVWrRszQ6i/Eyfrzqd8di+GfXZvS8b98ZtziKxIwTuB9sp/wAa+m68C+mofjeL6Leq20rVmi4qkW9jkw/YN37fKz7UUSRpqTVqhXkCx5nzetWWTcyUjHkksV+wNppt4T081hWsdHbrmy2aSbyGY0yTRw3b2dukVG4opqv0UI+PQj0PDqXwKA4FJ6/uQpWv7n1M4NDcH+iA4EJ/jvhWfgb6QScQQh5BJZx43T8sdQeFfT1F+Jk/XnU747F8MuThdtW/f50e/wA6ISbmlZrxs3peN++M23j0N+ZT/jX03XgX01D8bxsuDv7K8jyWS20V25XjPB+wbv26SSOZDEUsRdFFzaHKuXNueV+yPSvpuGMu4r9gbTTafn2sK1hodQriyWZ8m/IV3UHi6C9cXUizu1FCEK9j49CPQ8epfAoDgVirSrtZOuzKikDCkim/Uzg0NwcZgZzGMQM5nHsE6Ij/AOWCbumrks3CTSs17BOj2CdEA3XbUmt1ok7EtajFOn/tftFztEzJMJDmmdEdZJpaQun5Y6g8KlrZCxDiJmI+XbiXtUNDrxM1HTCHUX4mT9edT3LfEPHz65GFpkVHtW8IDjqs8umrzC4HMLgSL17KH8b98Zk29ZlHibKuMS0/OM1r6brwL6ah+N4zteaTRGVUZMo2r5iCsfF+wbv27yNbyy0k1k52UXcKzB5PLFsSMl06cnOwLk60DAO1HUpNpW1ONyyzlJdeAVYtpKvyTWMawzmPj0I9D6OpfAoDgXj1M4NDcHE4U54WJtLNrF84xwmJJGamVlmEbJc4xw5xjhT9qZhJ8NojVJ3Wq9DKrz85+x7rxURPFbp+WOoPCn7ZvBkpKmHc0HrJrEFpqm+WHqL8TJ+vLzEbjWovhl5+LeEBx361kUV008Sc45eJzMFhAqRUfCySa8VC9y50dy50Sl4lpRpGOVHkb9EbeJaOJ3LnR3LnRUJx3ORs1FSb8/K9jHTcym5fQ/YN37d+3cSTWUOpE5VVa1Ju4j20CwpJXxZW8JvVJBqxa2Jigu3tCEUoq9Ujmq8O2j49CPQ+nqXwKA4F49TODQ3B/oVub8zzN1jPZI+3KrSEVaWcrLS1qM0kWdgSmohrKO2keWbmSnh3h3dltENJP5DladEdW5pGQun5Y6g8KeRdpZySdZm9xqMVJxce/i7O1k69BP2r3qL8TJ+vOqHxuL4Y+YtZBryNVhyNVg3ptbbL/wDBXomSh5G0xcpMZITBCeEtGISsf20gh20ghK9OGqbJmva2bT3C3j3C3j3C3j3C3iJ6coKtu2kEO2kEIODaQbTwRboIfU/YN37fCzwoy0b05GrVZw8cScYhJN4uLRjkbVVV0lyoNrmgVV8ROPj0I9D6r9HvX8K1lb+0a+/dQx791DHv3UMTR7rNNotFVCM+iIkZxpKO4t3EMXEvDEdxmW6d/k5FJU9WypsZYpcVcRpS4S8bhHSrwe6X0TCF1mkfp6i/Eyfrzqh8bi+Gf8kDIS0Ri4LtVYtE+Tpf5D9g3ftyN2q7/wChZBo3ko+PQj0P8JnGsmKj5g0kG0XVYSKcJUqARfy1ah5dQkOzjYdoU/tO6xYQK7cyn/H1F+Jk/XnVD43F8Mm5P2mLStViVT5msw5msw5msw5msw5msw5msw5msw5msw5msw5mswi3czFt0ol0k+5msw5msw5msw5msw5msw5msw5msw5msw5msw5msw5msw5msw5msw5msw5msw5msw5msw5msw5msw5msw5msw5msw5msw5msw5msw5mswfy88/boWyytsczWYczWYL22yLZj5aej0OZrMOZrMOZrMOZrMOZrMOZrMOZrMOZrMOZrMOZrMOZrMOZrMOZrMOZrMOZrMOZrMOZrMOZrMOZrMOZrMOZrMOZrMOZrMOZrMOZrMOZrMOZrMOZrMOZrMOZrMOZrMOZrMOZrMOZrMOZrMOZrMOZrMHdzm2KJDYOTqL8TJ+vOqHxuL4Zdvi8NweStjFkrHW1i8V8JWyMY07O5sllCmKYolZtlFlRu7UyiC6ThISMm0jUS3hvtGT5s+QDt43ZIHvDfCkZKs5NIKqpopuLs0IpEzzKU8M5xjD25MkFYqzMZFTwk7WxYqx1uYu1fCWsTGMO0ujNVQpinKJWaZRZEbu2MougxmGLB+4QcWCwkYiOtDBgmxftX6AdOkGiCl4b4UjJdnJpBRQiSbm7NE1ImfZSnh/oPrixbqxVnYyCvhKWliwVj7exdK+EtYWUYZrdWaihDkUIJSZZxaaV3bGUbOUHSIfyLWPQ54b7RhINZBAOXKDVBW7tiqRcwzlExOzvtA56HPQ6g/G0PR6i/Eyfry32dxMxTO9PEWk/cXUjERssurT/AAg3CjmJWPs0VVDqqCouFFocS7hRxJikOFDIi2OFFZkUpwoWQF2cKZdisOFEZkXZwoRmI5wo2fi1OFEIYEOYh2iuVmssudtGeEA4Ucw5zahFllF1hT3Ci0SJtwo4lhSHCmSP2Dd+3nm6bOQFMcKEkhd3CmVxW3CiEyLo4UTYBk4UbOxaHCiEMCmMUzJYy7KTXO3js5znIrrhRxDZzow4XUcLimuFFYwT7hReYFIcH0i4OFFJYU5wdOVF3cKa4r7hRCYF68eoPxtD0eovxMn686ofG4vhl2+LsG5HVekI13HrsI51ILs2pGjXOMZxMwziMcNmzh0rDR3tseLNCuGzxNNRU9aiVI1kLbCrqL4xnOanDLNCi1w6z5IxTFNU4VfeRYoo8kxVSVRUrkKu8diWYYkGDpo5ZrRMQ5k3BCFTI5QI5byMY7jl2Me6frsWhGbMTcK4jXLduu5Vg4322PFohXCDshDqHrEQpHNBbYVdVXRnOanCrtfC1Q6r9AxTENVIVczoWCLNJsFkVUFK9CrvnYlGJZBg7ZuWa0VEupNwmmVJNdEi6ElFu41dkxdPlo9mRiyE7CuI50ggs4UgYzMZHi0wrhJ2Qhzmq8QrHtRbYVdc+jOmpQq7cwtMQrINjkOQ1VhV1HQvXj1B+Noej1F+Jk/XnVD43F8MuhTGrEfeoxswNf4c+C3+GJjuDEjuDEjPUCIzgl9hU8dwYkdwYkdwYkEvkITPcGJHcGJHcGJGL5CYP3BiR3BiR3BiRm+QhjdwYkdwYkdwYkHvsIfPcGJHcGJHcGJB79CqYx1AiC47gxI7gxINf4c+CX+GJjuDEjuDEjPUGIzgl9hU8dwYkdwYkdwYkFvkITPcGJHcGJHcGJGL5CYP3BiR3BiR3BiQa+QhjdwYkdwYkdwYkHvsIoO4MTgdwYkdwYkHv0KpjHUCILjuDEjuDEg1/hzYJfoYmO4MSO4MSM9QYjOCX2FTHcGJHcGJHcGJBb5CEN3BiR3BiR3BiRz5Ca/cGJHcGJHcGJBr5CGN3BiR3BiRnqHEYHcGJHcGJFqtbKXiEcZwj1F+Jk/XnVD43F8Md32CaO4qejJZrFTMfLkmLXDw62LnCGi0OoNdVVlJ6LiU1VUkUidQK4deRu8JHPYayRU0GE5GyLrOcFwlZ4hdoTqLXTB9ORjFgaQalj+4tdDecjl4qKmI+XbyV1go11GSjKVay05Gw6ZHTZRt3Brm2TUTVTY2OHkHsjORsas6dN2jdvfq6uvLTsZEJJumyjaKmGEuipORqcrLT8VEZM6bEbRUsylmsrcYSKdRs1GybOKsEVLnczka2kZmdYQqBOodeOd9eYNg8iJ+MmEFeoFcTXQXRcI9xa7pj5FnJNXM5GtpEO77BNHbW0Q7qN7i10R75CQZy8s1h2KHUGurK4zjOMWWGNJPHSTNqTqLXTCSs0VGtEuoNeVVm55jCIMbzAPXUzZ4iFPDWKLmirKkRRJ1Hrxi5m4vEYyvVfeOhLXCHiHcZc4aTcxsk1lGcdKM5Iuc4xha/wBcSXbuEXKIfXqvsnTF+0kGokLxAMHUfINJJr1F+Jk/XnVDOMVuKzg0Wwm5KMnKuklMS1DRTQw6ThIM0u0eumE7ZJd3B2qKYJ1l8xayDS5vnDGPjJBzDzkM4UlrlVWTZhZ7qaxOjxTh03jkrHLkrS8WwU6ebuq5pzCMvRIqQnXs+5Tcu2NngpB5DPen2qoMLO3digUXb053s60r7l67b9OJRJw1jbIgg4a9Ri4zXrc2b4qkCs7drVEuV5CgJkSayDBq1vjBZ2+fUxEsgl06xogHhoKsIyLWXSLMrOmAn2DVvb7owk3ab91cIFNtNyMdZK1gkvYrE5Wg4+kpJpVqrWGWj4msuHzevJkl4+YSOc6TCbkoycYJOZcyLG8oRMBKGlojqDnOK3O2SXdwc7ISRWdWkI9i7snx9pZJdKt1Vywi6izavra96gqqJN7LOSMs2fOFou7QDhWQukmYxY2v2OXZQUZBKylNtMtLPIVpnJmkpGWXNqbvpyNlaAYuazQjFM2sec4gGL10wrNPcMnEFnGM4kM5rDLp2RP2cPiFrLDp4VPMb1F+Jk/XnVD43F8MxC2yPlImBmGYqkPYox/Ya7ZZOXfQ9vlYxeIu8g2slcmXUfmPkJCBUhrw5acsT8VKRUDMZlIWGtTWwhKsvCNkYm9px0nWpNKuQjCULBYh7y2bxlPPGStgg3clJ4gbLEu61BLRScDDOI10aquFp40PejM5SqmVr9ljXErCTdeszlnJQy8zBLQl1kW1YrykGb2GWb2Cow1hinU3DW11O1eGdRDZnATUc7psPPw+JSu2p3OGhbTIu7hBu5uMsUPaX0xNxLyTjl4C1zOVIW0spmJrT7K+Ie8oNYSJSh42LhLvDta1BniGsvDOH0uMQtsj5SLq7vQaHvOGkRGpRUdaYlxLwziIu0i2k6u7SUYwM47l5Zod7GN4m9oRytL/APnKUpS2yGfyrZzBWyazJ1+WQl4WBlCyjlLKzeOiL1GMUqeohX14K3TBSEKQk1ETZpGJgZc8xIUt1vcbGs4to8apPGiUJdmTSDiEoeNzjTgkPcozLqmyJK9AMXUfD4hrfGKVuDNDtOovxMn68vc3GS9XYX+rIse4lSHcSpDuJUh3EqQ7iVIdxKkO4lSHcSpDuJUh3EqQ7iVIdxKkO4lSHcSpDuJUh3EqQ7iVIdxKkO4lSHcSpDuJUh3EqQ7iVIdxKkO4lSHcSpDuJUh3EqQ7iVIdxKkO4lSHcSpDuJUh3EqQ7iVIdxKkO4lSHcSpDuJUh3EqQ7iVIdxKkO4lSHcSpDuJUh3EqQ7iVIdxKkO4lSHcSpDuJUh3EqQ7iVIdxKkO4lSHcSpDuJUh3EqQ7iVIdxKkO4lSHcSpDuJUh3EqQ7iVIdxKkO4lSHcSpDuJUh3EqQ7iVIdxKkO4lSHcSpDuJUh3EqQ7iVIdxKkO4lSHcSpDuJUh3EqQ7iVIdxKkO4lSFyuNfla+T9eJ6vL3ljyx5Y8seWPLHljyx5Y8seWPLHljyx5Y8seWPLHljyx5Y8seWPLHljyx5Y8seWPLHljyx5Y8seWPLHljyx5Y8seWPLHljyx5Y8seWPLHljyx5Y8seWPLHljyx5Y8seWPLHljyx5Y8seWPLHljyx5Y8seWPLHljyx5Y8seWPLHljyx5Y8seWPLHljyx5Y/wD4/wD/2gAIAQICBj8AVmUXGYkFjmnN5seUvC0ToHlypmeNHlLwtEvDWfOaMba8LRhbXhaJeGs+c0Y21HSaMba8LRMW12mjy14WiYtrtNGNtR0miXhrP4VNHlLwtEvDWfwqaJeGu00eUvC0S8NZ84x5S8LR5S8LR5S8LRjbUdJo8teFo8peFo8peFoxtqOk0eUvC0Y21HSaPKXhaPLXhaPKXhaJm2u00Y21x5TR5a8LRhbXaMT8Ndpo8peFol4az5zRPw12mhwEUTGUE/GJeGu0YCm0smNOVt+KZYVUy+qE5zbmTGZOTVq0p8zcOE2Lgiak5ubkfVpjOE8fhVLlFYCkHPZiCBSsvlqwtKyNU2zcTyvE4sTCB8w5fnEsuaN7/CHJxE0kVUoJjkQZAza2wyH9UPvikAUqUzubBJUkMkkzas7qwRrTTCnO0VyXNWLgE9KfCIbngypzpZvqasIApDqWrMvnra0MRqLNcNbkcqAzLILLeznf482JDIFnknndqFLCqQWlCpzuM1XG50IoyZxMxNfqibVVSkubVUUZqeNCLky1YTWBnaBlTLSk0Io3znYZuTfghhnAsqMVrWXwpi2uSdIaedq60FWWohiqEqSirhjLOghCTJc060OpxBUEUgyrn0oAXWK7JiTipFJ1c3OXi50CtSVpNIlVrthyc2HABFSCCFBZZLXNacjLm7MAqpADqchGTSNMKwbAMJLLJyokymupjOW98aubCzBMjxSaTvFl1oYkGTAjJLXq0dVYK7+ZhTjgq6NzVhOcI6XWhOc0UqwUBQ2SrfiqsaNOjGmNnvRpjZ70aY2e9GmNnvRpjZ70aY2e9GmNnvRpjZ70aY2e9GmNnvRpjZ70aY2e9GmNnvRpjZ70aY2e9GmNnvRpjZ70aY2e9GmNnvRpjZ70aY2e9GmNnvRpjZ70aY2e9GmNnvRpjZ70aY2e9GmNnvRpjZ70aY2e9GmNnvRpjZ70aY2e9GmNnvRpjZ70aY2e9GmNnvRpjZ70FaxjyZQzVg0iejCc4R0utC56SqbV70Gog5gyD6/7LL9U96fw/sj80wnOWOl1oTnNFSkZKc6MqcDfbGVOBvtjKnA32xlTgb7YypwN2oObkMjm5P34ypwN9sZU4G+2MqcDfbGVOBvtjKnA32xlTgb7YypwN9sZU4G+2MqcDfbGVOBvtjKnA32xlTgb7YypwN9sEAr8wG4IlmS+TQASsviQ3BGVOBvtjKnA32xlTgb7YypwN9sZU4G+2MqcDfbGVOBvtjKnA32xlTgb7YypwN9sZU4G+2MqcDfbGc1sfPDrR5lr6dKMqcDfbGVOBvtjKnA32xlTgb7YKkpiJZGhOcI6XWhOc0UsCZieEASbH6h2v0DFWcNEuhbSq1+VGMUqwUUhslUeYNjvR5g2O9HmDY70eYNjvRpjZ70JNgwYy0Zb0Gkzkaf1/oZZCcquVxe9BJGaMGTftdyKpjJV0eNAIGZkVda8exGWYnKfwbiT636BRAuABzpx6f70FiLchzoB+O65WrNY4zzKaeLCAV5FnLNLfWInMzpaU9IfiJl5UGZJ0cv+sTcLCCxC4c7dTnCOl1ooBFKmYmKjnfXVCzxNO9hrNC/MRpLs9+CZqZcnvbjEZQDAXiGlTmYfuRarkZqTjkqzYuAZBk2v0rfO6rRcGOlPJLeXdOWQyy0vro60bxmM0endTi8m4sAg5NFzqS0rV9eLEqfwZ5Zna/1cEk5dJxrA6NqwsbwkMV9O0nK41xoGWRyVaX1VdXdfmruP8oHyiQuKBLLgYzbitL4CfWjOuKvzEutAncQgz+A60CYqUox+M85YZigVqlGSWFa7h/V96G+UTnnGurOztbLb4sKrk4AYzlUpdMYkpmodacaudjHS60H5iJsoJyRoDcO4/NMGeWo7+t86eNCBgDgMvyggCQoGTnN+lb53VbdyyE5T5XEETObSelYbrW2gggDfdci46N+00cjfbWvNxm5O5MaG8day3HSAAJ76Llr41+60TGdUceNfbir/AC4lOYyTy0txCetuPzV3H+UdH/Dcfo9aF+e4pH8IfetwZknR/wCIm4f1fehvlE5RiISXGEdLrQfmN0FACZ63w/djFU4R240U4R24MxnFMg+MoLcqrRef3ItK2Skmn6xTDgZFEhtfpW+d1WhwOOYkMm+eqsUkYylRqXbfI/mLAIM8M1ziKNa1fWABhaGT+Z/29yTMAfrMTGIMEHG0co/h9yCSZYYuMFCatuwONAVRjKVGpbT+Zy2iRybx6rQ/NXcYgzEt6B8hHR/x3JjGE6UTJIkCMgbDS0WqgyJEjxVWdJ+NC7h/V96G+UAhyahnb9Gcq9GAPEqWTYn45utCgmSeIJHjaOZHS60H5jdAC145I8k8MeSeGFEpSAw3M4TlE7YWVNMiZb8aKbTdmNFNpuzGim03ZjRTabsxoptN2YUsFAUzwJ+EuLAAAWrKwEujEhDVauI3qOXAUnNIqn/Hb47rhSMszUMZ8WAfj8IOO/Kje5seEJUSrq//AF83zQ371MKEYqWNRbKX5cSOMOJzkohkqIaWSeGzowxwyb2ED5COj/jAmtQnjhVBkCBPNnCdLcw+e4f1fehvlGAGMZBwQmGsI6XWg/MboFLPnZEy/daPKucP/bjyrnD/ANuAQJUpkb6l34pms5y0Wywp+IBghTJjkMeZ+88MLsrhksic/jcaNBdkRoLsiBS0hvYxO401+cUVqFljUv7s6oWrfyN9sSkaZyVNa63/AE4IczUHFhq3NVLC8mKH0t47zjtbhMyGJqqGVdWAo3okijxN95aAilGkpOlPSu76315USkaZ56a1pviv8uJD9Z/wEOBxVgnGZkZ8WniwwHw3/rgfIR0f8d1OlGUA71UZ7LOeGOO4f1fehvlFvOOdVXnb1P7sWgWMmmWNW/zot4zz5T+oPhHS60H5j9AkQHmZqJS3ofmmDnDSJ61MLzRutzV6+6u40yQKsnIp3oAbLvzjLKeFetT/AA+9HFK7Nhf+q0BCCFOKj1FlpX3bViljjqsNG4u5SullZjo214zQUAJGVx6jg+uja0T0iw6N9f8AqrHywq1lX+HEhD81dx/lA+QieE5SyQwaWAhSu+YBww+qFbW8OfC1uDPGVJyfzE3D+r70N8oOaMcuEU0iXwlhCc4R0utBn8RvQJEgU/LfaBnHKN+N/gMECcz9R3H5pgtNZVVaSZJ86E5o3W5q9fdXcMxNSasukFXNt7UKJzwiRgb/ABZ6LN/M6sEGZmcePffi/wCrghzgMWYZq2m1Es8aKJZ38TUp43P5EAIcCcGOctx9dL3FqiWIkenYf/pwd4nSlohv5fKiQ3H5q7j/ACgfIRIuRhOcEq1ZbNlEnYKVO9irQAHJnOFQioC2R86SnFhmCUmpVytx1424f1fehvlAUyzp4AHAc/WiakD4k52HNhCeNLgaOl1oQDjNAZSBISxgGa4H4ns/ols7xJ5NWrm8TcanSkZfONL++G8SZmBkFX3YyNstGRtloEmkPhOJ3GmvziZntMICznLckYyyJza9anic7lQAokw0V1bI47fzIom0/wC+vj1QQwm5yjVvrxh/MjLMjCvWC/w+dEhusSGIKjRE40X2YZQrTI4sD5bigErMmdIrMZzBKaZgjSqgzaRDMuAy06q1RUTjQfq9VBBmSdH/AIibhkJ5MnzhlCvM8loynfwngtXFgLMinIZ50IBxh+2Ol1oTnNEjOcp4Bm+7Gtsv2Y1tl+zGtsv2Y1tl+zGtsv2YoEzP4q/4bcZc2NbZfsxrbL9mNbZfsxrbL9mNbZfsxrbL9mNbZfsxrbL9mNbZfsxrbL9mNbZfsxrbL9mJGew/Zg5cdalp9LNjW2X7MDLhrUt+7mxIT2X7Ma2y/ZjW2X7Ma2y/ZjW2X7Ma2y/ZjW2X7Ma2y/ZjW2X7MTxw5D9mAxBJGQ0N2YIpwOUUN2YEiVkKZeGWWXyZYyneyWqcmdqpGtsv2Y1tl+zGtsv2Y1tl+zEzPZfswnOEdLrQq1GYZtVuzBpM8wb31/2SRimeHG1ub3okP7G/NMJzljpdaE5zQajKaD7zRpCNIRpCNIRpCNIRpCNIRpCNIRpCNIRpCNIRpCNIRpCNIRpCNIRpCNIRpCNIRpCNIRpCNIRpCNIRpCNIRpCNIRpCNIRpCNIRpCNIQwDAkgwnOWOl1oTnNAEwZlhTKmUuXAaaqdYnIAIMyBITGa2fl2IYSGAUr0uNFJYZRNqThpautC5CCxQnJkGGbqxSBhI4kHSlqw0iGISvEFJdqFpGVZ4LV1lgb64AmTY1a3FgAyzqsJaNPL14yYGYUY6S8rRzoNWMlr0Skjxc6GwFSyORgKW50NTIBFqxE6vpTAwwbBcuX620YRsJswDfranNiUtKdGkNHjGFaarMTYne/VGI0dLBs6fF4vSi5ICaGSyzsIAJkZ76asvgrNFUwAJ40lqpZMzVi2ZhawScPE4vFhDLSkWMs2U4WRpqOWmv92AQMJHELVkPOWmC4M82oGGnnyAlJaDU2rTDNMTE8Bq/VnRKoaNVRWmjtQ7kjkGUv10wRMHFRVSRpfy4JO8SPnTyYwk5K1SpokevDKTOQBnSUy8loM8Fqp0dnOqi3kzxM8ESBlhUTIv/AHLAPxE8IoYgzBJkJU9LXiYIAGUyr/di0x3yP2x0utCFBXnNo50TpfCZAxkpaKKXlOcYi5iJHLnD64JofOFJEjTKNG5MZDnTEDNfNNW/i3KgTRsJ7x1s2CKbhmKd/R+qAKbmAlMVTlBUW2AJByHV/wBGJhHwnIY0rPiwBQ0lM8hggo5mKcatGCSjiYpwHwjFXyUmVWcOVAUIwCmYwMBKbkgZ784UUPmzpwO/ASl5KZiGBRzVpTnOGzXNeXL/AHROm5Oc6saokFcZcRVNqstULJHWkSFMxhAWhpCW8d7OgTVxLIQDEgrj5VZ0+NFFDUypyb0GauThiaqhLiwRQ5qykgzMSKO2EsZ5IKlGkfqjRcmYNWdVmxII2OWYMSoc4UidWaOTBNLknfaZMVUPlqlnU1fGUEi22P1H92J0uDkmsxhAARpDDIYlQ+SQ0s2fFhRS4pwBE5wgoYKpG9HS60a3+y0I9WPVj1Y9WPVj1Y9WPVj1Y9WPVj1Y9WPVj1Y9WPVj1Y9WPVj1Y9WPVj1Y9WPVj1Y9WPVj1Y9WPVj1Y9WPVj1Y9WPVj1Y9WPVj1Y9Xc//aAAgBAwIGPwBWZBddiVLtmtJcmhHkrtPE/DWXhSpm2WvLHkrtPEvCWfwqaJmyo6TRMWVPSaJeEs/hU0Y2kHzZombK7TRMWkI5zRjZXaaJi0h6TRjaUT5TRLwkn8KmnHkrtNEvCSfwqaJeEsxvVNHkrtNEvCSfwqb7Y8ldpo8ldpo8ldpoxtIPmzfbE/BXaaPJXaaPJXaaMbSD5s0eSu00TNpB0mjyV2nifgrtNHkrtPEzaSXxqaBO0gnymjyV2mjC0h6TfbExaTaaPJXaaJeEk/hU0T8JZfGpouBbagkCTBmOtEvCSfOb7YVDZWTkKcW1oplm1Uy5M4t85+ruaONROI1a9KrmbjZs3Lgialppm6NzUpz4zhUJ/CunlMussBCpz2YhgtKS5upC0qQwcFs3Obl+LxOTExbFzMODfOKcWzRvdWLhImJpSVRra1KeJDSBm1phkbnLFwkTFKgUo1sVz4utBZlLBrYFvNLZ2ds6sEEZ07eFM3MlSqm7qxdAnpzxnvryoYDL4imVGdLNxF3Vi2ApDqW8Qy3s7K+tDkHQQFMDpZ2hy82AzKFCS3s+5c4x5MSGiqE4iYr/AHc+ELiqQSlGViHnpPVo1c+EUaOcWmKl5M9GJuWrpkuZXUyM9OLVxbXAAzLiVSYDWgTY5hIplpUvgYRQcrZ2GbgtWcOLBVxnKXRGKG4tM9EL92LSCYmVDzzsKdeCrLUwZlQlWZETNzqc6CEJJCZp1odDipRWFIanxKulnQAuuVGTVbjRK4KraE5FJTPVdTPgG4hKlCFFNWu2bycyiLigEVW1GT6cmCFBZZLXNKDmus12IDKpUC4jaLAZuk1EI4bAMsllo8qJMh8SpyWpOQ1Z1fMhQVJCkjRLUNqsyaywzEGlgVmBTr1DM1EgrLO/DwpmxpVJ0XdSLfOX9sdPrRb5z9WKFYKAobRqylor8QaNOj9fwnHmDY70eYNjvR5g2O9HmDY70eYNjvR5g2O9HmDY70eYNjvR5g2O9HmDY70eYNjvR5g2O9HmDY70eYNjvR5g2O9HmDY70eYNjvR5g2O9HmDY70eYNjvR5g2O9HmDY70eYNjvR5g2O9HmDY70eYNjvR5g2O9HmDY70eYNjvR5g2O9HmDY70eYNjvR5g2O9HmDY70eYNjvR5g2O9HmDY70eYNjvQV8QGfJl/jDN4gNIJlR3ot85f2x0+tCfiJTU0hQe1BrYHMGQS1m/ssv1VatXF/slzmmLfOWOn1ot85+rFaFcVC5wO8Yy2+Bu1GW3wN2oy2+Bu1GW3wN2oypwN2oM1ApMmzdH/MjLb4G7UZbfA3ajLb4G7UZbfA3ajLb4G7UZbfA3ajLb4G7UZbfA3ajLb4G7UZbfA3ajLb4G7UZbfA3ajLb4G7UEApLfYBtkZ0U/hyySpbtQASkt5iG2TnRlt8DdqMtvgbtRlt8DdqMtvgbtRlt8DdqMtvgbtRlt8DdqMtvgbtRlt8DdqMtvgbtRlt8DdqMtvgbtRnPaWfGmOtEhcs/Tpxlt8DdqMtvgbtRlt8DdqMtvgbtQVJSTCWRu1FvnL+2On1ot85+rBu2mtqqsbf4hcNUFVtVH48MxuWZKCxk1zV/2X6BMVZwxVrlstpVepyoxMopRwopDaNeUx5o2O9HmjY70eaNjvR5o2O9HmDY70IC4YM1OjTqs3xg0mdJpPO/QNu0CQoqusmLC2unQuu0JaslRdkW9tfXCz75NLwmn5XubfE+lvw6T4s5eFL8TZ6sPavUm8VDe4ut5PsLWlT/ADPc3OJ9LgS4CFcV2mfNZrbHMrXUq5X6Bt2wmaA2fVv82PS/fguRakvwrgH4jdcrXmscZ/h0U5KeNCAV5EmBms/KXnR7Zbyi6hW/mXQLmCjN8RW1lhHs2LVpvHtLVbtpbanOzakXcLATIll+uCxCEDnbtvnL+2On1o8NWFCNNalqbP3qq1zc2LkyCfGbIJenai7zG+7Gkuye3BapTLknt7jkZQpMD3v5vQ9v+ZW34NvNla8bw66urFmuRmjNnaNeZFwDRGAlk0v0rXP6jxdAnp1ZCMKVXdFq2Qik0Ndea21ZtFK9Vn0YpUNaFojxHkPzX9P9zTT4hp872V77n+W7XgoLEPd9uplavnU9/wCxfUf+J9K/znwFHjUrXo+H4lNP+ZCmyqkqS9r27NUiPr+/99c1+R9PDIYNeW6xpuSH5n+o+5lT+FV5PsrOx/zDauEOoNC3Um1uvWt18ZNHducxdx/lCgCZIAAESX295RKc/BuNjA8UNaqnT4lprdVOWmuCLQa6RiRbtNcl86YAPt7zKZz/AALiygOha3dtJcGTPRpqjrTxoK+5uM4W4hAYZs66f3dHcbo/eh/lBM5ufEDSfPGnpWuLCpcJwVZtOkOjXLedElM0DpTjVzs6On1ob5iClm61tSaiq8b4wQfcOQRI7jblzmt+yCh9nY/J/livi1r4n5bwPM8/T8P/APnhAwDClconvQQBIC2uA5zfpWuf1H3SloEqgrusgqZba6dC61MLasqtytNH/wDH/qnt8uZV5Xu7X05C3i5YqGX211h+JJdP2Hv05Oq/0uFmmtgE0W5tTJmqoSrRsxKKlmbBI8S3NgtIaqh6dKw2ssNeDlSVVfcXVGdbtt5fsv6enL/ifS2bN1Vt0JhbJ/A/pntj6l7+L7u7xICXAaHFVl3FLPaJpQuurVyty5zF3H+UWecn7dz2v+1/5UX+Yv3twhgGBf3eBxGvCFEVT+YtYqoXj7jdH70P8onIYxiItgCWcv7Y6fWhvmN1l9y1xLYQsDZUu9dS8W3ezejEje9z/u7n/wAWPO91/u7n/wAWPcJamyA3Ft1DPZBoVLm53Rg+08O/4v5b8tPwvw/E8HwstWhVFhGGFBJU8ZQkXFGRRSPqFWT9K1z+o8XAN5zEhgBpN1VhHsNTaBBF+S/mPYe5lTT7inzPaXYc3gEJYNc9srU0XtT3/sH4ja6/S4bt0zUymQKPGpzZ5up9/ckzhT8CYmDMGFvWjmrOUxX4JbNqCtqfchfCAc1VJ7Zmqa/fza/fe+f+EmpDv7hq7RJr9xJfH997kZq2va1eX7W1Ejo6rdVoucxYmYcqQRLKIX5COh1oxia4iE+TQL1q69m4gYB7WnS2lKCl73N+6iPVRdNSzTRbPXS3G6P3of5QpFwksufkPh56LVydKAPFqSTYsRpZmFWtCKWkniik8c5v4fWjp9aG+Y3XZrw9uDbK1sK556Zkf+xT/drH/sU/3axeYNWGuOwcYV1Pp9LcAYTlkidpVppCyYld+ritGim03YjRTabsRoptN2I0U2m7EaKbTdiELBAENWaWJ0aeLACqEr0mUU9HpRIYSiuyK2bMNnSW8jarprwbd+q2qTCWWLHCryM/UtcTduKhUzIY1DGqWjAbAzG9BxOWVGrzZQtiwC6XJB7alg1LUtRVb9O9/Cj8Qn27qaFtKKRaRNVU1Ykcd7GLgnOSrDJUQ8skzTsaDQxMsksBTkPFhfkI6HWgTWoTxwr/AHYMgVWeaDPJLJncWE+TbmAlMz3G6P3of5QZAY5cIlSMPqi3gNNY6fWhvmN128a1YnaYV+4FSHPt5g/FsZ/Tj/2Hstn/AO5H/sPZbP8A9yPc3Ay3DXdetPLfOY1JnPmNz4PupWfCFr8xlarw6PFyc2FY6wB4Yt3Ly+JaVpuklepea+bH/hf5Ht+3Fse29sLTWw3iFrVq3WLnl+XVVTRcjy02Vjy02VgU2JLvfhtBX2lqi9UMaSubrQU8RVWWNS4LyaqoWvWyN2oLh18emu97nTs+wsvqp/E91c+n80G2nh3SK7dnNW94K1M3vPd3W0Ljx4dzS1W3rg7XGXcJmQxNVQ0lMqcICjIIkir4u+8vLHGPK4sE3FNy5Kt7Ewblyy1Lfm/a3EbPvW4Dl18amqx7rQte+tJ6d3+H7q39P5VK4DWbqrDgcRYJxDGRqGVSvFh1EzhOZykk4wvyEdDrbqfJoyqDvVGUSuMs54Y52Xcbo/eh/lFvPOeGFzPOjS2xFgM5CsCWNUptLjxamas+QJ31V82On1ob5j9AkQtyZmolLVi5zW/ZDe2/Ie5o/Km1+YofwKfAp8auinw9aE5q/s3X5qdfdX5bjEsygPk3ilGr0oAeZMpGqFtXPxLIaqyHMrVv3DUqt29TnXPD+n4kAgteS83Nv/1W+v8AwvY2tij/ADXugg3bfnXFmtrxlAW17T2aqufctwbN4FbizGIprp5Oq666bgtWRVcaQwFVNWTDWdtRIS8WC3XP4V1pm2vuM5Lntveoy5jXYM6rKWmmw0r/APSr7a6fxfY3dij/ACntWpW7RM7/AIZ/Cu309ayreX4mt24kMJRc5i7j/KF+Qiql5ylpxaayGBdirVNVvRdW8CQihlpNO/ANLzE9f4wPbOguWVPuUofOzbVVH3YS5YsJac37S1IJNSasNxuj96H+UGSrjgcMsU0iniyzeCLYHGX9sdPrQ0/iN4mHZkVvxmE2XHy7XGi4RbTQbVXixlPA0ECZJ+pty5zW/ZB9v+ZXxvyng0SfzfA8OiqmnThOav7N1+anX3V+W40wGQtWcdIKubap58KCasMuWJHGceHdZhauAW/HXP8AcWrQzvAssx/D8Vtb/mQrLRbNtKrY0vbf0v2zeq+rd95dX6UeYGtKVuvnWbZ/8m+Kqrnvb7u34PIjw5Z/8XUp43P5EM15C91c67aH/k20qqT3vt7iN+LTrQWYpca4k21fbf1T267/ABbXvbS/Tw/L8KyzGzbBQXmzfcPZaTfl7rBvxPDaJDADcucxdx/lC/IRS1i2MJzqaEUogKNMUsdbjcmLjUozMAuLGjjVLAVbNtpzyM2EoPu7RFu8wvXF1grXWzlz6uPBT3L1It1GUUomcHlqImjXuN0fvQ/yhUYjOJzQDmrvN4mtE1IEsWJFUl5q6UW2PHlhv0tllqx0+tFsDjP1Ya1dW4zNcNz8MIVpKIus6cSHUW702VlE1t6w/wBb+iWzvFno6tU8M3Ro3LRuidoOpuD426s/92PI/wAtoQeztMjz/EZbb5yaonnRkfYfsxkfYfswJWJD4G2wgr7S1ReqGNJXN1oJNUz8GcdaFSc6d/ckcZwLV0eLYqrtq5ptL7g0qly/IVXFT6Z8Nee4WssfxL2je/qV1fQsfw/Z24/N0rUBR4NP4Xh0+HRzPDhbyOVsocy5pX/6Xeb07n8T2Vz6fy2s2pW7Jaq8ENVl/cLVVdsVCq34n0z4kMJbrsVYhlUCkVRoXNiGUI8yOLA+Q3EAYrUTOla2wHFzoznFumiakDOq40GbgMHZZgCbU6iBtaPa+IA00vzmOKrZVhCiKp/MWtFQvH3GkCcmAx1oZQjzI4jwZlt+QnmqW31hUBYU6JBzotgccHHKSWyx0+tFvnP1YpM5yngrNh0Y1ti52Y1ti52Y1ti52Y1ti52Y1ti52YoE2DfFbn4T8dcyNbYudmNbYudmNbYudmNbYudmNbYudmNbYudmNbYudmNbYudmNbYudmNbYudmNbYudmNbYudmJGoz5D9mFR2dkTC3UtzMq1I1ti52YKozqriVylbmcOJkiQqEuQ/ZjW2LnZjW2LnZjW2LnZjW2LnZjW2LnZjW2LnZjW2LnZjW2LnZgGTYZMx+zAYqSwyHw3n92CtGBxI8N+zC3LFy5YdAVVraOpCtllmwEv8Aur95Awei4tx1qTJlWNbYudmNbYudmNbYudmNbYudmJmodB+zFvnL+2On1oRajMMx0X3+jBpM8wbxGRm/skjjOKZ5vG15cXvxIYS/sdzmmLfOWOn1ot85+rBLGU0H3mjTEaYjTEaYjTEaYjTEaYjTEaYjTEaYjTEaYjTEaYjTEaYjTEaYjTEaYjTEaYjTEaYjTEaYjTEaYjTEaYjTEaYjTEaYjTEaYjTEaYhwGBJUyi3zljp9aLfOfqwBMNUWWmkpTTVL8TWgNNVONTHRUD6oMyFktQzGPiaWP8uqHEhgqsvT4zRQWGUVNQ2bpYUa+jpQmQguyFtEmlalzNWKApAAbOIbFqdWGkQxCeJirW6SN7lwtAMitRkteO0kDfTNUmlpsW1uIvNhQZZ1WbKVFHwuepEqZhpqgzp1L8W0M+GrzpJXKlrdJGpnaUNgKlk2RlWlj8Gh6SALahzMVVzq2dCBm4PgmlpcptHOi28hNmVW+TNTmxIAZ86JhhivHblciFeapMVOxyD5LGK6Ong2dVxeJm8eLsgKkYBZCrA0wAzUmeM7eRaW1VdtKK5qAJgmlmqlo5mpFozCVqWOb4vF4vOi2acWkWMjRTVTtQkjTUTM0l97iwCowkcVSrRanfdKebBcGZoqBl9XwhqjXICUlNtqm1KW+9DPMEieABFMtVqolWNCuopTRtNnw7kggS8NqaZ8qiCAQc5VrpZdP+VpNBY7xYTlKdPI1YwlcYoWlSUpYf8AE6MMpNVIBnS1vS5LQas1KqRmYcnOr1uZFmcvxFLNsxSpC5tRNJub9MqVhWwxAOGSBbYgzBJABWj5M3mRNSFA0iQXPRRYsscrMuT5x0+tFs2wXFTaGd8PhE6LmBJAzqVLb6wLdFykGrfjFbuIpOlnLyoY+HczhSVk1NMTouzGRs6pZfCFzLma1etnNyoE7b4T1W1hTBFF0zFEzVgnFWFFN0UimYqqp5UFBacKSGyNq09iAwt3MJ0ghqUq4ohV8J5Kahg2/wD6UEFLjTFOdUZL8BBJS4JgLgDkXOiZS5kpaVQrXlwqi24CGpZBsv0aAlN2QNQ0qoUeG4onTg2tCpRcpUzGWGUpcNekSGqh8y4fE0sG/didN2qc686viwAEuDLiKqmq0qoWSXFoFK0hlwgJ4b0iW82qaoE0uAqZgqGEABLgyzIqm1WlVFHhvTKnRbRgzS4SZZxqqWnRpgjw3NWkSGLNEilxsAudUZKM6UFTbeR+CmDNLhJINedXm5MYpFt8cTMNMziVFxsKRVVmryYJCXCTlLBmOEVUXMtVOdRVxqYLLaaZ5LYc3iwCUuKQJTUMub8ICi2wAEhmtBBS4RIgaWYDxYUUXBQJKVqDRbAtsFVlyg/GOn1oGn/sfLj1o9aPWj1o9aPWj1o9aPWj1o9aPWj1o9aPWj1o9aPWj1o9aPWj1o9aPWj1o9aPWj1o9aPWj1o9aPWj1o9aPWj1o9aPWj1o9aPWj1o+k4//2gAIAQEBBj8AmudtbFKgTxxxQTMyBiQz63epMuryfLpDF7NzGMqMhVJcuXDRy4Rb2vdufuJuSr3bn7ibkquLa62FNawSrlknZZQEGI0jnjVat7W02HNd28QIjuFWUhwWZsRkjZd8a925+4m5KvdufuJuSr3bn7ibkq925+4m5KvdufuJuSr3bn7ibkq925+4m5KvdufuJuSr3bn7ibkq925+4m5KvdufuJuSr3bn7ibkq925+4m5KvdufuJuSr3bn7ibkq925+4m5KvdufuJuSr3bn7ibkq925+4m5KvdufuJuSr3bn7ibkq925+4m5KvdufuJuSr3bn7ibkq925+4m5KvdufuJuSr3bn7ibkq925+4m5KvdufuJuSr3bn7ibkq925+4m5KvdufuJuSr3bn7ibkq925+4m5KvdufuJuSr3bn7ibkq925+4m5KvdufuJuSr3bn7ibkq925+4m5KvdufuJuSr3bn7ibkq925+4m5KvdufuJuSr3bn7ibkq925+4m5KvdufuJuSr3bn7ibkq925+4m5KvdufuJuSr3bn7ibkq925+4m5KvdufuJuSr3bn7ibkq925+4m5KvdufuJuSr3bn7ibkq925+4m5KvdufuJuSr3bn7ibkq925+4m5KvdufuJuSr3bn7ibkq925+4m5KvdufuJuSr3bn7ibkq925+4m5KvdufuJuSr3bn7ibkq925+4m5KvdufuJuSr3bn7ibkq925+4m5KvdufuJuSr3bn7ibkq925+4m5KvdufuJuSqCPaOypNnJHJmR3VwGbDDINaiV7tz9xNyVe7c/cTclXu3P3E3JVIm1fZx1smwEhmEqJ0xk8Zq0y6fZV6eLYei+gGb0THc1Yi1no+fDe5PF5stL6zH3slWn1EfeL0bxJZFRpUyxqxALNipyoDvmqzWN1dowyyKpBKnO7ZX63RPRM1zKkMS9OSRgqjHsmphZ3MVwU3WETq5GPXZD0A95PHboxwVpWCAn4hnIoyWk8dwinAtEwcA/EchPQEl3PHbxk4BpWCAnrdPCi9nPHcKpwYxMHAPZZCaZ3YKiglmJwAA6bMaAG0bbE7g8anhViOlQlu547eMnKHlYICx3coL4aWjQhtr2CaVulGkisxw+JVao0llSNpWyRKzBSzdYmbftRZiFVRiSdwACvTGuIhandE5ddXunL5THJvqWGG+t5JHOCIsqEk/Eq5qD3EqQoSFDOwUFjvVxbhN0BAl9btMWyiMSoWLdblzb6k9MuYrfWY5Na6pmw32XORmy5qMdpdQ3DqMSsbqxA67KppLdpUWaQEpEWAdgN8UTfNl6CpeXUNu7DFVldUJHXAOaYWdzFcFN1hE6uQD12Q0I7u6ht3YYhZHVSR12VjSzQSLLE4xWRCGUjsWXoPAkqNNFhrI1YFlx3udN8uahHeXcNu7DMEkdVJHSzZWNCC2vYJpWxyxpIrMcN05VVugLYyoJ2XOsJYZyo4Yj32XoIJ5UiMjBYw7BczHgJm3zdBFmlSIytkjDsFLN1iZt81Ga5lSGJd9JIwVRj2TV9423Gp4VB0IZGAKsDiCD0iDStcSpCrMEUyMFBY71FzcLoIs0qRmVgkYdguZj0kTNvn6DTTyLFEm60jkKo7Zm0aDoQysMVYboIPVBowS31ukynK0bSoGB61lLdBpZXWONBizsQFAHVZmpZImEkbjFXUggg9VWFGC4vYIpV30byIrDHrlZqDKQVIxBG6CD0HgSVGmiwMkQYFlx3udN8uag08qRKzBFLsFBY71Bm4TdAsxCqoxJO4ABSzQSLLE+9kQhlPasujQiu7uGCQjEJJIqth8eVjSywuskbjFHQhlI+NWWtR6db67Nk1etTNm6WTLm31Ga4kSGJd9JIwVRjubrNo000rqkSDMzsQFAHCZjX3jbcanhV6Zr4/RcM2vzrq8McuOsxyb6ilndQ3DqMWWN1YgddlU0tu0qCdwWSIsA5A3zKm+bL0Bba1NeVziLMM+XHDPq99kpReXMVuX3oldUxw63ORWutZkniJwzxsGXEdTMtPqZEl1bFHyMGysN8j5d669bSteXEVuH3EMrqmOHW5yKa6huIpLdMc8yupQZd1szg5Vy1YSRsHR5syupxBBTFWVhUc0t7AkU2OqcyKFfLuPq2zaeTh0Y7S7huJAMSkciscOuyqehddtF5xK/0g/y5pfWY+9kq0+oj7xejtk3TM67OtEa1TE5VZ9Rico+teoRb3MqXskDLc2hU6p2Ullkz9hH0dl7NvCz2JikmeEEgFlErYnL9XVlLsiaWxuA+rMaIwjlDbgjfPvM/Ql25tiSS4tbaLBLTAlF6jMqppNnb7Snm2DE9ps4Qf5qGRgMzaQRlizycPJ/aToNtfasrzWlnCxFqcdWuUF5JdDSfR4FCbYET2lgsDelxOQMx0lRlizyfSNDW0fVZvNtUNzexRrI0LNLcFsrAgtp5s3BqEzMz5HdIy27oKdFcetXe1ZGYFoxdqXUdMrkkzgb2oItgWUtptLXJqZtyMAk4bra2Thf9Sth301w0jS3EEWpI0UKNEXaP6x+xq4hWdrcKpkYoMcwQM2pfpaD1bA9MykL+fXynvaMNhYTQ34C6ubAKAwwzMziWTN3FbNvb25ZpoVihlgxxUyMGaSfWA+U0clXbwu0bnVrmUkHBpEV1zDrl0aedIMLmG11wuATnLqmszHd4TcGvZm62sGuYtU7XA6bOAYx1yZul19bMX2ZtpLK6E3jHYhFKb51y6yXNoCTzfjKsJ3nac3YlkAbgKI5VWJOwXoWEu0oTPbJbEzRqMSQTOsPTaPey6W/rZp9mreSyKsfS85CK8Qys6qmslzeL1lbUvdqob2cXTQq0pJAVd3RVcvXfI+jrbWzIWb0O2kQwxMcQubPmy4/Jp7m2wE8jLFGxGOUtic/yVXhVDtDZl9O220bPO7qckucjWo2bgr2Xlat9ubZt4d23R3kbHRDDPq14Tab6C1Hty1tF2dsu2JFsgBzzHSXWNiT13+F+0q6vUUM8EbOinpFuDmw7KpNpXN/cD2hZ9dHKqnIpXHJBucFuu+j7+1vJED7RutZGgA0M0RyNNJ3SNq6in2ndyX22HwdVnxWNWGlq4eC7J1u8/VxdC5vPaC5mjfdSyhhUlYl3yydl/b9nV5azubg2FxCqXGBDPG5kWNpMeF4ul2lcezMUWyQwDsxOuCnR1mVnXzOTs6gktQBbPGjQgDABCoMeC8HQq7b2gnljt7cvFZW8KkgbpTXMev0c3Z/V+LraCXkrXVtsxQ1vNlIkeMtqkRlPZavfeTq22peykam4QpaqCVjhVlclW4Ujf24FRXUBLRTKHQkEHA9i1S2O2J5IdlWLZVghUkyuNwmRv7fs/1lXuwLS6kewMLvZXLDLLFjlXBR2Gt/h0LG8glu7+eNnWcYhyx3FkMjMsca6zgJrf2nZ2fpbZ3ZS0ZJzERk4wqW+rptkbUme32TaBHkSEEtK5VJQr4fWf2en2Js65eXZl2sjWpkUiSF8rSFUzdrUk+1gbuaQtjM5IlkkbgwgNot/aSo0vgykszQI++WIhdWp63h1Jc22AndlijYjEKWx08OxVah2hsy+nbbiNnnd1OSXORrY2zcFey8rWytuPMyiXUr6IN4rSK00kit12jq+hbbGnma22fNGJruWMZnZS0i6rDrfFVBabGnkl2XfyKklvMpBjkYiNGjbtvtP1lXl/tZPTbprl4jJKT0lWM7gB7OvaeztJXSGymVLYYklBJI8cmRuyQVbB4Ms88CO1yCdYHdQ+cbuXfNvKt3kvZJhs4KpVxuSM7LGsj7u+jRsq7+pwBifRUO5+QJUd3D7ORzWttEpubiYsHkyjxs0S5k0e0jmr2dsbVTFsi6Mjm1XQGKHSR8vWuJFq1vtnZrCa2cM2q6Ui8KJ1Y8Le1ZzPO05u1mlAfgDVzosK9gmFCcIZZ5iUgXg5sM2eQ9YtW9/e3D3Et2pWZ8p0ZZMUSLD9Wvi10FrbLbTT0kWhjjgRycqqc3BHaVfegXElvDfR5VhXdETkFdfEW0s3W1tO2zZ9TdGPNhhjlGTNhu/FVz7QbbeS6t4kVY7YjFU3seCKpXPrJG4Wh4ytuzbGje22V6GdZBIw8ocMjLHmk62Xhd/q62F8nvK9npb6My2qTXRmjXdLKHhxXfJ31bNX2ZtZLK9EwzSMQilOmy5dZLm0eT8b0LrtovOJX+kH+XNL6zH3slWn1EfeL0b/acEYns9o24huCOnEV1eVz2PiatdrTRiG0s7dre3PClzNIzP8lpX0+jY+0GzoPTGs1MUtquOYq+dcyZczfS/IqwuZ9nHZdrs19czS7rOxKNkXFIv1fQFxa239T2ZKmQ2qAB0ccLMqu7Z6n2+NnjZggt3jgtcAHmkytlL4iJd82/f9lVydtrKsYC6nXRiI5sWz5VyRtUd1ZQf1HZzpkktEAEiP8ArA6q8ml3Hf0u3JrD+kwW8ZjEJGDysyumZ9GPNv8Af5OBHV9BCueWW3lSNR0yzIyqtQzRZ4dq5c8kUp0WOJOqb9U2X7SoBcWnoEqDIbcbijKcuZB1j76rU2lu120F0kjxIMSVCvwdLRqLZ0ewjs7M4ZruYbiKN9lbVxVs2O22dcXcezJI59eiswlK5GyeLSTV+T3zUZ4rCWa4uogr2qbrxmVNPNo5m1LHL5OptjHZlxFJaMjRu6sDLnleVwkTojeKzcDW0uyovZ1raSTIguZRgqZcPGZtVHk7urDYdtZzXupWJnuolZ1zRho9Xq0V37qniaE2N1cKGEEvTVkfMqPoo3jNX1nDr+i/0WRJ5IxbPcsTq8MNW8m8ybz9tWwDDaNtNdmq4mSMYgsdWetfR6zQqxP9I/pEVnIJZblxgxCkNq0OSH4qtr6HZFzPFs8PEpUMVlDh01gkSORY18Z0Nn7Ut9nybRhgidHjQYjFhImloyZfK595VjeNsv8Ao8Gz2EkkjDB5MCrLFvIs29+R4yr2CLZr7TtLuU3EUsJIILdNZMElq/2vtGMW820nVltuqirnwz93TQWcRml1sbZF6eAP/wC9XdvaQay4KxlUQDMcjxyPk67QRq2RZ7RjkXZVpZRySRb1TMBlMU3C1lKiKFRQAqgYAAdIAVewQKZJZIWCIOmThvRS2TwgXTWRj1bAY52jK5W+Ua2Zfw2xa62dPLKbKVSrujsnAbSzeJ3tWSNsk7KjtJBNJdS45sAcdXG2SHue86EkV9BqpmuJGCuBiVwRQ3zK9o5LFTaTzXKvaPIoyyKrzylY9YCmnHImnR2QdjSW0tzlSa5ckRgAgu4zJoro/rJP3lW1nmz+jxJFm6WORQmb5tbS9MgyGW8kePOBpJ1HXsK21PNA0dtKfFuVwRw7awatt6+j5TLvK2U1pBrBDeI02UDRTEZmfsNHobaubmDCG4eMwSMAQwwctk/vraNzBGbeKa0wtrorjGHKQxL2GdZY28VUmzNobDN9c4NELrDGJidFZsojydxJH+7qCyuGDSrmZ8N0KXJfIva41tS+mh/y00MSxSsAQxCxKwXi2qxv4LV3toLR87oMFzZblRHn3msdpYq/qm1ti3N4Iua2wDLHHu9aY31lC4ubR7GQsRqZDi2A4fSTfdrTwWcRmm1kbBF6eAO7V1b2sGsuMsZVEALHI8bvkw32gjVsnZcWzbiZoY4JpJEVmysiujW7RorOr6XCqG5nt3tJZVxa3k3ybuGDbi9tvas77Ul7SO0ZHlIBUPjNo9t41a2DLaW7PHBcF53RdFFDwSZpG4OhG9XVjHsx9p20srTwzwkjfALlfBJesX7Strve5ba7204lWE9KPKzSosnbs3yKj2XFsWQXcKLbpdY4x6I1ay5cmr3v7bV95UOzHtpNo3U6qbm6gXFVZGV8NVEmlm3v0dDLC2zL4xtFGswxKsvi0kKOqtlfDhxd3UmzZtjSSXjq0Bu13Ijm0NblVNXvf2urrY91Zqt3dbJLma3XHTEra1xF12TNk+fVtHFYvsm0iYPdSTjMXUHyKayNN/2FQbRh2Pczx7PV4VyqxWUMJE1qyRxSqnlKGZfy4HA1b3yQf5RLQqZQBlD5pNHt9Or2+tbB9pWu0greKxDIy8FsFk65uDV7tK/tmhgCH0PZuA1hKjN5RlV/GbzTq7t7rZdxBFezSXBuHDKsZ6er8ZGms63Mjfu6eSK0O1dl3CgJBGAHiYDBszKjsyv2dX207+y/plpdQtbeiDRds2XPK24nW77Jv6h2Tctr9nRSl7K5w3cCD4lu063/AJK2GNnWcm0INnPK0qAZizMYpMz6L5c7K/AqyQbH/pEdrIJZbqQYNgp8nGckPcdC67aLziV/pB/lzS+sx97JVp9RH3i1Lf3IYwwgFggxY5iI1ygleE1Ai1vCD0jql5WrqzitrpJJkyq0kahQcQdJhI1WtnNb3TyQqQzRxqynFmbRYyL11c0veKXla5pe8UvK1zS94peVrml7xS8rXNL3il5WuaXvFLytc0veKXla5pe8UvK1zS94peVrml7xS8rXNL3il5WuaXvFLytc0veKXla5pe8UvK1zS94peVrml7xS8rXNL3il5WuaXvFLytc0veKXla5pe8UvK1zS94peVrml7xS8rXNL3il5WuaXvFLytc0veKXla5pe8UvK1zS94peVrml7xS8rXNL3il5WuaXvFLytc0veKXla5pe8UvK1zS94peVrml7xS8rXNL3il5WuaXvFLytc0veKXla5pe8UvK1zS94peVrml7xS8rXNL3il5WuaXvFLytc0veKXla5pe8UvK1zS94peVrml7xS8rXNL3il5WuaXvFLytc0veKXla5pe8UvK1zS94peVrml7xS8rXNL3il5WuaXvFLytc0veKXla5pe8UvK1zS94peVrml7xS8rXNL3il5WuaXvFLytc0veKXla5pe8UvK1zS94peVrml7xS8rXNL3il5WuaXvFLytc0veKXla5pe8UvK1zS94peVrml7xS8rXNL3il5WuaXvFLytc0veKXla5pe8UvK1zS94peVrml7xS8rXNL3il5WraK3hniaKXOxmQKCMMujld65pe8UvK1i9teKPjMaAeeoMN0EYj8xq67aLziV/pB/lzS+sx97JVp9RH3i1fdqnnI6sfV4u8WpLK/YSiVSskCgscD12Xed1Udjs9hCsYyxQMCpwHW5sc/ddEelShWbdWMaTEdqtCJJTG7biiQZcT2296OtupRGp3oO6T2qjSatXrGjxOAZ1IXut3L8qgynEHdBHSI6BmuJBFGvTZj/AMKyaxwOvKHL4XzaWWJxJG4xVlOIPQaSRgiKMWZjgAPymsgkdh16ocv/AB0qE1tIJYzuZl+P4m63oYncA6Zox60ykHAmNcy91uZvkUZLWUSAb5ekw7ZDpdExSSl5F3GWMZsD+Vt5RFtLi43TGwyth8eU9HV3Evjf1aDMw7bDe/KoRQy5ZT0o3GUnteC3RBupQjNvUG6x+QtCJZTG7bi6wZQflb3o626kEa9THpk9io0mrV6xo8TgGdSF/v3fnUGUhlYYgjdBB6BmuHEca9NmOArJrHA68ocvh/MpZYXEkb7qspxB6BkkYIijFmY4AD8prIJHcDcLqpy/8cKE1tIJYzuYjqH4mG+XomPWmUg4ExjMB8ret8mi9rKHy75ekw7ZG0uiYpJS8i7jJGM2B+JjvaK20uMg3TGwyth2p33yejkuJfGfq1GZvlYb35VCKGXLKd6kgyk9rwW6Ia6lCFt6g3WP5kWhGJTEx3F1gyg/K3vR111IIk6mPTJ+JVGk1ZDIyYnAO6kL/wDrQdCGVhirA4gg9UdBpp3Eca9NmOArJrHw6/Icvh/MpZoHEkbb1lOI6Bd2CooxZicAAOqTWQSM+G4XVSV/44VrrWQSp0iR0wfiZTpL0IvSEkfXZsurAO9y45s7J19JHe2k06ROJEDKu4w6ujMK8lP3KcrUn1sf6aj7Ufoq67aLziV/pB/lzS2dlrNaJkk01yjKocHdzN11W8L67PFEiNggwxVQp4VXNjba3XTBQmZMBuOjnE5utWheWhLNaQrCwYYYSoiL8pczLTO5LOxxZjukk9U0GUlWU4gjcIIq3uX38iafbDQb5y08h6SKWP8AuGNSXExzSSEk/k7EdivQQynM8LGIsemcuDLj8h+hO7nFY3Mca9QKpy7nbb/oTWshzC3KmMnqK+bR+SydBrbHxVsAFXqZmAdn+dk6EtkxxidDIoPUZSAcvbK3QhsVOEZXWuB1SSVTHtcnQjhB8VcYo69THDMjdtm6EdvGcpuWIcjrVGkvysy9CGZDgMwWQdQoxwcHoSyRHLI+EasOmM3TYfJ6CTwtlkjIZSPyVFMNwSorgdsM1T3K7rRIWXH4+D86mkkYs7klmO6ST1aDKSGBxBG4QRVvcvuu64OfjZSY2PdLRY9JQSf91SXMxxeQk/mHBQdivQAlOZ4HMWY9MgBWTH5L5ehOWOhC5ijXqAIcu527DP0J7SQ4rAVaPHqBscy9rmXoeiY4RW6ro9Qswz5+5boSWROMUqF1X4mXDpdsvQgskOCMDJIB1d3Kg+a3QijB8XcHVyL1DjvD8l+gsMRym5bKxHTygYsPldCK4jOGVgHHUKnfqehNLEcsjYIjDpgscuYfJrE0k0LFJIyGVh8YqGcDDWor4dsA1T3IGJijZwD1SBo00srF5HJZmPTJNAg4EboIq3uJDjIVKufjKkx5vlZc1YnpCpLmUkmRiQPiXgoO16GSU5mt3MYJ6ZXAMnfZOhMGOhAxijXqDKcrd0/Qns3OKxYPHj1A2469r0FswcIoFBy9QswzZj8joNZk4xTKWC/E67uYfI6EFkhwSTGSTDqgHBF6EKqfFzsIpF6hzbidy/Qsv3v+F0ZPrY/01H2o/RV120XnEr/SD/Lmlkt4I4X9IQZo0VThlk3MyirVmtICxhjJJjQkkqvY1eyRW0McihMrrGqkeMjG4yrUFogWMTWsY3BgMxRWznDs6aCdSkiHBlNLDCpeRzgqjpk1Ba44mJAGPZHSf51MjdJgQfzGntpgQVOg3UZeC60FUEsTgAN0kmkilGErkySL8Rbg9yq9CVyp1M7GSJ+ppHMyfIY9CS4mUo9yVKqemEXHIflZ26Bv1UmGcKGYcF1GTA9sq9CTaEilUZdXDjwsTi7/ADcvQiv4lLCJckoHUXHMr9rpN0FvCpEFvic3ULkYKg7rP0FkgUvLbtmyDplSMHy990I1VTqomDzP1AoOOHbPvehLBH5XceMfGy6WX5W9oo4KupwZTuEEdQ0ltAuZ3O6eoBwnbsVpIl3sahF/Moy1NbE4a1CoPxEjcNPBOpSRDgymlhhUvI5wVR0yagtScWjXSPZHTf57UQd0HcIp7eUHAEmN+oy8FxQAGJO4AKWOYZZZWMjr8RICqvcL0JZSp1FyxkjfqYtpOnyW6El1MpVrnLkU9PIuODfLzUdl7LI9LwBuLgjFLdDw26+4f6CD95J4uv8APHWM6gR3IGAlCDKGYcCdU8tH+86D7QkUrHlKRY8Ik6bDtcvQivolLakFZQOmFOkr/J6CXRUiC2OYt1C2Ggg77oAwAtLA2cIOmRhldV77oRxqp1aMGmfqBQf+bg9Ca3j8oQGj7ZTmC/K3tNHIpV1ODKdwgjqGktoFzO5/3AdVm7FajgXexIqL+ZRlqa3Y4CZGTH4swy409vOpSRDgQf0jsaWKJS8jnBVG6STUFq266Li/bMS7/OboPBIDkxJifqMnBNYDdJ6QoLMMs0zGR1PTXEBVXuV6Ek+UmC5Yuj9TMd10PZZuhJeTKVNxgI1PTyDdz/Lx6C7QRS0TqEkI4LDcXN269BtoOpWJFKRE8JjviO0XoRXkKljb4iVR08h3c/yOhHcZSILY52fqZhvEHyuhZfvf8LoyfWx/pqPtR+irrtovOJX+kH+XNL6zH3slWn1EfeLV9+aPzkdWkMt6qyRwRo65X3GVFVhvKHpVxFKR0iyPiPlZM1H0W4iiJ3CwR8SO2KZq5+ncv4Fc/TuX8CtXc3UUqjpBkc4dr4vRrWW80Mb9R8jkj8zMhrn6dy/gVz9O5fwKMU93HJGemrI5H/GOhLFLCrg4glJDgexzIctc/TuX8Cufp3L+BRR72NlbcKlHII/KNXWsEkGbtJCO4KZKAF8gA6Qyv4Fc/TuX8CsDfJh2r+BWsaSDN0zgkgHcqmWhHHeRoi7iqqOAB+QCOufp3L+BXP07l/AoyzSws53S2SQEnssqLmoRQXcUUY6Sqjgf8I65+ncv4Fc/TuX8Cs9zPFI/SzFHDd0qBqKW1zFEp6eVHGPbHV6Vc/TuX8Cufp3L+BQF1cRS4dIsj4j8zZM1E2txFETuFgj5sO3KZq5+ncv4Fc/TuX8CtXc3UUqdQMjnD83i61lvNCj9RskhI7VmRstc/TuX8Cufp3L+BRjmu45I26asjkf8Y61scsIcHEEpIcD+TMhpLbZ94iyTbj3TKxSFeE+Qrmmm/VR8bQggvlwxLSSMshd3O/llfJpyPTW1zeK0bboIVwysN7JG2TQkSngv2gkeLyV2EbJKvUzw5csU6/SaGr/V0AL5ABuABH8Cufp3L+BXPk7l/ArWPJCWJxOCSAY9qqZaEcV5GiLuKqo4A/3COufp3L+BXP07l/ArWTyws53S2SQE9tlRc1aq3uookHBVHA83XP07l/Arn6dy/gVmuZ4pG6WYo4bulQNRW2uYogenlRwT2xyaVc/TuX8Cufp3L+BQF1cxS4dIsj4j8zZM1E2s8UTHcLBHzYduUzVz9O5fwK5+ncv4Fau4uopU+Jkc/wB3i61kE0KOOk2SQkdqWRstc/TuX8Cufp3L+BRjlvI5EbpqyOQf9xjrWRyQhxuglJDgfyBkK1z5O5fwK5+ncv4FFWvUZTuEFHII4utZngzfFkkw7jJkoKt8gUbgARwAOLrn6dy/gVz5O5fwK1jyQlycSQkgxP5VVAtCOK8jjRdxVVHAH+4R1z9O5fwKX0m4hmy73PEz4Y9PDNE2XpVvrXiPsq31rxH2VPbWd0s0xkQhArDcB0t8q1H2q/oq67aLziV/pB/lzS+sx97JVp9RH3i00U6LLE4wZHAZSOyVtGvu+14mPwK+77biY/Ar7vtuJj8Cvu+24mPwK+77biY/Ar7vtuJj8Cvu+24mPwK+77biY/Ar7vtuJj8Cvu+24mPwKYJYWocg5SYEIB6mIy1Z7Nc7NMt7m1eW2hyjD9Zmts/aZasDfx7OngurhIWSO2jxwJGb/wBvFweyr7vtuJj8Cvu+24mPwK+77biY/Ar7vtuJj8Cvu+24mPwK+77biY/Ar7vtuJj8Cvu+24mPwK+77biY/Ar7vtuJj8Cvu+24mPwK+77biY/Ar7vtuJj8Cvu+24mPwK+77biY/Ar7vtuJj8Cvu+24mPwK+77biY/Ar7vtuJj8Cvu+24mPwK+77biY/Ar7vtuJj8Cvu+24mPwK+77biY/Ar7vtuJj8Cvu+24mPwKOzNmWFr6VgDcXBgjKW6HhNoadw/wBBB+8k8XSQLZQyZBgZJY0d2PVZ3Za+77biY/Ar7vtuJj8CnhaxgQOMM8caI47JJEXMrUuy9qWNqZjj6LdaiMLOo6h0NC6T6WLh+Ujr7vtuJj8Cvu+24mPwK+77biY/Ar7vtuJj8Cvu+24mPwK+77biY/Ar7vtuJj8Cvu+24mPwK+77biY/Ar7vtuJj8Cvu+24mPwK+77biY/Ar7vtuJj8Cvu+24mPwK+77biY/Ar7vtuJj8Cvu+24mPwK+77biY/Ar7vtuJj8Cvu+24mPwK+77biY/Ar7vtuJj8Cvu+24mPwK+77biY/AppZLG1WNAWdjDHgABizHQre2n/ankK3tp/wBseQqO2t47R5pjljX0fDE9bmeFVr7vtuJj8Cvu+24mPwK+77biY/Ar7vtuJj8Cvu+24mPwK+77biY/Ard2fa8TH4Ffd9txMfgV9323Ex+BX3fa8TH4HQuu2i84lf6Qf5c0vrMfeyVafUR94v8AtGKAFwDlB3Bj1MaT2g9Jjk2ysmsSDEGHVjcWFH3v9uv06tDtpYLO2sHFwI4WDM7A6P0kuXe9GW/uAzRQgFggBY5mWNcoYrwnrm933EfL1ze77iPl65vd9xHy9c3u+4j5eub3fcR8vXN7vuI+Xrm933EfL1ze77iPl65tecUvK1za84peVrm15xS8rXNrzil5WporVJo3gCs4mULiG63I8nzv9kdmbMI9KwBuLgjFLdDw36+4f6CD95J4urMWFstxs+Ylrm5YlnkkJ0i0yny0m/zyf4dJeWb54n/vU8JHXguvRe7u3EcMYxJPTJ6iqOE7VexXtqsOy4gGhnBKukgOh47Nl1yr43PH5Kl2btJg0rDG0uxuLcKPmpdIvlI+H5WL/Yek30oghzBQxBOLHpKqoGdulXPhxcnJ1z4cXJydc+HFycnXPhxcnJ1z4cXLydLJGwdHAZGG6CCMVZfhWeyNkzx25uIWlLSKGGK6w7uKScGLravtm7VaKe6jtJLu1uIwAuirYB0yx8JOsr+r4r6X6PnzYaObHLmyVBZbOuYbZmsYrqQugILOsZk4Erb+Wtr7E2xkku7S3eQTxbisjJ1uCfrE4NbFltY4VkufStc7wRSs2SULHi08craOaulbf9pbf/Hr2UvGjjWe4muNc8caRZskqxx5lgSNNBfgK95PHboxwUyMFBPxDNX3jb8Yv/3oKu0LcsxwA1i9M/7/AIV120XnEr/SD/Lmk9Zj72SrT6iPvFq6vLN9VcRavI+AbDNJHG2jIGTeNXPf4UPJVz3+FDyVWVvNeZ4priKORdXEMVZ1R1xWINvT/sLv6iTvGq1vLoGfYd6WDFcSYHDvFj2r5M/2nlNj7Z2dPhPeSpC+RsVlhJXg9bpZegI7q6hgcjELLIqHD48rstX0ttKk0ZCDPGwdcRJHwkxqw9Wh7xa1c8uMvVjQZmHbYb35VauCXCU9KNxlY9rjvvk9EelShGbdVBusfkLQiSUxu24okGXE9tvej5KfuU5WvJT9ynK1L6OkianLm1gA32bDLkZ+srbv5ov0Ck2HbR6xPGJLcE4YSRq8jKiYaSLq8mb/AGB2Zswj0rAG4uCMUt0PCbr7h/oIP3kni6l9l7iOWCC4jIlv2bdZ5l0p5GIzPmzac3X/ALKn2RteP0zYl5jgRuqVP08HWSL9JH/1KTaGz5PTdh3uBVgdFl/Vyfq7iPgP9pHSW2wnZEkUNd3xXDUKfoYw2/vW7iHyvWU1rtyRpIFBNptDDEyhRm9HuMm9vVX5Fz9ZT3Ny/oWxLLEszHBUUdPd3r3LrxXnI9g7Bj9F2PbYZm3QCAecXH+HHw/NweyUEcl3BEmRb0NvZIwX1sRGkuRl0Jk83S7L2o2aZsfRLvDBZ1HBbrLtPpI+H5SP4cHraebnqyuZrUtLNbxSSNrJBizIrucFk641zQ8bLylc0PGy8pXNDxsvKVBPYQGKR5wjMXdtHI7YYSM3CWrADpC2h7xfhbPTZ8/os5tWyTFcwXDX6zcwObMmhW1Nq7UvGv742csUZAyqqZGx0azCEDYwi9HK5RmIxx9K/WZc+hn8lUKbMuhaT/0u3cOy4jJkgXVb199LpZ62620zKduCF1n1m91WTQMeXR4K/u9Vqq2XaLE6+gtco8rZcjtI0Vxliyu0ni45I8+sjj/Z9D2ZsNU6PaSSuZGy5HWaZsjRZXZ9BoZEfWpH0NXLcRI/WM6g9yTQKnEHdBHSrYsUqh0kvFR1PVVigZflV93w/wB1Ws1naxwSNdxozKN0qVlYr834V120XnEr/SD/AC5pdmsTc7PMyNZ3DHTjyh/8nN1+ifESdYlW0b3YV0iRWGSTcIUA/R1tH0GYTarU58FZcM00eXyir1vR2b63B5xKeKS7CyRsVdckhwIODDcSueDuJOTrng7iTk6jgiuw0srBI1yOMWY5VXFky6TfAuLmWE3CYCNog2TESHVHxmD5d91lJsuP2auJrLKRhJJmzK5MjZv8uvCem2l/+PXbC3DOmvmxjiA02dP8qu87OodoCMxa9C2rJzYYErvtHNval2vtdDe3dxKwLOzAALhuKqMtX+zbAtHZXdok725JZQ4lVdDNpfR1Bcrvo7OIr2xRFX51M7ks7HFmO6ST1TQdCVZTirDcII6oq3uX38iaeHXDQb5y00h6SAsf9wxqS5mOLyEk/k+JR2K9BDKczwsYix6ZwAZcfkP8C9/df4tbd/NF+gVsnVoqZ4ZmbKAMWKT4s2HC+GdmbMI9KwBuLgjFLdDwm6+4f6CD95J4urv2e2BdPbbThcku5KPO6H/Mf5jHO0sjLpt/gV/QvaDG32tASlpeOMGzfqLjsvO/XeUf2W9qoybTHC3uDumI/RyxSfqOt/V9poVdbDe4W52VOwSSVFEoUHJI0kAY6uO7WJt5/wCirvaDX2Oy5I8yo+5gMQ6yS8HOi+L0V089WV3BfD+mqCWVBjmxO68f7X6Pxnkqt/Z60nWHZUUpjjmdRFnBLyRvc5dCSfIvi00Nc/7Sl9lvZRC0TnC5uhvpm+kZpODB17/4XlDsfYv+Z23cYJdXaDEoT9Bbjr/7eU8nb7E9pLl7m/unD4KS7wFiuozT450kjbTV181S7M2o2aZsfRLvDBZ1HBbrLtPpI/pPKR/Cg9bTzc9bO9Vg82nwLb1kd5LVj6tF3i9CW6lx1UCNI+G6cqAu2A7VaV0trxlYAqRAxBB/KK5re/8AbtXNb3/t2rN6LeYjcB9HbHdrA2t7/wBu1ZfRLzLhhl9HbDD4qa6tFZVRzCwkXIwKcHD5VXbYbpgkBPV3FarmXaEskMdncO2aNlUANFbmRpNYkm91VSWMd5dKwZVgkZ4wspbqReI4LaOnWyrC3Z3ihSLK0hBbSkuJTmyKi75+tqO3t2KS3GOZx0wg6eXsnzVid0mksnYtbznKFPBc71l7athevJ3ydCz9di72atoqu0pNl2ezJTbqsJILEMyZ5GV4/wBXW1Yp7sXMduimz2gr4ynMwV0fSaRWy8J95+0q6WZim07K3dmJ3Cy5C0NyP+f7SvZ+2G0ri3a8jnEsqOQSUkkys+Ro9Y2SPJptVgX2jLtK0v5Rbyx3BJKliozx5nk66rrtovOJX+kH+XNR+sr5uerT6iPvFq9/deei6OzfW4POJ8DZ3/kbXv8A4Fx28XfrU31dv5iCpPVbv+WuKsQP1R75qe0llWO4gmfWROQrDHDDRark2z65YbIRysmkqsJM5zMujw0X6zxdW9rjgZbOJQfiOrXKe6poJlKSIcGU0sMKl5HOCqOmTUFrjiYkAY9lvn+dRRt0MCD+Y09tMCMp0G6jLwXWgqjEncAHTJpIpRhLITJIvxFsBl7hV+Be/uv8Wtu/mi/QKt9pR7GuJY7ASQoEDMJQwkjEusiikWPyubh1FLLGYJZEVnhJxKMwDNGW3M2RtH4LbN2awFyBjc3J3Ut0PDfgvcOvkYf3kni6jufZO4WeG2kZr91wlkcnAmWbOCz5t9M3+FR2zsb/AC227bB7u0Q4FyP/AHFv2f8AbynlNVLltvaK2XBXOitwq8F+tlX+3i/JQezm11SK/il1cd/NjnQDcaAqvlZZHXVacmT97VxBt/0d7OCTWw5gHVQN/Jprwm8nw6DuHt/Z63fRXetcMv8Ay+b+t3hubYNcbAuG8dD02gY7mdMeD3/k5NPVyVHH7Pejrb3UglmKgIHHTzYqu/WTyn0lXGwdmCOfaU7qjX8WOfBgP8sqNvJkk0fFv/GrO+W59o7hcQN8turcLspW/t4ryv8AX9v43G1rgl7Ozc4tmO76RP1uX+F9d5O4u/auZIrK5dTZFgI3VtI6yDINYuXQ1Db+k2ftFxI8gxsr0YZLhMMepordKu/T6TysXwYPW083PWzvVYPNpRJOAHTNauOeN361XUnuQehbesjvJasfVou8WpLiZskUKNJI2BOCqM7tguLb0VeW0N7jLPBLHGDFKAWdGRd3Vdcasraa9wlggijkAilODKio27quuFc9/hTcl0ZLea8ySwu0ci6uU4MpyOuKxFd8K57/AApuSq8S5vArTXk0yYRynFHIyNuRcKri8s31tvLBLkfArjlDxtoyBX361tZbFEkujMREkm8JMUQ0s2jveuo+j28TXOz3Q3CyFcgEm73m91NbP7SDvpqt7tRii4xufiJ0k/5+hbhBuROJXPxBDm77RrYXryd8nQs/XYu9mrbmzPaLNBHd3XpMJOYBlzyOjK8Xb17Q3Gykf+kiGOKGR8cGYNEX3+k2lrH7Stn7e2bo3EVhFFeKOHC0KxszDhatT3H1Ney91dPqoI0uc7kE4YyTJwQeE1bHtNkubuSG5WaUopyqilczMXC1ddtF5xK/0g/y5qP1lfNz1afUR94tS2FwzpFNlzNGQG0WWUZc6uu+Tra8vd93HyFeXu+7j5CoLuKa5MlvIkqBmjKlkYOubCFdHR+Bs7/yNr3/AMC47eLv1rXuFWO5ihaEl0BIWKKJmy5s6eMRl06u75EVra2trpZnDocpe3nSPQz6zSZuClWH1Z75qa6ubfxz79kZkzdkwQ5c1bQisIREHCF2JLMx1keGZ3xbRqw9Wh7xaHpUCSkdJiN0fKGlR9FgSIncLAbpHbnS6OruYllUdIMMcO162tZb26I/UfDEj8zNm6PM4OKTwa5nBxSeDTejwxw58M2rULjh0s2QD4627+aL9A+EdmbMI9JwBubkjFLdDwm6+4f6GD95J4urazjsxPsu4UtcXLEtJK7k65tZvHly+MbP5T9nUe3tgyek7HucMy4kgAnm9x/hyb+N/wCIvtV7KsY1jOa6tV30LfSeL4UDcNP8LyaX+xLdoNrQoZr5UYIuZSAklvu52mdv/X4zylptPbVklndWALGR8yHRYss865tOR28Z436ShJIHt/Z63fQTetcMvVPY+b+t3iQwoI4owFRFGAAHSAFNHIoeNwVdGGIIPTVhRubYNcbAuG8dD02gY7mdOx7/AMnJ9HJV7tfZFkl9dXyYqwzNjmYZ5Ykx8XNH5TxeSXWJR2n7QQST7Qmj11ijsGxkxyu11idYkqaEmn56n9qvapybcnG3tz05j9HHHH+o6xOH9XT7X2u/oexLPHAY4KFH0EHXO30sv2cdT7MFkI9jW8Y1U2JV4ymAgfWY5Y5OFHk8nS7M2m2aVuaXfSWdRwW4KXSL5SP6TykfwIPW083PWzvVYPNpUlnGxW2gYoVG5mZdx2f5W9rEbhFPZ3LF5IQGjc7pKY5SGPYVbesjvJasfVou8WtpeqT+bf4W0vW5/OP0V+oue/noRWd1LbyG4laVYnZCVMdqsTPqyubSWXJWP9RusT0/HyeHWxpZpmnnUIsruxdswmuWVXd8W8k0fyKaGZQ8bjBlPSIrMkksaE7wEEDtWZc1GO1TLm37ndZsOuathevJ3ydCz9di72alN3bRXBTcUyor4Y9bnDV6KkMa2+BGpCgJgemNXhkrVhQEAy5cNzDpZctRxTWkEkcW5EjxoyqD+rVl0KZrS2ht2YYMYo1QkdlkVauu2i84lf6Qf5c1H6yvm56tPqI+8X/YbO/8ja9/8C47eLv1oW9lGVMMcZdpSsoZpI0mzat0yrl1uT6SrmO5hZ52hnmilRwio0UUtzuwLHp52j6+OrD6s983Qvu1TzkdWHq0PeLQNzMkWPSDEAntV31E20yS4dMKQSPzrvujrLiVYk6WZyAMf99ZLe4SR+tB3e533RMkrrGi9NmIAH+81qorqNnJwC5hiT2OO+6G3fzRfoFCzMyeklc4hzDPl6/JvvgHZmyyPSsAbi4IxS3Q8JuvuX+gg/eSeLqf2TlEtsk6ZZL5iCWkmUMZZXOk2fNpyt5upPZ32hjM+ybg4xyDE5Md7dWzecj4HnTDMBtDYF+MdzBkkRhv04CzqnB+lqe99mrmSTZsiKJpIwcI9aCRbySOrJrU4DeUh+kqL2iieW0h9HDmGVtxA6DMZGbTblKEkge39nrd9BN61wy9U9j5v63eJDCgjijAVEUYAAdIAdFo5FDxuCrKwxBB6asKNzbBrjYFw2M8A3WgY8NMeD3/AJOT6OSh7QSSSXVuICRDEdFwgZhkw8Yr/s/1lW8+3rmSHZMIaOGaQHAiMZ/RllRFj9IePfSb+XJ+spbCwUWOwrEYkncREH0svBaVl8nH9pJUfsz7NIY9nRnGaY7mtI39zcP+q63r+Ljq39j0WS9SNdWbtTvZUDSZ4iNJdUw8onkqXZm02zStzS7wwWdRwW6y7T6SP6TykfRg9bTzc9bO9Vg82lXUbgg61mGPVDHOjfKVuhPcYHIkeQnqZmZWw+ZVt6yO8lqx9Wi7xa2l6pP5t/hbS9bn84/RX6i57+evZ/8A/wBnnU6Hsf8AXXXnl+BsL15O+ToWfrsXezfCuu2i84lf6Qf5c1H6yvm56tPqI+8X4T2d5daq4iwzpq5GwzASLpRxsm8aue/wpuSqMT3eYQypNH4uYYPGc0bbkVc9/hTclXPf4U3JUl5ZvrbeXHI+BXHKTG2jIFffrVx28XfrU31dv5iCpPVbv+WuKsT8URPzmqXbG1ruZWkkKQwwMEVFXg6SyfHW0NgpcPc2E9utxEJTi6HWIN98hqtrojHVWcTAfGdWuUd1TzzuXkc4sxpZ4HKSIcVYVDdYYGVASPiPSb51Fm3AoJP5hT3EpOBJEadRV4KCg6EqynFWG4QRSTS7sqExyH4yvC+UrL0JY8x1FuxjjTqYrou/y26EkE7F5LYgBz0yjY5Me1yVt380X6BUYad7l7mCS4aSTpgsZUCdqiRr0TsvZZHpWANxckYpboeE3X3L/QQfvJPF1dbH9mbxo9o2zl5N1llmZT49te2XWSSP9L/hV/StqkW23bYFba5cZdZl6cE/Z/8AU/WU3sr7UAxSRHLZ3bb6J+ArPwoW4D9Z/Dm9ldpSxvYtMqNPhrdTuhnkt93QZlbheQ/V1fS3V6rbOOkitiAoHTkkx0Vky6Hi/KUJJA9v7PW76Cb1rhl6p7Dzf1vk0hhQRxxgKiKMAAOkAPgtHIodHBVlYYgg9NWFG6tQ1xsC4bGeAbrQMdzOmPB/6cn0clWUlheqljiXcAEhgcMrqB9JHprkkpfZPZUsYs/SGQXBGqM2J0fSWx08m80fL+L8XQ9mPZoGe8nOS9vE37vwoo24Krwv1XGSV6DZEXPtBdKFmmUZhCG6UUXZ9bxkn0UdQ7M9q7tpLy9fWRoxZ5YgcuqJmXM8TxyaSycnS7M2m2aVuaXfSWdRwH6y7T6SP6TykfQg9bTzc9bO9Vg82lBnJinUYLKoxOHWuvDWvG3Y1ePBTSI/3to0tvbLlQbpJ6bHr3PXVbesjvJasfVou8XobR9Vn829bN9Vh82nwtof+Quf0rVzFEM0jxOqL0sWKkKN2rTZ9/7OSXostZqpDM8R8a+tfQiw7HfV7oyf91L/APetixR7GfZ1ns2V23ZDIAsjLLIzPJpaLLSrBh6TPiEJ3coG+kw/36Na2WZ3fp5ixJpbC7cypJuRO26wYcAtwlathevJ3ydCz9di72ap7qxtbR4oJGiK6QbMgVyq5pVzaL1Yy7Ptc+0doSNDHC+8V0KCQ5sUzL41MmlRtNtWKBZInkhuLcExgorSMkzZpMubLUN9OipLIXDKmOXRZk0cxZuDVrs2QRpaTW8k80zkgrkEjb7HJk8TW0xa24Gx4DEq3LAh2l1sWGG7l0k0tXk0PpPKauv9IP8ALmo/WV83PVp9RH3i/CuLq423b2UsmTNbyZMy5Y0QZs9xE2mq595XvLaf3R//AC695bT+6P8A+XXvLaf3R/8Ay695bT+6P/5dW9rb3KXsUefLcR4ZWzSO5y5HlXQZsm/qe3tIzNMWjIRemQHUthWvu/ZV5pyqK8npMi45FWJdCPKi6CVL6J7LvbzyRSRJMLiR8utR4GbVyEo+hJVpb3MZimjjIeM9MYlmGOHY1lBBZZnDDqjHKd2plDAsLBVIx3c2sMmXtsmnUFsm/ks4gnbBEZfnCirAqynAg7hBFBVBLE4ADdJJq3t336Jpj4mbTYd01NGek4Kn/eMKkt5hlkjYqR+bqjtugutGV5mMuU9MAhVX5qdC4RxgruZIz1CrnMvc73oT3TjATlVjx6oTNi3dPW3fzRfoFW0z3MKxR2bRySGRQqvmn8W75sqvu7ygQcQd0EUdl7LI9JwBubkjFLdDwm6+5f6CD95J4uhb24OGJZ3Y4u7nfyyvw5Ho7e2FjHcxnWTRR9MnhTQjrv1sX0lem2YFt7Q2qhpYVOUThfpYf2q/2+jerfZdzGkO2YM4N5IcmZEHkGjwzPO0nF+Ml/Z1k9pLe3VbKV5YWcI2VTg5kZ0zLmeT5dCSQPb+z1u+gm9a4Zeqew839b5NIYUEccYCoijAADpADo+k30mrQnKoG6zHrUQb6t/LxZpriyZmjR8jZlKnEAN1e26DRyKHRwVZWGIIPTVhTXVqrXGwLhsZ4ButAx3M6Y8H/pyfRyVK3s3bwSNtB0eV1CKXXEszBpMqrKknXeT8Z9LU9kkUc22bhU1d0hziJHGnDqyNGZX3n67PG/7Ov6ptMC529dAvbWznNqs3/uLj9p/b9ZX9f27jJLIRJBE/TJ4Esq8FF+hipra5XMjboI3GVhvJI3G8kTgPS7M2m2aVuaXfSWdRwH6y7Thp9L5SOoPW083PWzvVYPNp0HuLhxFDEMzu24AKlWxZ2MGBfMpXcbHLhj2tW3rI7yWrH1aLvF6G0fVZ/NvWzfVYfNp0Ms08cTYY4OyqcPlGmhsbR5rCNij7RzBY8wGOESNpTLm0M6dHaH/kLn9K9CWa1gN1OgxSAMFLHHrjVxcrst3umtgj2Os3qAxkTZ8v/L9LUbyJqpGUF4yQcpI0kzDfZatZ8Dq8GTHqA4hvndC0VOmsiucOtQ52+atbC9eTvk6Fn67F3s1X0d9cLFL6XLIIyCWK5Y10VUdclez+0LpHjtIruZ3lykgK5gyP8rVSdxT7NsC100kErvNGPFxhUY+MZsu+qC2u7tIZkaTMjY4jF2Zep1pqwtrKZClzZl4ZempKm5k6nXanJ2FXWwbiAWW0NnmJXhAwDqJY/Hp2T5s8nX+Vr/SD/Lmo/WV83PVp9RH3i/Curn+p7PttZq/E3E+SRcI40048jZc2XMvYV987K/7n7OvvnZX/AHP2dffOyv8Aufs6++dlf9z9nVrba6K51es8dbtnjbGSR9CTBc2XNlbs/gyXVjdz7OM+7LHbtlUt12Ay1tOZWe5u5gmsupt1yDJHoKeD2XX1Yq11CrLbxAgyKCCEXcOlWtmnhWU9OSOVVJ7bdytQlinheUb2SSVGI7XdCrXO4eMXwq53Dxi+FQNzNAXXcWRZVVgPizZu+oSieKZl3V1sqMAe1GVa53Dxi+FXO4eMXwqEd1NA4G9OsUMuPWsGoOblJcDiEeZCvzctBVuYFVRgqiRAAB1BpVtySNg6MIsGUgg7nUYU0slkM7kliryKMScToxyKtLsbYwVJY1VZZgMY7aPDBNHetcMnN4P3kni6Fvbg4Ylndji7ud/LK/Dkfoy3ns0knpVoC96YNxUkOGjCynM1yyMzzQxVZ7ev7U7PubRCZMzMqkqWX0iVX02kk8ppb/8AaUJJA9v7PW76Cb1rhl6p7Hzf1u8SGFBHHGAqIowAA6QA+Bse42hGxsYgxdyuZMxJw7Zo21cj0sXpUZzKWLhTkGHBZsu+ajLYTJNErZWKdQ9PD/j0JLDZaIzwnLNPICwzDfJGgK7zr3pbHbcUbwXHizMowAzaPjo2zI0TVe/0UG42SjILlZFZ44JnGbIjK6O+SPJn+sjil8ZUu2buwi2jJtGPJaXNs7mEysBGoktn8dbz5BoZJX8ZHq/FT1Be+06S57oA2TXG6ryjcWO4ZznSXIua3hl8r8yo7eyZ4YMqmAIoYSsd/juNrNPxerqCS6QR3Dxo00Y6SuVBkQbrb16a2uVzI26CNxlYbySN+BInAeodm34MrpcK8F4BoyxhJU8bh5O5jzprF+k8pHWzvVYPNpSx7MvBZTBwWkKB8VwOhpb3SqK52ndna1hbyLJc20Y1ZyA6TaA0tHhfRUE2W6ZYlXGFRlKA71Wj/wB1W3rI7yWrH1aLvF6G0fVZ/NvWzfVYfNp0EhvoYZb+dCUVhi5ROro/81HZNrewtYYGdbKUMZ41fNo277x4tdpaX/r6O0P/ACFz+lejJtVVPpcsQhc46OUENveu0E6DW9wuaNv7weoynrq8VdDV47mddID5J0qLITLO4weVhhudai8Ba2F68nfJ0LP12LvZqaR9n2zOxzMxiQkk9MnRo280SSQEAGJlBTAdIZDo0wtLaK3z7/VoqY4ddkGlWP8ATrbik8GopY7aFJIFyQuqKGRd3QibDMi6bb2rq41aa/GJNblGfLrUbJn32Sv9IP8ALmo/WV83PVmMccIIt09ovwri/t5bdIpsmVZGcNoxpEc2SJ13yddXl7Tu5OQry9p3cnIV5e07uTkK8vad3JyFW9hcMjyw58zRkldKR5Rlzqjb1+t+FJaXaa2CUAOmJGOBDDSQq2+WuZfxZeVrmX8WXla5l/Fl5WuZfxZeVrmX8WXla5l/Fl5WuZfxZeVrmX8WXla5l/Fl5WuZfxZeVrmX8WXla5l/Fl5WpH2fBqWlADtmdyQOkPGs+WmQMYywIDrhiuI3y5sy5lr+jXahLglpIbjdwugdJ5szZm9L/wD7ETN9X4roywpI0DSIyLKm+QkZc6Y8JabZu1AllLZqXDrjkuEx5zBjmeSaR2/zEXlUlqG82RMZI4mZ/RmxUS5TlMb7q+MjyeLoRwRi1ntQI5rPDAxkaOiv6v4MOyXhjlguIzJKzKWdN3KssGDxrrI8sjU9tbWFreXGqeWwvHiDRzj9szYtDcRu2SaB3+r0KkWKzSwngkMd1BEoRNYBpOoXruy6F1b3AIkWVjieEGOZJPlqc1RWtuueaZgiKPjNbRsNoIZ7priR4oWXE3KXJMkT9LKyb6CbrNV9XUsF/ObefaM8E8dnFixtY45Ume4ytrMjZckfb6mLTpdn7MVL+a+U6D4hIVBwNzd9J4dU/kl8rLL5H9ZUNvJM1y8SBWnkwzMQMM7YdGGwRi06TpLIAMQgyTKgkbgvJm8WnYVs71WDzaVbTW0STGabI6vjuqAWKpl4bULqzYMGGDRt01bDycq1e7PnsIbDaVqR6R6OgRHU+TcZdLq1besjvJasfVou8XobR9Vn829bN9Vh82nQvr2xs3um2hbLDbTxEYwyKMmMmfepm8bWyW2hZvBJslZBc3cpBMuZdVGsTL5Xrnb+z9DaH/kLn9K/7DYXryd8nQs/XYu9m+FddtF5xK/0g/y5qP1lfNz1afUR94vwrq8s7XW28uryPrI1xyxxxtoySK+/WuZfxYeVrmX8WHla5l/Fh5WuZfxYeVq1s7xNVcRazOmIbDNJJIulGWTeNTXV5IIYEwzOcT0zlXcXFq5+n9z+BXP0/ufwKjubZxLDKMyOOkR0Yriwl1Mr3Cxs2VW0Skr5cJVdd8i1z3+FDyVc9/hQ8lTWl7da2ByCyZI1xynMulHGjb6uY/xZuVrmP8Wbla5j/Fm5WuY/xZuVrmP8Wblae1s4LfVPI0oVxI2UtgMiHXDQXLwq8hadxJy9eQtO4k5epbu7SNJEnaICIMFyhI34byaXjKiS9EhMwJXVpmGA7IlVrU3Edyu7mRgiiSN13ksTpI2SRK9FmcmdSVimZcgnCgNiF3qXCoy66H5cfQe7u3EcMY3T1SeoiDhO1SXl0/oOxrLEmRt6g/xbiTh9ZVnsqzEEOz7ZGEqhQodExz3HjCZVkfNn1at9ZQ9oPZmeM7QgJEmqYMkwG/ikynLrMvd9xRIGpu4dG5tm3yN0urwPgbLvFiElnBHKtwxIwGZWUKyNvs+epJ/Z6IXdhc4mSxc7kb9R0xZdH/8Ag/AeppL9gby9lNxMi4YIW4G50FF/brKybiyAlXA+ISIVbL2NG4t7YG8mxSBMS8sh61WfO0cf6zJT7c9r5E18+AjhkbJHCpPi0GkuWTseB9bV3YQ21q+zr2FcoyhyVcaE8syn0iTJIrMqPJ9T+sqHaVhL6fse8C4yDcVx1kg0tTOmnq/+rHSXlm+eJ+mOErcKOReC69D+m7Nwa+YAySEYpbofppuukb6CD6T6uoIosWZrxXmmc4vI5jnzyyvwmatneqwebStmG1j1gt7tJJt0DKg3z6RG9o7Z9nFBaQ4XlhiAkgPDTdVf7aFXu2tqqsN1f4KLZcDkRdxcxBbgqtW3rI7yWrH1aLvF6G0fVZ/NvWzfVYfNp8LaH/kLn9K9DX3cyQRYhc8hCjE8Hdq/ivrqCKOO4KWRxC548WVGxJ096ul0BIAHmkOWJD0seqzdglaw3TqeoqaKj5K0LK9wMxGMUoGGbDpo466thevJ3ydCz9di72ari5j2xqRFO8OUxqcSoV8wyjRXxlbR2VJcLbbV2c6xm9VQwYEv9Hgq72F9OptoX96biGRjHHCwBIZcM0mfcy/VrV4+zrxdm2VnIYEXKHZmXps+jV5svahEl5s1wrTr0nVs2XqJvcm+/wASrrtovOJX+kH+XNR+sr5uerT6iPvF+FdXlna623l1eR9ZGuOWOONtGSRX361zL+LDytcy/iw8rXMv4sPK1zL+LDytWtneJqriLWZ0xDYZpJJF0oyybxquO3i79aaxg2Ts2SOKOEh5bcFyXijlbOyunCfrantJNlbOhV7a5YSw2+WRTHBNMjRuXbK2eOrD6s983RW3v4tdEjiRVzMukAyZsYmRt67VzL+LNytcy/izcrTXFpa6uUSxKG1kjbjOqPuPIy734V288twpt7qW3TIyDFYyApbNE+nXl7vu4+Qry933cfIU9paPI8byGUmUqWzFUTgJHo+LpbK2jM+0b4GO2hAx6egZG7FcaOz9pym1u7WSQSQujY7pzaOVWq8e6ieOK7u3uLV97Iu4urnhfgOjcOhszaZHpWBNvcAYJcIOEvWXCfTwfvI/F1MdqBtn7H2ezYu4yqEU7+MtoyyyqPK7yOo9ibET0XYtpulsMBgP/cT9czfRR/2S39mPZuASxwuWe6IBZ5MMksut4EOXyknD+q367AtLQXd96SRcyI+ZXxyhNRlGZXyaDo/kXShtvYh1O1Id10G9nXqo46/v6JA1N3Do3Ns2+Rul1eB8PWy+Mnk0be3XfO3gde9f17b3jNoybsEB3sC8EBf1nm/ram9nryz9GujcKtpI0mVUYErrJ8w/VtoZPLaz5dXPs37SQKttcsCLoDSRgNXDOkuGlDl3n6rjafZe1E9N2HfbuPTVlP08PWTJ9In2UlQ3OxA20dkX5XDICwKE9KbL5KSL9d9pHX9N2bg18wBkkIxS3Q/TTddI30EH0n1daqLFmYl5pnOLyOd/LK/Cdqg9bTzc9bO9Vg82nwLb1kd5LVj6tF3i9DaPqs/m3rZvqsPm0+FtD/yFz+laZ3YKiglmJwAA6bMa1N3dW08WIbJIQRiOFu1fTXlxYzJLcGSzXfauPEsqYOujvqS3gvYpJZDlRA26T8VWrHeFXA/PiuboWYTp61SfzA4v8ythevJ3ydCz9di72aryK7u4beQ3srBJZFRipWIZsrsNHRr2g2o8ixWE06CO4kORGwM3DfL+sj7ujCrqZUlcvGCMwDYZWZd8ubCtq2e0J0tJxePJlnYR4q24MrSZc29rbt9Bi9rNJGI5cMFYrrMctXXbRecSv9IP8uaj9ZXzc9Wn1EfeL/sLRocMZ7uC3fMMdCRsr4dlV1b7ObJdOoCYHKSMQZED8HWR5kq5N+Ght5Moit3OJzDHNKFx8X1v7X5HQuO3i79am+rt/MQVJ6rd/wAtcVYfVnvm+E310PnE+FtH/wAjc/pX4Fhs/ZSW/pM0Tuk064kYB2dVk3WRckXBq6sZbfZs17aqjSySwqwwYKUyyNG0jaL1cC9WNZbSdoBqhlXBQu5l7GjBODhiGR1ODo43ksT8CRKPs9tacwXLEPb3aDQuETd3m4uuX6e3/fR+LpfY32fhZWbL6XN0nlLKHOZ+DDkbxr/u/J7/APoexD6Rtm5wS8u0GLKT/wC3t+y7z63yQilOv9op8sitGx/yuBzoQ6b6Vv4n1Xlbu726bj0+8yOluRjnRsW1+ctkzq2ZJEfI8Xy6g9pvZ8mDaBjWXVkYCZGAbVypvdbl7v59Egam7h0bm2bfI3S6vA+DrZfGTyaNvbrvnbwOvepfaX2ixlvlQyRwAYiBFBfKkf63LvV4H1tWj7E9IG0LRpHNsBhlQBW9IMitkVswRItLWPnp7VyYPaKNnk1srH/Mk7rI+bePHhkyfRdprK//AB32gxt9p25KWV440gw3NRN12b+N9bTexvtBC0kbk+iyjdaMgMySQv8AqdzQ6zye8o7A2TMbq8kYyyzyDQtkcBc7oOHoeIt/pZPGeTrVRYszEvNM5xeRzv5ZX4Tt0IPW083PWzvVYPNpRsrHASr5WUjHKTwEG9zVnF07Hqq2BXuTTFlCXEWAlQdLd3rp2LVbesjvJasfVou8XoXdpHDch7iGSJCyR4AurIubCY6OlVpaSQ3Jkt4Y4nKrHlLIqo2XGZdHRryF33EfL1BdxAiO4jSVA2AYK6h1zYZtLS6E9pLDcmS3keJyqxlSyMUbLjMujo15C77iPl6uo54rhjPdS3CZFQ4LIQUDZpV06mv7dWWGeCbKsgAbR1kTZgrOu+Trq2RcLs+0uZrz0nWyXEZdvFS5Y8Cjx8F6+59m8S/LV7L38drBay3U0+tW3TIp1ciRx7hLto4ddRt5tEg5o3HTVuurLHq5Ex3HzYbn5VajcTsJbojAZd6gO+y477tq2F68nfJ0LP12LvZqaR7GMu5LMd0bp3T0mobMktk9CGGEK4qBgc2KshV1bN2VN/T7dYDJuO2LMxA7ORnahNe2kc0oGXOcQcPiJUrmpbe1jWGFN6iDACrrtovOJX+kH+XNR+sr5uerT6iPvF/2Gzv/ACNr3/wLjt4u/WokaJnnS3hE5RlTSKhkz57WbWNqWi09b2FbUh1YS/ktpvRTIBI+AgmM2qmjtoNT4vf5pPGVYfVnvm+E310PnE+FtH/yNz+lfgbN2kiA2ltDIkr4gYMyyKgy75s2tqS7WNEnmCrJLgAzBd4rNV+t2gQz3cksWBDYocuV9HrugYJwcMQyOpwdHG8lifgSJU+yrh0g2tJEyWV/lwWZQN+pHk54/pof30VYsVu/aG6UmNhiyQoxK6xc4DPLJ/b9t/Xdu/5ja9xi9nZucWDH6efsvNfXeTn9pPaad4opQRaRqBnkYjxWpifFdSn0acPh+L37Xm1rxLawigY6phkRwmEf+XTDSdJNKTJp/R0ntN7LygXyY5goKrOF3HjkR8njO33/AHFEgam7h0bm2bfI3S6vA6Otl8ZcSaNvbrvnbwOvepPan2pkAusAY42BKwKThGqxrm8bpaK8D62ob/Y14txYvBmMKjMiDHV5rlMBkzyHxefT+jqH2k9m7h5HgGN7GQBIj9OVtVGMmobhxfq/2e8O19kD0bbltg91aocC5H09v2f9t/5TUS5bX2htV8qQVWdF0fG5RoSx/wBv2VtsiJ0utsxxAXF4RmSBD9LIzaTyMvkYvp/KyaFaqLFmYl5ZXOLyOd/LK/CdujB62nm562d6rB5tKu8+/wBdJm/PmboS4b3UnN3SZatvWR3ktWPq0XeL8HZvqkHm06G0vW5/OP0V+oue/nrZVoiOHsmuUkdgAhaRo5wsTY5myRumfR6HsxYhHWW0kld2YAKyzSkxtE2Ol5KRH+BsL15O+ToWfrsXezfCuu2i84lf6Qf5c1H6yvm56tPqI+8Wrya3keGVNXlkjYqwxliU5XTBt6a+8rvj5PDr7yu+Pk8OrCKW/uXje5hV0aaQqVMiBlZS+krfA2d/5G17/wCBcdvF361N9Xb+YgqT1W7/AJa4qw+rPfN8JvrofOJ8LaP/AJG5/SvwNk7GlkZLKUNPKqnAs0Yd0DN+6y1fWN9M/omz4l1EcZAwZ1jztwtLO7VcW88uvWyuGghkPTMahcu73vRME4OGIZHU4OjjeSxPwJEqOLa1vFLte3Q+gXjDBZ1XFly8FLiPHxsX0floKm9ofbI4KjYQ2hIJlcbyJUUsupX9Xxni9++2dsv6JsW0xwGOChR9BB1zN9LLSWlmi2OxNnjcYgBY0A8pJ+2dR5PN/iSVY7B2XBA9vC5SeZc3jVDHW3S5yrReK8bl8Z4yv657PSou1LYkSrGQVlw38MuU5db21Egam7h0bm2bcZGG51eBWtl8ZcSaNvbrvnbwOveh7Qe0kienzECCKQhUhB8nGgY5db1q8D62r7Ye0raH0SfBIHfNoKxGqu31eZpMnlcifSURKF2hsTaKgMwAKSoR1N8qzIrb3Nkk7yPb+wJPSdj3O+XdIAJ5vcf4cm/jf+JF7Rex5KyZvH2YIDROd8MrELqn4UfceL8mF2fbRJt64iX025UYpbhgM8knBeVm8jFv5vpPFVqosWZiXllc4vI538sr8J2+BB62nm562d6rB5tKN7Y4GVvKxE4ZiNzMh3uatWLV1OOBZsAvdGiGIe4lwMrjpbnSROxWrb1kd5LVj6tF3i9Ak7OugBukmGTwKBGzrog7oIhk8Cvu274iTwKsRc+IMVrCJdZoZSEQMJM+GTLRe2mSdQcC0bBxj+dCav5YrC5eN7mZkdYZCpUyOVZWCaStX3bd8RJ4Ffd11xEngUIbiN4ZUguc0cilWGLTsMyPg29NTPJdizSzuZCzMmcEPFbbpJkiyZNVVxYx7YAktyi52hUJIX6Qgb0rxlbI2drdfqEi8ZlyY55bmXeZn6/rqjhtJtXG0IcrlRtItIuOmrdbXOv4cfJ1bQy3GaOSaNHXJGMVZlVhuJWwvXk75OhZ+uxd7NQtrqVjNhiyRrmKg9LP1uajcWMmsVTldSMGU/E6HoLb3cpMxGYxxrmKjqZ+tzUZ7GTOEOV1IwZT2SHrquu2i84lf6Qf5c1DaGRRO8wkEfVyBJUMh7HO6rVsg2TfOFiQZ1SPA4KNJfHb2to57O4s8mpw9IVVzYzR7zI8m96OzfW4POJTxjZN84RiodUjKnA75fHb1q+59ocXHy1fc+0OLj5arGCPZl5Bq72CZ5JkQIEjfM5JSV+D8C47eLv1o3rbbFu0iRBovRpXylI44d/imbyfW1Pcw7aFzKLeeOOD0aRMzSwywKusZmVdKWrDD9We+b4TfXQ+cT4W0f8AyNz+lfgRGV3guLds0NxFuOvY9rVzZQyyiW9BE95iNacey62pLXZKsIrSVoZS4wZpFwzyseHn+AYJwcMQyOpwdHG8lifgSJVvsr2gLi5tyz2lxEQiXKbmfqNkm0fHw/vIfF0+ykj/AKbsXZZKsWGWNUTc17Y5Vkd18l2H7ySo/Zr2ZjMWzYz42U7hkw39xcv+r7Hh8XHUPs57PxelXwkDTXy+UMq7mW3dd4q6WfS1aR/vJKl2bLbNc7UklUzBJAY8mHitWyqz6zT8k8f+HSbd2J/l9qxgM8W4BMuGlFKN7rO/o7d2943aUm7DAd1YF4Kqu6ufzf1tLsgWr2u0lnwtxI4CAANrdfmVWzKg8kiazWVP7Oe0cPo9w8mMV+3lEkwCR62Vt/DkC6v6LJxlSez3tFGbjZM+8cYnKCdy4tm7+PgecS1hQ7T2HtQhRlGdHR9HNo5lSZF3361P4dxs72fzNe3eVriSQ547aMZsjNuLmfTf0eBvGSfSeKrUw4szEvLK5xeRzv5ZX4Tt8GD1tPNz1s71WDzafAtvWR3ktWPq0XeL0NoIgLO1tMFVRiSTG+AUCrO2ltrzWQQRxvhAxGZEVGwP+6ua3v8A27VEL2C9GxbdMwhSJw0kvZgfn/trKtNoez1peQZXC3lu0UmR4jvsM+fSrmt7/wBu1c1vf+3arqaSOSIT3k8sayqVbI5VlOVqu/qJO8atrW80TTo8pxiQ4MxEUTKqN1+ddCora6spnjt5B6Sm6pQHdja4x3qd/Wz+0g76aovqF7+XoWf18XfrWwvXk75OhZ+uxd7NVztXZ+zHv726kBmVCS+DbrMNGZ1jzcCKOtrX0iLZzuQrbPAKlBj5R8wXSzLpftNZ5PoXm2bKwa9v5ipeNSS7YsqMI9GbIv0jauOtq38sYsp3AVtn4EMoxXGV8yppZk09HyknAq67aLziV/pB/lzRubmT0naNzcxm5uT1dGTCKIfRwR8BKtPqI+8Wr39156Lo7N9bg84n+waKeNZYm3yOAynDd0lbRq5fYdlYW1jbSGENcRIWdl3x0Y5PjqO92tZbOvLDOEmWCFAyhuFpRRUiwqEiCjIqjKAuGiFUb3o3F/bqjyw5MqyAldKRIjmyMjb1+uryFp3EnL15C07iTl6NpcRW6xllfGNXDYowdd9K/W1aXcoAkuII5XC4hQzortlxzaOl8GZIIrdhcTPcPnVzg0m6wXLKmhXkLTuJOXryFp3EnL1Ld3aRpIk7RARBguUJG/DeTS8ZUTWO032cqAh1RMwYnhY546945uK+3q/WQliLjEsemWKjOWx/N8EwTg4YhkdTg6ON5LE/AkSn9ndqTm3uZMGt7xF0LhEObeYr45fp7fN+1j8XQ9k/Z6JzdTBfS7nDCSQsubKrcCPI2k30fGUbGwwuvaC5AWadRmEIb6KIdf8A9ST6OKjdbUd5Nv3eEltGjkPAcc4uZXH0ufrt/wCT/WVcXO15pUvb2IPDBLiBKhIZp04OaLLk1X0Ub9ZVrJsmaV7+0RpHt4cTkjGl6Q2Giufyer+nrW2UjR+0VvjLMJH3bjdz62NtzVuvAyeT3n7Shsra2Frt22xS2unGXWEf+3uB1/8AZOskPsh7RQsZFxFpP05Iiqlxp8OLIvi3+R5PeD2f2XObq8LGSW4dfF2yPw2TM2nueIt8/jJPG+SrUw4szEvLK5xeRzv5ZX4Tt8KD1tPNz1s71WDzafAtvWR3ktWPq0XeL8G7t7HY0t4llK0UkqOempZd4sMm+yddQ2qFYuz6kWvD12GbVY9bl0tZ/ieLqGw2ns6XZklyP8u0hLB26zdjiy1c7OtUYrbLmE53r4MI3yr2zaPX0dmbPsZNpXca550jJUICAy4tkl66to+Ja1uraORLi2fdZCVfLu5U61uBQjsruS3kNxK0qQyFGw1drqmkWNl/a6vN+0pnW/uQ74Z2E0gJw3FzHPpZa2NJNObicKizO753B111lWRmLP5LJvvo6jmtIdZGsIQtmRdINI2Gmy9dXNf4kfKVbTS2+WOOaN3bPGcFVlZjuPWwvXk75OhZ+uxd7NU91sW6Sa3uzne3uiSEf9l2Ha1tO8muEbbe0VVMVJWNUUp4tXULptEmSpINpSiWR5S6AMXyrlVcMzdktTXuxbpJYbrdltrokqjDqxdjV1tfa0qy7RvAEZY94qDLlXpL+rSrrtovOJX+kH+XNL6zH3slWn1EfeLT2d4mtt5cM6YlccpEi6UZV9+tcy/izcrXMv4s3K1HcQ2eSWF1kjbWSnBlOdGwaUrvh/sby2BSbZM7NPFLiA6ykqrRMvaL8yrbZtuUisJG1l3OSC4yHRRI99SovSUAD8w6MthcM6RTZczRkBtFllGXOrrvk62vL3fdx8hXl7vu4+Qpn2W8812CuWOWSMKRiM+7qk4HZVBaRbKhMdvGkSFrlSxVFCLmwVdLRr7pg/7geDX3TB/3A8GvumD/ALgeDX3TB/3A8Gmfaxmt59YwSOKSNhq9zJmbVPp76vL3fdx8hXl7vu4+Qp7S0eR43kMpMpUtmKonASPR8X0X1MaRaxjJJkULmdt/I+XfO3X/AAjBODhiGR1ODo43ksT8CRKm2bcskW13hdLHaBUBZlA0Wx4E0X08H72PxdenX5W927cZjbJiWSPrp3ZsrM3Zdx9JJX9e29jLNKdZDDJ0yeDLKvmYaEUhMcsZz286bkkUg3ksTf2z0yqxmuJjnubl9/LJ1ZH/AMOPeRJX9d2FjFdRHWSxR7hJHTmhHX/rYvpK9Itytpt+2AMw3VSVRoiXFccrd5vP1dW+zImjudtpEq3V7lzLAh+kkYgM8j/Qw/TeVk8XWphxYsS8srnF5HO/llfhO3w447OFp5I7hJGRBi2XJLHiF3zaUi1DaxbOOrgjWJMYWJyoAi5tPsa+7v4LeHX3d/Bbw6+7v4LeHSW97s59XG4kXVxMDmwKfG3X1aQTDLLFBGki444MqKrjEdl8Hba7L2eL5WvJC7FsuVs8uHT31bNm2kVjln2mLmYDexghdFm3vAZqtbaWaN7mdv8ALKNM4nczYpm1ebr62miFEzW6AKuAxbCBn3Bw+uq82dsq7htNtoIyXlXDc0X37o6y+Jb9rq69pFuXE92AdddI2ZH0Z/J6K8IPWwGAAJ9MxPVOEq9D2QIABaa6xPx+OX4Gz5tmQC4ks7gTMhZU3uDL5Rk0cy9dX3NBxycvUFtc7LigjinSbOsqcEMm7459HxnwrrtovOJX+kH+XNL6zH3slWn1EfeL/tbrayKbnZRunivIQcWQjK/pK8Zyn0dWntJs25K3EDqLaVDuMrnTjZDwl4afWJJSOemygn85H/1JgnBwxDI6nB0cbyWJ+BIlQWm3oEmv7fE2N2Rgk6DSxC7z0iP6a3f62LQ+DNBsO3jTat0Mbu5AxSBGObWSrvNbJvordfK+Vl0K1MOLFiXllc4vI538sr8J2/8Ao7iS2j1b3chmnOJOZz020jo09peRiWF+mp+PqMrDSVq9JtIMJsMFd2LlQenkznRpL+OJxLG4lVdYxXODnV+u0X7KllvYM0qDKJFYoxHWtk31XNls2HKHjkwUHFndlK6Tvvmqz2ftP2bvLw2Wt1cg10Y8a+tfRjVew31e6F73dxWxIbXYt1s+z2dK5OsDsoErLI7GWVRlysr75/8AaXXbRecSv9IP8uaX1mPvZKtPqI+8Wp9oavXagKdXjlxzMse+wbr6SWP2fkaORQyMJdwgjMreRr3dl437Kvd2Xjfsq93ZeN+yr3dl437Kvd2Xjfsq93ZeN+yr3dl437Kvd2Xjfsq93ZeN+yr3dl437Kp7aH2dnkiuZXmkWWUNuuArJ5BfF5VoXX/49cvCrmRLNpwYQx7HUZsvyq93ZeN+yr3dl437Kvd2Xjfsq93ZeN+yr3dl437Kvd2Xjfsq93ZeN+yr3dl437Kvd2Xjfsq93ZeN+yr3dl437Kvd2Xjfsq93ZeN+yr3dl437Kvd2Xjfsq93ZeN+yr3dl437Kvd2Xjfsq93ZeN+yr3dl437Kvd2Xjfsq93ZeN+yr3dl437Kvd2Xjfsq93ZeN+yr3dl437KjBP7OTYYhkdZsHRxvJYn1OhIlQWd5sZ5btwcjl9WZMvTyrq2VpMvlMle7svG/ZV7uy8b9lU1nabFeO8VQSc+s1ebes8erVc36vO1amH2dmYsS8srzYvI538sr6nSdq93ZeN+yr3dl437Kvd2Xjfsq93ZeN+yr3dl437Kvd2Xjfsq93ZeN+yr3dl437Kvd2Xjfsq93ZeN+yr3dl437Kvd2Xjfsq93ZeN+yr3dl437Kvd2Xjfsq93ZeN+yr3dl437Kvd2Xjfsq93ZeN+yr3dl437Kvd2Xjfsq93ZeN+yr3dl437Kvd2Xjfsq93ZeN+yr3dl437Kvd2Xjfsq93ZeN+yr3dl437Kvd2Xjfsq93ZeN+yr3dl437Kvd2Xjfsq93ZeN+yr3dl437Kvd2Xjfsq93ZeN+yr0i82E8MIIBdpcBif3NK43AwB/vq67aLziV/pB/lzS+sx97JVp9RH3i1fdqnnI6sfV4u8WmgiQ3MqHB8pyqD1ufS72lhmQ20jnBSxDIT8WfRy9z0dSQZpxumNOpj178GglzC1uG3A+OdR224jUGUgqRiCN0EHoATEvKwxSJN8R1x61ayzWzxoTv1YP/euVKWaFg8bjFWHSI6GuuWwx3EQbrMexWsGtXEfXBgW7jKO/oXFs+dDuflB61l4LdBri5cJGvTPxnrVHCasEtXaPriwB7jK3f0ZLZjiu/jbcZe2HQaWVgkaDFmPSAFFYLd5kB35YJj2q5XorFjHMoxaJ+nh8adf0MTuAdM0Y7eJrnLuFwcq/JOD5u5oQEGCc71HIIbtH67otBGpuZUODhTgoPW593SpYZkNs7nBSxDJj8RfRy9z0dU2M0+GJjTqY9e3BoJcQtbqdzODnA7bcRqDoQysMVYboIPVHQBnJaRxikS7rH8vYrWWa2eOMnfqwY9zglAE6yF8HilQ4MjDeSxPvo5Y2obL2oR6TgTbXIGCXCDhL1lyn08H7yPxdGztXHpbAayTDMIVPDZeHO/0EH7yXxVaiK0kKMc8s7OGlkc7+aXR05G7ehPbPnQ7hHSIPWuvQa4uHCRp0yf0CsI7V2j64sFPcZX7+i9uxDLv423GXoNJIwREGLMdwACitvA8yA78nJj2q5XaikeMc4GJifpkfGh4fQxNGO3ja5KnAuDlXHsWwbN3NCAgwTtvVcghvyK/XdEwIpuJk3HCnBVPWl+uoRTobZmOCsSGTHsn0cvc9HVPjLORjqk6gPXtwaCXEDQKdzODnA7bRRqDowZGGKsN0EHqjoBrgku+8iXdY+CtYS2zpHjvlYMe4yp31LPA4kjcYqw6GvuXyr0lA3WY9ai1h6K+r67OM3cZf+ehPbPmXpMDuMp6116DT3DiOJBizGsIrV3j65mCnuMr99Ra3JDpv4m3GH/p6EHiNfr8/DyYZMnYP19cy/i/ZVzL+L9lUn1sf6aj7Ufoq67aLziV/pB/lzQtJdnSWSiVZNdISRiA4yaUUXXddUEI2NO4jjRA4ZsDlULm8hwquLN9lTWyyhQZmYkLg6vu4wp1vXUbkQPbSW8IhTPwsqpGtxHuLoNm6NtNIcXKYMT0zlJTH5tPIBjkUth+YY00shzO5LMx6pJxPQCucdTI0ak/EArjv+hcyyHE6xlH5FU5EXuV6FzbscUjZXT8mfMG7zoSxsdGEKiD8hUSN85+hLb4+LkjLEdkpXK3cs3Qt7bHxax6zDsmLJ/h9CAKdGXGNx8YI8IK3QggU4LM5L/lyAYL8/oQTxnBkdel1QTgy/KXoS6s4GUrGSPibfd0oy9BXQ5WUgqR0wR0jUMzdOSNXP52AarmaPcdI2yn4idwN8no2sshxcqVJPTOQtHj8ymbp5QTh+anmkOaSRizH8pOPQKOcdTIyL2uCvh8/oXTud1ZGRR8SodWo+b0Lq2JxRSrqPiJzK/dZUo29wDlxDI6nK6ON5LE/AkTrqazizMkIXF3OZ3dwJZJpn+klkZt90HgB8XNGSw6mK7qt33QtrbHxYUyEfGxOT5uXoW+QnCRtW4+MN/6tLoRQqcFmk0/yhRmy910IZ4zg0bhhh+fdHyuhMYzgZMsZI+Jjp/N0egGU4MpxBHTBFQTtvpY0c/nZQ1XM8e/jiZlPxHDRNYndJ6Z6FtJIcWAKEnqhGZF+atE/FUk8hxeVizH8pPQeJziIZCqfkUgPl7ot0LpnO8kMaj4lQ5B+joXNsTigCyKPiO9butHoaknQgRQo7YZ2boGEHQmRgw6mK6at0La2BwjwaQj4zvF7noWxQ4axxGw+MPodCy/e/wCF0ZPrY/01H2o/RV120XnEr/SD/Lml9Zj72SrT6iPvFq+7VPOR1bW0m8ltI0JHUxjXdow3CEbui/BYdcjUIbZCxJ0m4Kjrnbg1FbJurEoXH48Om3yqIO6DuEUwKlrZjjFKN0YHeqzdfQht42kkbpKox/vqO2JBk3WkI6RZunh3vQkvIkL20zFyw3cjHdcP1ulvaEcal3bcVVGJJ/IBTGcYXE5DOvWgDQT/AI9D+o2yGQMAJ1XdIK6KyZetyUABiTuAU97cqUllXJHGdwhcczFx2WVegl1bLnmgBDIOmyHd0OySirAhhuEHcIpdo3CGOOMHUhhgWYjLnw6zKehki8vEc8YO5j1GT5VGOVGjdemrAgj/AHGo7iRCtrEwcuRgGI3VROu0t/0JbXHKzjFGPUYaSUYbmMxuvUI6f5VPCWlSNSIQfGzYaKjq7vX9jSogwVAFUfkG5UlvJvJVKNh8RGFGK4QgY6EgGiw+NGoQ2yFyTpNwVHXO3BqK1TdEShcfjPCb5TdByELWrEmKQbowPSRz160IYI2kkbpKoxNJbsQZCS8pHSzH4u1UZehJfQoXt5jncru5GO/z9izUEjUu7HBVUYkn8gFM84wnuCCy9ao3iHstJugNoWyGTRCzIu625vZAva76sAN3pYU99dKY3kXJFG24wUnFnZeDmw6CXFsueeDHFB02Q9b2a0VYFWG4Qdwg0u0LhCkMW7EGGBZiMMwHWL0DFFhr4znix3ASNwp8paMUyNHIvTVhgR/fUczoVtI2DO5GAbA+TTruhNaE5TINFviYHMnzhRhuYzG4+PpHslbhLSxxKRED4yXDRUfn6/saWNBgiAKo/IBgKkgk3kqlG/MwymjFOpy46EoGiw7FqENtGXY9M9RR1ztwVqG1Q4iJcCfjJ0nb5TnoO6oWtHJMcg3QAfo361loRQI0kjdJVGJpYHwMrkvKR0sx4I7VV6D38CF4JtKTLulG4WbsG66giKWZjgFAxJP5AKeW4GWe4wJTqqo3qt2Wl0Fv7ZDIVXLMi7rYDeyKvC7OsMN34qa/ukMbMuWFG3GwO+dl4PY9BJrcZp7fHQ6rKd8F7PRoo6lWXcKkYEH81JfzoUgi0o8wwLtwSvYL13Qsv3v+F0ZPrY/01H2o/RV120XnEr/SD/Lml9Zj72SrT6iPvFq+CgscqbgGJwEkZNW1u9reF4YkjYrGpGKqEOXxv5KyvZ3jD4jEhHnaypZ3iqOoIkA87XNL3il5WuaXvFLytYG0vCD0wYl5WsI7K7QfEsKD9Etc0veKXla5pe8UvK1zS94peVolLG7UnpkQoMf4tc0veKXla5pe8UvK1zS94peVrOLG7D9dqUx/v1tc0veKXla5pe8UvK1zS94peVoObG7LDpMYUx/v1tc0veKXla5pe8UvK1zS94peVoF7G7YjpYwof0y1zS94peVrml7xS8rXNL3il5WsHsrxx8TQof0y1gtneADpARLytc0veKXla5pe8UvK1lazvGHxGJCPO1lSzvFX4hEgHna5pe8UvK1zS94peVrA2l6Qepql5WsI7K7QHp5YUH6Ja5pe8UvK1zS94peVrml7xS8rRZLG7UnpkQoCf4tc0veKXla5pe8UvK1zS94peVrOLG7z9dqUx/v1tc0veKXla5pe8UvK1zS94peVoO1jdlh0mMKE+drml7xS8rXNL3il5WuaXvFLytDPY3bYdLNCh/TLWAtL3il5WuaXvFLytc0veKXlaweyvHHxNChH/GWsFs7wAdICJeVrml7xS8rXNL3il5WsrWd4wPUMSEedrKlleKvxCFAPO1zS94peVrml7xS8rWBtL0g9TVLytHJZXaY9PLCg/RLXNL3il5WuaXvFLytc0veKXlaLLY3asemRCgPna5pe8UvK1zS94peVrml7xS8rWs9Bu8/XalMf79bXNL3il5WuaXvFLytc0veKXlaDNY3bMOkTChPna5pe8UvK1zS94peVoY2t7u7g8UnLVzS94peVrml7xS8rT2VtbXSSs6MDJGAu4exkekB3CFGI/wB1XXbRecSv9IP8uaX1mPvZKtPqI+8Wp7SUTay3cxuwQFSynK+XTzaLaNPdWkoyReVD6LJhu4yA71ezqWSxkMiQuY2YgjdwxzLm4LUtvdyM0xGYxxjMVHUz7oy5ql2nG7yRwsqSQqvjQWOCaDMq6XX58lJEXljznDO6YKMevYM2WopL2YIJyBGF0iR1+C/Rr19NNM4jjjBZ3Y4AAdMk0ItZIoLZdayEJ2x3c2X5FPZTmVpEVWLxqGTTUSJlbPpeLZWpxZSHWR7rROMr4deF4SVcWtnLrZLQgSkA5d3EaD8PSWizEAAYknpAVe3kEhlh2fjriqndwGI1WO/z4aNLjr0xwxzRjcx67I7fNpdozzr6M4GrZNIvm3oiC7+jtEt/lRFr84B8nl1ubL2lfT8WPDr+rawxWeBJeQZSMpyb3tt7lo3FjJrFU5XU7jKfidKa0mkaSWPckES5wp6xmxXTWlu7KTWRncPUZSOA68FqSS/l1esOVFALMeubIullThULtJVNuVziXEZcuGOfNWq1kmGbLrchydv1+X5FLLGweNwGV1OIIO6GDVLY2twHnh6nSDYb4wt9Ll7GoILuXLLdMEiQAsd05c7Yb2PNwqe5uZFihjGLuxwAFLBrJI85yiSRMqDHrmx0VpJb6XIJThGqjMx+Ngq8BaF2kqtblc4lxGXLhjnzVJPYuZI4nMbEgrugBtzNwcrVFsgy43soLCMAkDAF8JG3qMyLUQvptW0xwRQCxw6sjKv0a0btpUFsF1hmxGTLhjnzdbXpVkxeIMUJIKnFexb89G0uJGeZRi6xLmy48FziulRvbWYGFMdZm0SmG6daDvKlSxmEjwnBlIKkj9YgbfR1BsyWX/N3O8jAxw63WYbzPwKSe9LBZGyIEXMScM35KVBr8WIA8Xj0+1apbOfXGWBsrlUxXHq5cWWnms5cRF5VH0WXsmXrOzpodZI4VspkRMU7ZTjmZfk0k8DiSKQBkdTiCDR8vuHDHVj+/f0l3ZyCSF+r1QR00deC61BsyWX/ADdzvIwMcOt1mG8z8DoT2kom1lu5jdggKllOV8unm0W0am2lDKTBbDGZSNNfixj7PgV9PxY8Oor23zamYZkzDKcMcu6p/NT310HaJCFyxjFiWOUYZii901JEXlizkDPImCjHr2DNloMCCCMQR0sKj2ZFcCa6lJAWIF1BAzaci6HBqa7mx1UCNI+AxOCjMctDHXpj08Yxufnyu1QXkztJBdeReJc4OAx6e4tJEDMpdgoJTcGJw3cGNRz3gcrK+rURqGOOBbMczJorhSWqSPE8hwRpVyqT1Fz5m31JHeSEyuMRFGMzAdew4K05spCXj38TjK4HX5esp5pDhHGpdyATuKMzbi0CVuEJ6hQYjuZGr+qm4X0LLm1v/Jl32szaOr39JbJI8TyHKjSrlXHqLnzNlzdA2d0ZDMFDMETEANvd0la9GtzKJMrPi6YDBBmbSUtSXtoxaGQkKWGBxUlG0T+apmtGLC3laGTEEaa9PDHg7tEk4AbpJpodZI4VspkRMUPZK2OktJPA4kikGZHU4gg9B7Z5HleM4O0S5lB6q58VzZaS7tJBLDIMVYf8VYcFl6D2skjySRnBzEuZQeqmbFdJaS7s5BLC/SI6YPVV14LrV120XnEr/SD/AC5pAercxgdzLVmR0jBER3C1twWezJdoCW7bPqs2hleULm1cUvlMa21LtCIW0lygim2cAyMFOXNI28bPo6f7R62tDEMscV4yIvTwVdFRu1dbbmRYpZsNbLiWdjhoxRKx4eXeR1tD2kmgFrDftHHDbjcOTMj+kydLf6n95rdZ5OntLjYkttAVQG5lVyq4EZXXPDGqs3AbPWzLyNtfNEsFvHcgsA0WV33I8cu++XUlndprIJcA64lccCHXSQq2+WpNj2uyj/TxEgF3gTEgJ4IVcqSK3Cklz56lOzbZ9rj0OBMYg26pjgfW4LHK6pm8XpLTXN/b/wBNnW3KrZsrK8oIZGZ2ZY82g/cavrK2zaWq5IIliCLiWwBGbfPmbq0uzrC0lewZQ08kW+k3dKHNpatfk17QWcdg6QMr6xi+OoK51WGTOF1rf2yULEbFkkthb6v0t1doimHlsuqyZeF5Wobkt6RLaoZIZAWARpZV18WXHSyeT0qW3gXPLLs9UjX42MICrUYS5j2elpHhBbYKXfLpeNbCTLm7b93Wyo5LR7qPVmWWxiYoJZEaVGbNlfRyRK3d9vWzriLZj7FW9lWCWENjHKpZI2yx6uNUyaytp2eydnna8CzH/MRZlIw3BG8mSXPl5StqXbFY555xrbNVKiHAyMoyt12sdf3VbUuZtlPtvUTPbxqWwjiRWdFXJq5FzZF/xN/W2PZoLJYxywmWG2lYvqWDxnJmyo2STWLwd5Umx7nYJaGGB4nnRtDAA/5jIEfM6+Wz6zymnVgIGZGuJWgkK9PIXuTl+Xq1WopIdhS7LksSpXaAk0sSwXGfxUetzsdHS0Pq/F1sHbTp/nrt7USyYnAhl12XJ5PfnrKxPTWeMj8+Dr/zVdRiNQkMaGJQAApVlC5Ot0ae5n2W+3NRElvGrNgkShcijJq5VZsq/wCJv62n7PXlvJBZSRGX0KRyxj0o9ESYRvpa1a2lFGMEjvXVR08AAqr062XNAmSS7EskxxJzNkdcdI6Pyav7662M+2pJJGhzM+CxAfRIojkyui8NG0Po62rsO/jf0KJ0KWkjktEQ7549amrbReNKcf8A/RJ+iOrraRjEct05d8CTJLIdLImcnhaX6tKS5lgMKbfuMzWMJyMVQgxRNuNpT6/rKtL+22M+xJbZhGk6vir7jHVyrq01kjZfKNv/AKStjXcKZZ7yZjO2JOYxiJI9EnKuj1tbPk2ZDr5ra5EmXEADAYoXzMmhmXSqLa+0LuK6gaQLcWagAKG3uR8i/wBv1tbaez2ZLfmaVQyx5iUC59WzaqObyqtW1p7+IWcs8Bhl2dgyMUfIJJHOEbZtFM/11HZWzNkGeweBs04zPGhOYSa9Aj5sq+N1kstWgjlEwYM7EbmVmZmeLd/VtoUba02PNfxGR21yByuJC4poQyLo9vW0L3ZcS3F/PcHG0jXAQE/s232jvUXw6sLu7sJ5NovM0hMjHGc6OVIxk8Vqv3m/pHdDG7KC0ZOJUkbqYjra24LPZku0BLdtn1WbQyvKFzauKXymNe0UwiFvtCeIINmhSrDdRi7Z8mn4vjXpbj0uOzWxhURWQVWLJEv0rYOusdF6/iqttoMgjeYHMg6QZGaJ8vYsyVKAMQZYwT8QzdOntLjYsttAVQG5lVyq4FcrLnhjVWbg6dbP9m9j5rlZbOOR54sc8keDJlQfRRZY9Li/rF2RNsttk3cqgxSSHO02HTzTGONup9VW0fVpO9NLYpsWWa2WBk9KZXaIrgfGsuqyZF+tqC6nuVMChnkfdGVmY5oFXfM6todnUe0r9Wt9jW7Z7O16RlI6U0v9v2cX6ytmyRxmVku1dVHVKjFY+u06t7TaGy32VbtOua7nVzlx3DkzRQ8HTepJ9nwf1Wea3QSQLjnjwSNM2sCuq5kjjfP1k2Sri7vIRs26jgyizIOdwdwu7lUz5V/w6u2Vc7CGQquOGJyto4mks7bYst7AokwuAHaNszOzZlSF1ZUzZX8ZQ9BlSW4S7a5NuRguZV1fo2lwsmWT5dai+2I1mkbJluS2KoRo6CasZM+88pULN0zGpOPTxwFT3eyFWFLi3WE3cmBVV0C+VdLxmaL9XTbD2rOt8l5bySwXAAVlKpIzKygfsqhAIOV5A35DmLbvyTW02Uhla+kII3QQQtbRI3P8tL3jVYQWuxztG3uIGe4KsFXEk5xImSVnzVFJZW5tIczgQlzJgcxzeMfSbNRB6RqODYmyGvIpy+tEZZspwGUzaE0sqvmbhcCpplkUvNcO0kKjARHBVEeXtdPoYbE2U13r5DrUjLMRiCc8mjNM6cHrKurgOusnuGaS3QFRER0kynrlq67aLziV/pB/lzS+sx97JVp9RH3i1tC52VJa6m/mMvjSSemzLwf2lX21LieKbbd4mVCcdSoGGrVsqq3ASrpr9ofRbpmlkCHEmVjjmj0Vyr29C6R7aWzgINrbylsg3BjrYsumzPvqubLaD2YDZGgEeYaSsrEMcu81eahs68uLWGzfKkzx4l8g6m9/J2FWmy9lGL0C1RNyQkSl0zIDmw1eTI1eg7UmEV7KmEs1sSAGDZo2Xe8FU137yv6Xc3lubRsI5JxiZWjHx6Glo/8AUp7rYMkGpaCOAekElsEVFbMAu+Z4s1PtrbU8cl8kZitY4sdWoIbf6K9e1S7RvGt9Td87yEkEKMIxEuXOrL0NvxGSPNtaSR7fp4ANnZdbo6OlJwaXZaTWkduI9TnBOcJvTpZOtqHYeyHieLd9KebEOxzCYarDMieMzV/T9ruokyGBGgODLDlEaYvh5ZdLST9nT7Otb2CS03Uinlx1oQ/lyPlyr2/YVs+5hlV4LOB45i2IdpHMhzIuGXJ47ruBWx7u3aNY9nz62YOSCVzQyeLyq2byDVc/0C4hNldOZdVcY4o532XRNXE95Nr9oXz6y6cb3EFiqpuL+setqTTOjLfXLTxBMcQpLNp5gNLTral9LMI7XaFvqYzESJVJ1OLdLLotB12nTbLa9t2tWBiNw2JlMR0d3Q6z/qVabHsZABaypJnlx3QM+tOgG0s0uermwtiommyZC5IXQdJTuqG4KVs2ztWtzDs+KHDdIbXxrq2fGRcrR9ZQsNoSKl2VVmlixyCVeEFO+Sk2btG7t1siVE8seJkZVOPWLm3vYVfoXVobibNbgEkiMY5BJmC6elW09s2jw5rm3Edqsmbf+Jx1oVd6uoarobQaE2twTKQhxYzMRpporlTJvs1RbSs3twtqStqcd0I2+1yurZs2bS+ZV1HdPG8lxcvONXiQFYKo34Xra21e2UkDT38gktNZmwALvLJrQBo5UkypU1tfmH0IkvGEOZ9YSukGwXxWReHR2lntZkhc+iRyliiJj4vxWTynCf8AaVYXG1ZLULYXKTKIswJUEPJwcv0aZKjtLRkSRJ1lJkJAyhZIzvVf9bVveWTW4ismzWhJIYZgmsMwdWVtJODUaRXJtb+ArLHJGWCa1Ruq3D1VQ2u3LmBbCNg8og37lelwFq/vdkPbam9ZWwlJxAUaIy5eyar3aG2rjPf30TW51ByiONgB4tsq+M0Fy0+zIL23ktDjHHPJjrRGfy5G4Pb1FYRMZBHiWc8JmOZ2w4NNZWMtpqc7MrNiTicBiNDsak9Il195dOZrqTqFz1E6VbKvonRY7B3aVWxzENky6vAfs+htC52VJa6m/mMvjSSemzLwf2lX91te5L7Q2khikeA5QiYALqzlXS0Eptli9t3tCDELhsdbqzo9PIzbz/qVBs+Fi6QAjM3TJYmR2+U71LZWzKszMjLnJC6LBiMVDUNnXlxaxWb5VmePEvkXqb38nYVY3uwpxDebPiW2UTbqPEuO/wBFtPTbg9xUO0/aCeJvQgfRYLfHLmO+d8VWruzjIWS4heNC3SBZSq5sKXZkU1pHAqGIPic4U9lq/wAvW1siyjkWS0sZWlvFkxGtLZWOVFxXgtHl6x6CqAFAwAG4ABVsNntGs9rOsw1hIG4D8SvwqitdtXFvHYK4eVbfHO2G9XSWv6vsCaOOaaMRXEM+JQqoVEK6LcGNKk21tudJb0pqoY4d4idytSwg4GRGQH4swy0uz7SWzWFM2RiSWGYli2LR9c3W1/T4Lx4r7W+lG5UkKZ8MuU4aep/6v7OorLbN1AlgrBpjB5R8vS4Cr/yUqKMFUAAfkFR7U2JdCOfJqpreYnVMo3rBcG0qG2tvTxyXMKGO2ih3ihgyuzYqvXvUg2Pd+g7Pvty+txjuDHHxCgcPrPF8V4uks7NMkSf3sx30jtwnaprSbHVzo0b4bhwYZTlptl2V3bmyGZIpnxEiox7RsvT7PsKisI2MmTEu53MzMczthwaI+OpbXZV5DNZMS0LXJLSJm4O6jeBQsLO4DX0tyLm7kZmRWOVkZEyrvVYo2nv/AJlW1neSCW4iUh3BLDdZnVczaWgjZKmh2ReRTWUjF4vSiWkQtvlxKtUizy6+7uXM1zL1C56idjV120XnEr/SD/LmjJs+bWiO6jVxlZSCVlK6MirVvDJdsHjiRGGqkOBVQrfR1zxuKl5OueNxUvJ1zxuKl5OueNxUvJ1zxuKl5OueNxUvJ1zxuKl5OueNxUvJ1zxuKl5OueNxUvJ1zxuKl5OueNxUvJ1zxuKl5OueNxUvJ1zxuKl5OueNxUvJ1zxuKl5OueNxUvJ1zxuKl5OueNxUvJ1zxuKl5OueNxUvJ1zxuKl5OueNxUvJ1zxuKl5OueNxUvJ1zxuKl5OueNxUvJ1zxuKl5OueNxUvJ1zxuKl5OueNxUvJ1zxuKl5OueNxUvJ1zxuKl5OueNxUvJ1zxuKl5OueNxUvJ1zxuKl5OueNxUvJ1zxuKl5OueNxUvJ1zxuKl5OueNxUvJ1zxuKl5OueNxUvJ1zxuKl5OueNxUvJ1zxuKl5OueNxUvJ1zxuKl5OueNxUvJ1zxuKl5OueNxUvJ1zxuKl5OueNxUvJ1zxuKl5OueNxUvJ1zxuKl5OueNxUvJ1zxuKl5OueNxUvJ1zxuKl5OueNxUvJ1zxuKl5OueNxUvJ1zxuKl5OueNxUvJ1zxuKl5OueNxUvJ1zxuKl5OueNxUvJ1zxuKl5OueNxUvJ1zxuKl5OueNxUvJ1zxuKl5OueNxUvJ1zxuKl5OueNxUvJ1zxuKl5OueNxUvJ1zxuKl5OueNxUvJ1zxuKl5OriysrgyXEjRlUMbrjldXbSdFXerX+kH+XNXX3DhrU6Wb0Tqc54fpH6mvwn8+vwn8+vwn8+vwn8+vwn8+vwn8+vwn8+vwn8+vwn8+vwn8+vwn8+vwn8+vwn8+vwn8+vwn8+vwn8+vwn8+vwn8+vwn8+vwn8+vwn8+vwn8+vwn8+vwn8+vwn8+vwn8+vwn8+vwn8+vwn8+vwn8+vwn8+vwn8+vwn8+vwn8+vwn8+vwn8+vwn8+vwn8+vwn8+vwn8+vwn8+vwn8+vwn8+vwn8+vwn8+vwn8+vwn8+vwn8+vwn8+vwn8+vwn8+vwn8+vwn8+vwn8+vwn8+vwn8+vwn8+vwn8+vwn8+vwn8+vwn8+vwn8+vwn8+vwn8+vwn8+vwn8+vwn8+vwn8+vwn8+vwn8+vwn8+vwn8+vwn8+vwn8+vwn8+vwn8+vwn8+vwn8+vwn8+vwn8+vwn8+vwn8+vwn8+vwn8+vwn8+vwn8+vwn8+v/bc2/8A8u8/k/8AAr//2Q==;" vertex="1" parent="1">
                    <mxGeometry x="120" y="150" width="520" height="225" as="geometry"/>
                </mxCell>
                <mxCell id="4" value="VCC 3V" style="text;html=1;strokeColor=none;fillColor=none;align=center;verticalAlign=middle;whiteSpace=wrap;rounded=0;" vertex="1" parent="1">
                    <mxGeometry x="170" y="90" width="60" height="30" as="geometry"/>
                </mxCell>
                <mxCell id="5" value="GND" style="text;html=1;strokeColor=none;fillColor=none;align=center;verticalAlign=middle;whiteSpace=wrap;rounded=0;" vertex="1" parent="1">
                    <mxGeometry x="140" y="60" width="60" height="30" as="geometry"/>
                </mxCell>
                <mxCell id="6" value="" style="endArrow=none;html=1;exitX=0.092;exitY=-0.01;exitDx=0;exitDy=0;exitPerimeter=0;entryX=0.5;entryY=0.667;entryDx=0;entryDy=0;entryPerimeter=0;" edge="1" parent="1" source="2" target="5">
                    <mxGeometry width="50" height="50" relative="1" as="geometry">
                        <mxPoint x="200" y="130" as="sourcePoint"/>
                        <mxPoint x="520" y="70" as="targetPoint"/>
                    </mxGeometry>
                </mxCell>
                <mxCell id="8" value="" style="endArrow=none;html=1;entryX=0.5;entryY=1;entryDx=0;entryDy=0;exitX=0.151;exitY=-0.013;exitDx=0;exitDy=0;exitPerimeter=0;" edge="1" parent="1" source="2" target="4">
                    <mxGeometry width="50" height="50" relative="1" as="geometry">
                        <mxPoint x="220" y="140" as="sourcePoint"/>
                        <mxPoint x="520" y="70" as="targetPoint"/>
                    </mxGeometry>
                </mxCell>
            </root>
        </mxGraphModel>
    </diagram>
</mxfile>